<svg width="73" height="72" viewBox="0 0 73 72" fill="none" xmlns="http://www.w3.org/2000/svg">
<circle cx="36.5" cy="36" r="36" fill="#27895D" fill-opacity="0.1"/>
<g clip-path="url(#clip0_107_2282)">
<path d="M47.4971 37.2937C42.1381 37.2937 37.7939 41.6379 37.7939 46.9968C37.7939 52.3556 42.1381 56.7 47.4971 56.7C52.856 56.7 57.2002 52.3556 57.2002 46.9968C57.2002 41.6379 52.856 37.2937 47.4971 37.2937ZM46.2842 51.1377L42.1433 46.9968L43.8584 45.2817L46.2842 47.7075L51.1357 42.8559L52.8509 44.571L46.2842 51.1377Z" fill="#27895D"/>
<path d="M34.1549 15.3C25.4609 15.3 18.3874 22.5353 18.3874 31.2293C18.3874 35.0492 19.727 38.6465 22.1824 41.4856L15.7999 46.9969H34.1549C34.5713 46.9969 34.9693 46.9203 35.3787 46.8895C35.4382 40.2526 40.8461 34.868 47.4967 34.868C48.1596 34.868 48.7982 34.9608 49.4324 35.0638C49.7454 33.8173 49.9225 32.532 49.9225 31.2293C49.9225 22.5353 42.8489 15.3 34.1549 15.3ZM35.3678 38.5067H32.9421V36.0809H35.3678V38.5067ZM35.9755 30.7414C35.6012 30.9581 35.3678 31.362 35.3678 31.7932V33.6551H32.9421V31.7932C32.9421 30.4985 33.6385 29.2916 34.7602 28.6425C35.1357 28.4257 35.3678 28.023 35.3678 27.5907C35.3678 26.9215 34.8241 26.3778 34.1549 26.3778C33.4858 26.3778 32.9421 26.9215 32.9421 27.5907H30.5163C30.5163 25.5842 32.1485 23.952 34.1549 23.952C36.1614 23.952 37.7936 25.5842 37.7936 27.5907C37.7936 28.8853 37.0972 30.0934 35.9755 30.7414Z" fill="#27895D"/>
</g>
<defs>
<clipPath id="clip0_107_2282">
<rect width="41.4" height="41.4" fill="white" transform="translate(15.7999 15.3)"/>
</clipPath>
</defs>
</svg>
