<svg width="72" height="72" viewBox="0 0 72 72" fill="none" xmlns="http://www.w3.org/2000/svg">
<circle cx="36" cy="36" r="36" fill="#6E1FED" fill-opacity="0.1"/>
<path fill-rule="evenodd" clip-rule="evenodd" d="M39.2114 41.7215C38.6902 42.3457 38.3143 43.0924 38.1258 43.8814L37.1453 47.9848C36.8652 49.1589 37.2658 50.3691 38.1897 51.1447C39.1253 51.9282 40.3894 52.0952 41.4815 51.6236L45.3562 49.9437C46.1009 49.6192 46.7693 49.1218 47.2874 48.5048L47.4244 48.3427V50.8359C47.4244 52.5807 46.005 54 44.2603 54H23.1666C21.4218 54 20.0025 52.5807 20.0025 50.8359V21.1641C20.0025 19.4193 21.4218 18 23.1666 18H38.9869V25.3828C38.9869 25.9658 39.4586 26.4375 40.0416 26.4375H47.4244V32.0034L39.2114 41.7215ZM35.8228 24.3281H25.2759C24.693 24.3281 24.2213 24.7999 24.2213 25.3828C24.2213 25.9658 24.693 26.4375 25.2759 26.4375H35.8228C36.4058 26.4375 36.8775 25.9658 36.8775 25.3828C36.8775 24.7999 36.4058 24.3281 35.8228 24.3281ZM42.1509 30.7266H25.2759C24.693 30.7266 24.2213 31.1983 24.2213 31.7812C24.2213 32.3642 24.693 32.8359 25.2759 32.8359H42.1509C42.7339 32.8359 43.2056 32.3642 43.2056 31.7812C43.2056 31.1983 42.7339 30.7266 42.1509 30.7266ZM25.2759 45.4922H33.7134C34.2964 45.4922 34.7681 45.0205 34.7681 44.4375C34.7681 43.8545 34.2964 43.3828 33.7134 43.3828H25.2759C24.693 43.3828 24.2213 43.8545 24.2213 44.4375C24.2213 45.0205 24.693 45.4922 25.2759 45.4922ZM24.2213 38.1094C24.2213 38.6923 24.693 39.1641 25.2759 39.1641H37.9322C38.5152 39.1641 38.9869 38.6923 38.9869 38.1094C38.9869 37.5264 38.5152 37.0547 37.9322 37.0547H25.2759C24.693 37.0547 24.2213 37.5264 24.2213 38.1094ZM46.4387 22.6761L42.4321 18.8693C42.0533 18.5102 41.5874 18.2987 41.0963 18.1613V24.3281H47.3577C47.2269 23.7016 46.9076 23.1213 46.4387 22.6761ZM54.8817 31.3322C53.5709 30.2301 51.5652 30.3614 50.4272 31.7184L49.7432 32.5275L54.5909 36.595L55.244 35.7888C56.3672 34.4529 56.2251 32.4577 54.8817 31.3322ZM41.19 42.6469L40.8293 43.0739C40.5162 43.4488 40.2906 43.8968 40.1773 44.3716L39.1968 48.475C39.1042 48.8633 39.2391 49.2711 39.5449 49.5276C39.8426 49.7778 40.2626 49.8504 40.6419 49.6883L44.5135 48.0095C44.9615 47.8148 45.3632 47.5151 45.6763 47.1433L46.0384 46.7149L41.19 42.6469ZM42.5518 41.0366L48.3823 34.1379L53.23 38.2054L47.3999 45.1046L42.5518 41.0366Z" fill="#6E1FED"/>
</svg>
