<svg width="73" height="72" viewBox="0 0 73 72" fill="none" xmlns="http://www.w3.org/2000/svg">
<circle cx="36.5" cy="36" r="36" fill="#F54135" fill-opacity="0.1"/>
<g clip-path="url(#clip0_107_2232)">
<path fill-rule="evenodd" clip-rule="evenodd" d="M26.5551 17.1657C23.2577 21.5578 23.2577 27.6913 26.5551 32.0834C26.931 32.5845 27.6409 32.6811 28.1376 32.3085C28.6364 31.9332 28.7368 31.2248 28.3627 30.726C25.6646 27.134 25.6646 22.1151 28.3627 18.5231C28.7368 18.0243 28.6364 17.3159 28.1376 16.9406C27.6388 16.5654 26.9292 16.6681 26.5551 17.1657ZM20.6044 34.9454H52.3957C54.2652 34.9454 55.7858 36.4661 55.7858 38.3355V51.8957C55.7858 53.7651 54.2651 55.2858 52.3957 55.2858H20.6044C18.7351 55.2858 17.2144 53.7651 17.2144 51.8957V38.3355C17.2144 36.4661 18.7351 34.9454 20.6044 34.9454ZM22.9398 50.7657H27.4599C28.0845 50.7657 28.5899 50.2603 28.5899 49.6357C28.5899 49.0111 28.0845 48.5057 27.4599 48.5057H24.0698V40.5955C24.0698 39.9709 23.5644 39.4655 22.9398 39.4655C22.3152 39.4655 21.8098 39.9709 21.8098 40.5955V49.6357C21.8098 50.2603 22.3152 50.7657 22.9398 50.7657ZM31.98 50.7657C32.6046 50.7657 33.11 50.2603 33.11 49.6357V40.5955C33.11 39.9709 32.6046 39.4655 31.98 39.4655C31.3554 39.4655 30.85 39.9709 30.85 40.5955V49.6357C30.85 50.2603 31.3554 50.7657 31.98 50.7657ZM39.8559 49.9094L42.116 40.8692C42.2683 40.2645 41.8997 39.6509 41.2939 39.4998C40.688 39.342 40.0744 39.7161 39.9243 40.3219L38.7601 44.9766L37.5959 40.3218C37.4447 39.716 36.83 39.343 36.2264 39.4997C35.6205 39.6509 35.252 40.2645 35.4042 40.8692L37.6643 49.9094C37.7901 50.4126 38.2414 50.7657 38.7601 50.7657C39.2788 50.7657 39.7301 50.4126 39.8559 49.9094ZM51.1904 45.1156C51.1904 44.491 50.6849 43.9856 50.0603 43.9856H46.6703V41.7255H50.0603C50.6849 41.7255 51.1904 41.2201 51.1904 40.5955C51.1904 39.9709 50.6849 39.4655 50.0603 39.4655H45.5402C44.9156 39.4655 44.4102 39.9709 44.4102 40.5955V49.6357C44.4102 50.2603 44.9156 50.7657 45.5402 50.7657H50.0603C50.6849 50.7657 51.1904 50.2603 51.1904 49.6357C51.1904 49.0111 50.6849 48.5057 50.0603 48.5057H46.6703V46.2456H50.0603C50.6849 46.2456 51.1904 45.7402 51.1904 45.1156ZM44.8623 32.3085C44.3636 31.9333 44.2631 31.2248 44.6372 30.726C47.3354 27.1339 47.3354 22.1151 44.6372 18.5231C44.2631 18.0243 44.3636 17.3159 44.8623 16.9406C45.3611 16.5665 46.0718 16.6681 46.4448 17.1657C49.7422 21.5578 49.7422 27.6913 46.4448 32.0834C46.0695 32.5837 45.36 32.6817 44.8623 32.3085ZM30.6039 19.3507C27.9113 22.3568 27.9113 26.8924 30.6039 29.8984C31.0204 30.3643 31.7367 30.4021 32.1997 29.9867C32.6643 29.5706 32.704 28.8555 32.288 28.3909C30.3656 26.2434 30.3656 23.0057 32.288 20.8582C32.704 20.3936 32.6643 19.6784 32.1997 19.2624C31.7384 18.8486 31.0211 18.8861 30.6039 19.3507ZM40.8004 29.9866C40.3358 29.5706 40.2961 28.8555 40.7121 28.3909C42.6345 26.2434 42.6345 23.0057 40.7121 20.8582C40.2961 20.3936 40.3358 19.6785 40.8004 19.2624C41.2639 18.8475 41.9801 18.885 42.3962 19.3507C45.0888 22.3567 45.0888 26.8923 42.3962 29.8984C41.9799 30.3642 41.2635 30.4022 40.8004 29.9866ZM33.1099 24.6245C33.1099 26.4939 34.6306 28.0146 36.4999 28.0146C38.3694 28.0146 39.89 26.4939 39.89 24.6245C39.89 22.7552 38.3693 21.2345 36.4999 21.2345C34.6306 21.2345 33.1099 22.7552 33.1099 24.6245Z" fill="#F54135"/>
</g>
<defs>
<clipPath id="clip0_107_2232">
<rect width="38.5714" height="38.5714" fill="white" transform="translate(17.2141 16.7144)"/>
</clipPath>
</defs>
</svg>
