<svg width="72" height="72" viewBox="0 0 72 72" fill="none" xmlns="http://www.w3.org/2000/svg">
<circle cx="36" cy="36" r="36" fill="#25AB6F" fill-opacity="0.1"/>
<g clip-path="url(#clip0_107_2210)">
<path d="M50.7081 19.0544H34.2593C32.3558 19.0544 30.813 20.5975 30.813 22.5007V30.6031C31.6825 31.0352 32.622 31.5025 33.4989 31.9384L34.8406 29.254C35.6529 27.6306 37.6333 26.9711 39.2561 27.782C40.8822 28.5958 41.5412 30.5708 40.7271 32.1972L38.3354 36.9818C38.3989 37.6151 38.3426 38.2535 38.1641 38.8713H39.7431L35.5784 50.3234C35.3313 51.0026 35.8089 51.7953 36.6096 51.7953C37.0572 51.7953 37.4782 51.5191 37.6399 51.0729L42.0771 38.8713H42.8458L47.3281 51.0766C47.4912 51.5205 47.9111 51.7953 48.3584 51.7953C49.1065 51.7953 49.655 51.0481 49.3873 50.3205L45.1826 38.8713H50.7081C52.6114 38.8713 54.1544 37.3283 54.1544 35.425V22.5007C54.1544 20.5975 52.6114 19.0544 50.7081 19.0544V19.0544ZM48.3578 34.1722H43.4365C42.8309 34.1722 42.3396 33.6809 42.3396 33.0753C42.3396 32.4692 42.8309 31.9784 43.4365 31.9784H48.3578C48.964 31.9784 49.4547 32.4692 49.4547 33.0753C49.4547 33.6809 48.964 34.1722 48.3578 34.1722ZM48.3578 30.0598H43.4365C42.8309 30.0598 42.3396 29.569 42.3396 28.9629C42.3396 28.3573 42.8309 27.866 43.4365 27.866H48.3578C48.964 27.866 49.4547 28.3573 49.4547 28.9629C49.4547 29.569 48.964 30.0598 48.3578 30.0598ZM48.3578 25.9479H36.6096C36.0034 25.9479 35.5127 25.4566 35.5127 24.851C35.5127 24.2455 36.0034 23.7542 36.6096 23.7542H48.3578C48.964 23.7542 49.4547 24.2455 49.4547 24.851C49.4547 25.4566 48.964 25.9479 48.3578 25.9479Z" fill="#25AB6F"/>
<path d="M36.0135 38.4007C36.2118 37.82 36.2103 37.2133 36.0429 36.6597L38.7651 31.2159C39.0359 30.674 38.8165 30.015 38.2747 29.7443C37.7331 29.4732 37.0741 29.6928 36.803 30.2347L34.4813 34.8776C33.0937 34.1866 30.9853 33.1383 29.2869 32.2936C27.7067 31.5078 26.579 30.8031 24.6549 30.8031H23.6857C25.1839 30.8031 26.521 30.1136 27.3962 29.0344C28.064 28.2132 28.4634 27.1666 28.4634 26.026C28.4634 23.387 26.3245 21.248 23.6851 21.248C21.0469 21.248 18.908 23.387 18.908 26.026C18.908 27.2934 19.4016 28.4451 20.2068 29.2998C21.0775 30.2256 22.314 30.8031 23.6848 30.8034C21.847 30.8034 20.0503 31.5481 18.7577 32.8441C17.4401 34.1583 16.7142 35.9093 16.7142 37.7746V41.2992C16.7142 42.8165 17.6994 44.1076 19.0639 44.5669V50.698C19.0639 51.3039 19.555 51.7949 20.1608 51.7949H27.21C27.8158 51.7949 28.3068 51.3039 28.3068 50.698V38.3739C29.3469 38.8937 30.7131 39.5767 31.8185 40.1297C32.5935 40.5171 33.499 40.5519 34.3065 40.2234C35.1117 39.8921 35.7324 39.2325 36.0092 38.4136C36.0107 38.4093 36.0121 38.405 36.0135 38.4007Z" fill="#25AB6F"/>
</g>
<defs>
<clipPath id="clip0_107_2210">
<rect width="37.44" height="37.44" fill="white" transform="translate(16.7141 16.7144)"/>
</clipPath>
</defs>
</svg>
