<?xml version="1.0" encoding="UTF-8"?>
<svg width="700pt" height="700pt" version="1.1" fill="#fff" viewBox="0 0 700 700" xmlns="http://www.w3.org/2000/svg">
 <g>
  <path d="m548.62 133.88-105-105c-1.5781-1.6992-3.8047-2.6523-6.125-2.625h-254.98c-8.9414 0.046875-17.508 3.6211-23.832 9.9414-6.3203 6.3242-9.8945 14.891-9.9414 23.832v167.48c0 4.832 3.918 8.75 8.75 8.75s8.75-3.918 8.75-8.75v-167.48c0-4.3164 1.7148-8.4531 4.7656-11.508 3.0547-3.0508 7.1914-4.7656 11.508-4.7656h246.23v96.25c0 2.3203 0.92188 4.5469 2.5625 6.1875s3.8672 2.5625 6.1875 2.5625h96.25v351.23c0 4.3164-1.7148 8.4531-4.7656 11.508-3.0547 3.0508-7.1914 4.7656-11.508 4.7656h-334.95c-4.3164 0-8.4531-1.7148-11.508-4.7656-3.0508-3.0547-4.7656-7.1914-4.7656-11.508v-44.977c0-4.832-3.918-8.75-8.75-8.75s-8.75 3.918-8.75 8.75v44.977c0.046875 8.9414 3.6211 17.508 9.9414 23.832 6.3242 6.3203 14.891 9.8945 23.832 9.9414h334.95c8.9414-0.046875 17.508-3.6211 23.832-9.9414 6.3203-6.3242 9.8945-14.891 9.9414-23.832v-359.98c0.027344-2.3203-0.92578-4.5469-2.625-6.125zm-102.38-77.699 75.074 75.074h-75.074z"/>
  <path d="m481.25 400.4v-118.3c0.046875-7.5352-2.9258-14.773-8.25-20.102-5.3281-5.3242-12.566-8.2969-20.102-8.25h-310.8c-7.5352-0.046875-14.773 2.9258-20.102 8.25-5.3242 5.3281-8.2969 12.566-8.25 20.102v118.3-0.003906c-0.046875 7.5352 2.9258 14.773 8.25 20.102 5.3281 5.3242 12.566 8.2969 20.102 8.25h310.8c7.5352 0.046875 14.773-2.9258 20.102-8.25 5.3242-5.3281 8.2969-12.566 8.25-20.102zm-281.75-36.223c5.8438 5.9805 13.863 9.3281 22.227 9.2734 4.6836 0.11328 9.3398-0.78125 13.648-2.625 4.4766-2.1602 8.5586-5.0586 12.074-8.5742l9.8008 10.148c-8.6758 10.324-21.516 16.23-35 16.102-13.008 0.61719-25.688-4.1992-35-13.301-8.5352-9.0352-12.965-21.191-12.25-33.598-0.3125-12.75 4.6953-25.051 13.824-33.953 9.3359-9.1016 21.965-14.027 35-13.648 13.41-0.12109 26.199 5.6328 35 15.75l-9.8008 10.676c-3.5703-3.6562-7.7812-6.6211-12.422-8.75-4.3242-1.7852-8.9805-2.6172-13.652-2.4492-8.5859-0.24609-16.906 2.9727-23.098 8.9219-6.2891 5.8633-9.7383 14.16-9.4531 22.75-0.24219 8.6719 3.043 17.07 9.1016 23.277zm130.2 17.5c-6.7812 5.1211-15.133 7.7188-23.625 7.3477-14.109 0.066406-27.73-5.1797-38.148-14.699l9.8008-11.727v0.003906c7.7227 7.4648 17.961 11.77 28.699 12.074 4.1445 0.23047 8.2539-0.875 11.723-3.1523 2.832-1.918 4.4844-5.1523 4.375-8.5742 0.10156-3.2383-1.4062-6.3164-4.0234-8.2227-4.3906-2.543-9.1875-4.3203-14.176-5.25-5.1602-1.2148-10.246-2.7344-15.223-4.5508-3.3984-1.1484-6.543-2.9297-9.2773-5.25-5.668-4.4961-8.75-11.508-8.2227-18.727-0.39062-7.6758 3.0938-15.035 9.2734-19.598 6.625-4.7188 14.621-7.1211 22.75-6.8281 5.9453-0.027344 11.859 0.91797 17.5 2.8008 5.4336 1.7812 10.48 4.5703 14.875 8.2266l-8.2266 11.551c-3.168-2.7109-6.8594-4.7383-10.848-5.9531-4.3906-1.543-9-2.3711-13.652-2.4492-3.8633-0.125-7.6875 0.84375-11.023 2.8008-2.8867 1.7031-4.5781 4.8789-4.375 8.2266-0.21484 3.4414 1.4609 6.7266 4.375 8.5742 5.7773 3.0078 11.969 5.1289 18.375 6.3008 7.668 1.4883 14.867 4.7891 21 9.625 4.8594 4.4883 7.4844 10.891 7.1758 17.5 0.14062 7.5352-3.2227 14.707-9.1016 19.422zm82.074 0c-6.7617 5.1602-15.129 7.7617-23.625 7.3477-14.184-0.058594-27.82-5.5-38.148-15.223l9.8008-11.727c7.7227 7.4648 17.961 11.773 28.699 12.074 4.1445 0.23047 8.2539-0.87109 11.727-3.1484 2.832-1.918 4.4805-5.1562 4.375-8.5742 0.097657-3.2383-1.4062-6.3164-4.0273-8.2266-4.3906-2.543-9.1836-4.3164-14.176-5.25-5.168-1.1836-10.254-2.7031-15.223-4.5508-3.3984-1.1445-6.543-2.9297-9.2773-5.25-5.668-4.4961-8.7461-11.504-8.2227-18.723-0.39062-7.6758 3.0938-15.035 9.2734-19.602 6.625-4.7188 14.621-7.1172 22.75-6.8242 5.75 0.26953 11.422 1.4531 16.801 3.5 5.4336 1.7773 10.48 4.5703 14.875 8.2266l-8.2266 11.551v-0.003906c-3.168-2.707-6.8594-4.7344-10.848-5.9492-4.3906-1.5469-9-2.3711-13.652-2.4492-3.8633-0.125-7.6875 0.84375-11.023 2.8008-2.8867 1.7031-4.5781 4.8789-4.375 8.2227-0.21484 3.4453 1.4609 6.7305 4.375 8.5781 5.5039 2.9219 11.398 5.043 17.5 6.2969 7.7344 1.4492 15 4.7539 21.176 9.625 4.8555 4.4883 7.4844 10.895 7.1758 17.5 0.48047 7.2539-2.3516 14.332-7.7031 19.25z"/>
 </g>
</svg>
