<svg width="163" height="220" viewBox="0 0 163 220" fill="none" xmlns="http://www.w3.org/2000/svg">
<path opacity="0.4" fill-rule="evenodd" clipRule="evenodd" d="M65.6971 171.78C84.6961 173.175 105.903 178.44 119.679 165.294C134.893 150.753 139.344 127.216 133.561 107.062C128.092 87.8836 111.126 73.7962 91.9521 68.1474C75.7574 63.4051 61.1051 74.4588 45.7166 81.2235C29.1364 88.5461 7.01767 90.6731 1.47923 107.899C-4.26954 125.787 7.68368 144.582 21.039 157.902C32.6417 169.478 49.3272 170.559 65.6971 171.78Z" fill="#8E6AC8"/>
<path fill-rule="evenodd" clipRule="evenodd" d="M160.928 117.442C160.234 117.243 159.368 117.191 158.609 117.155C155.927 116.997 153.193 118.276 150.564 118.852C149.412 119.137 148.194 119.472 146.962 119.722C145.868 119.87 144.738 119.981 143.601 120.052C142.683 120.08 141.614 120.009 141.3 120.975C139.453 121.334 137.819 121.482 136.058 121.178C136.223 120.617 136.317 120.031 136.147 119.427C136.233 119.283 136.35 119.09 136.412 118.959H136.201C133.111 117.722 129.77 116.877 126.664 115.596C122.61 114.134 116.639 111.311 111.955 109.383C112.273 107.644 112.391 105.877 112.256 104.158L112.444 104.006C112.506 103.669 112.602 103.265 112.776 102.959C112.997 102.372 113.002 101.572 113.09 100.909C113.273 99.6128 113.395 97.6609 113.062 96.1217C112.917 94.0344 111.51 92.4253 109.993 91.1346C108.131 89.2923 106.266 87.4949 104.447 85.5816C94.3846 75.3214 93.5888 62.3987 77.8359 58.4713L77.8282 58.4103C77.7041 58.2718 77.6533 58.1619 77.5119 58.3808C76.9918 58.1814 76.3432 58.1981 75.9076 57.8611C75.1344 57.1557 74.5857 56.3413 74.227 55.3748C73.9507 53.5478 74.1462 50.7321 72.5459 49.5631C70.7684 48.4982 61.3243 47.74 60.5099 50.0683C60.0046 50.5429 59.7747 51.1459 59.6168 51.8842C59.0906 52.8797 58.7586 53.9835 58.2285 54.9943C57.1016 57.2614 56.3711 56.759 54.3815 57.2771C54.1655 56.7956 53.5099 56.8927 53.0321 56.9626C47.246 57.7758 40.1915 59.9952 37.7142 65.4346L37.925 65.4077C33.6488 73.4432 36.422 83.6621 37.1868 92.1775C37.8055 99.7468 37.098 107.352 35.4167 114.412C33.353 121.903 33.2346 130.281 37.3291 137.061C37.7452 137.837 38.2519 138.933 39.1485 138.446C39.6398 138.818 40.1917 139.075 40.954 139.298C41.1642 139.451 41.3818 139.707 41.6018 139.816C41.6122 139.831 41.9664 139.627 41.985 139.621C42.6545 140.577 79.4092 143.77 83.2234 144.265C86.5838 144.671 91.0241 145.705 93.7626 143.281C96.0256 142.634 98.3937 140.951 100.202 139.279C101.3 155.198 101.907 187.799 102.886 188.026C103.314 188.171 103.893 188.345 104.378 188.484C104.381 189.628 104.466 190.927 104.376 192.052C104.226 193.321 103.845 194.821 103.672 196.156C102.932 196.106 102.714 196.849 102.627 197.354C101.988 201.525 102.007 204.887 102.053 209.471C109.573 213.901 118.386 216.337 126.847 219.2C127.657 219.809 129.414 219.15 130.349 218.986C133.598 218.346 137.29 216.453 136.47 212.984C135.869 210.371 133.348 208.868 131.226 207.331C128.904 205.648 126.457 203.967 124.321 201.964C122.608 200.35 121.329 199.098 119.901 197.277C119.267 196.43 118.591 195.038 117.739 194.413C118.639 193.345 116.82 194.346 116.131 194.408C115.726 192.5 115.224 190.669 114.622 188.839L115.207 188.865C117.127 187.072 118.204 178.461 118.338 175.907C119.3 159.255 119.277 140.062 115.416 126.038C118.349 127.845 121.565 129.353 124.482 131.14C126.321 132.217 128.187 133.714 130.249 134.236C130.383 134.622 130.875 134.772 131.143 134.394C131.512 134.44 131.988 134.287 132.028 134.118C132.406 133.347 132.952 132.515 132.887 131.676C132.887 131.676 132.38 130.501 132.38 130.501C133.515 130.962 134.748 131.933 135.959 132.022C138.405 140.191 143.224 135.615 147.862 132.435C150.661 130.479 153.722 128.32 156.668 126.234C159.167 124.246 164.045 122.359 161.654 118.421" fill="white"/>
<path fill-rule="evenodd" clipRule="evenodd" d="M55.8029 56.778C58.1652 56.2037 58.5688 50.5389 59.9952 51.3456C60.8198 52.0629 59.471 53.4161 59.2323 54.2258L59.1276 54.4314C58.6437 55.3744 58.0964 56.3142 57.1426 56.8579C56.5295 57.5035 54.697 56.8696 54.9664 57.8979C55.9074 60.997 60.9009 63.1429 63.8439 64.1078C68.4182 65.8266 75.8182 65.245 76.893 59.4835C74.3839 59.024 72.5289 54.4954 74.0753 52.6099C74.128 54.4414 74.6282 56.3316 76.0654 57.5725L76.1447 57.6453C76.3976 57.8761 76.7251 58.1518 77.0516 58.1005C77.3699 57.657 77.9878 57.9093 78.1697 58.3773C92.4554 60.8476 95.6379 76.2604 104.634 85.3325C106.432 87.2251 108.31 89.0372 110.165 90.8723C112.059 92.3754 113.399 94.4711 113.492 96.9316C113.662 98.3002 113.578 99.6699 113.397 101.041L113.384 101.164C113.3 102.014 113.25 102.926 112.846 103.681C112.776 103.936 112.805 104.259 112.583 104.44C112.68 106.003 112.588 107.595 112.324 109.155L113.013 109.462C120.598 112.841 128.27 116.026 136.178 118.559C136.854 118.437 136.799 119.223 136.472 119.58C136.558 120 136.567 120.438 136.466 120.853C137.914 121.061 139.385 120.888 140.815 120.624C141.267 119.628 142.469 119.681 143.398 119.653C144.552 119.581 145.704 119.468 146.85 119.308C149.673 118.677 152.445 117.847 155.241 117.118C157.112 116.591 159.13 116.616 161.007 117.101C161.326 117.458 161.62 117.84 161.869 118.245C163.585 120.906 161.894 123.345 159.499 124.743C155.657 127.467 151.813 130.188 147.954 132.888L147.673 133.088C143.081 136.375 137.915 140.537 135.463 132.535C134.638 132.438 133.916 131.885 133.148 131.558C133.355 132.519 132.738 133.489 132.313 134.312C132.129 134.781 131.629 134.935 131.166 134.931C130.771 135.319 130.028 135.166 129.769 134.706C127.67 134.105 125.936 132.701 124.077 131.611C121.436 130.006 118.664 128.637 115.984 127.1C120.436 145.539 119.347 164.745 118.163 183.513L118.154 183.683C118.007 186.423 117.379 187.719 115.107 189.399C115.503 190.607 115.857 191.819 116.127 193.062C116.222 193.35 116.661 193.079 116.665 193.474C117.472 193.285 119.112 193.488 118.54 194.604C120.161 195.965 121.258 197.808 122.679 199.359C125.181 202.359 128.451 204.591 131.658 206.791C139.03 210.549 139.452 217.06 130.827 219.284L130.741 219.305C129.553 219.591 128.123 220.244 126.971 219.694C125.249 219.362 123.539 218.691 121.854 218.179C115.069 215.933 108.432 213.303 102.002 210.281C101.768 210.171 101.637 209.92 101.63 209.669C101.702 207.595 101.139 196.231 103.289 195.986C103.769 193.664 103.844 191.268 103.757 188.898C103.06 188.679 102.355 188.467 101.632 188.33C100.931 188.109 99.8344 188.059 99.3648 187.491C99.196 187.43 99.0722 187.279 99.0976 187.041C99.4774 183.48 99.7653 179.909 99.9754 176.334C100.695 164.344 100.451 152.316 99.6312 140.339C97.9427 141.8 96.0187 143.079 93.8767 143.759C92.6944 144.944 90.7987 145.198 89.1848 145.341C87.1094 145.47 85.0705 145.055 83.0223 144.797C79.5443 144.359 76.0906 144.747 72.6379 145.177L71.458 145.324C63.005 146.251 53.8697 146.443 45.9914 142.829C44.508 142.961 42.6665 141.357 41.7411 140.286C41.3325 140.538 40.931 140.045 40.6054 139.786C40.0681 139.623 39.4585 139.388 38.9708 139.046C37.7336 139.45 37.0663 137.844 36.5963 136.97C29.1375 124.194 37.4441 111.477 36.8193 97.9288C37.1977 87.3072 32.3541 76.2413 37.0353 66.0542C37.9823 61.7432 43.521 58.7639 47.69 57.6683C49.0335 57.4464 54.1194 55.6071 54.6795 57.1538C54.9445 56.8056 55.397 56.7796 55.8029 56.778ZM117.673 195.102C116.974 195.177 116.293 195.22 115.602 195.347C113.08 195.761 110.675 196.737 108.508 198.094C107.806 198.532 107.18 199.083 106.374 199.327C104.719 199.928 103.093 198.436 103.214 196.822C102.753 200.877 102.832 205.05 103.071 209.126C109.545 212.055 116.163 214.667 122.902 216.936C124.419 217.572 126.216 217.775 127.61 218.635C129.986 218.485 132.378 217.651 134.374 216.346C137.685 214.048 135.487 210.403 132.743 208.8C126.701 206.073 121.558 200.553 117.673 195.102ZM104.436 189.105C104.309 190.307 105.222 192.18 105.094 194.576C104.994 195.324 104.761 196.107 104.842 196.858C105.214 199.644 108.23 196.104 109.476 195.716C111.245 194.743 113.168 194.08 115.144 193.718C115.132 193.075 114.707 192.819 114.651 192.184C114.571 191.248 114.575 190.35 114.533 189.405C111.963 190.574 107.162 189.748 104.436 189.105ZM118.283 194.92C118.238 194.95 118.191 194.976 118.142 194.998C118.499 195.431 118.809 195.911 119.232 196.283L119.052 196.003C118.811 195.629 118.564 195.257 118.283 194.92ZM38.4634 95.2444C38.3339 95.7708 38.0981 96.2658 37.7448 96.6868C39.5693 111.483 30.1826 123.818 38.8128 137.575C38.9219 137.626 39.0214 137.689 39.1172 137.768C39.1679 137.734 39.2187 137.699 39.2685 137.663C43.3135 130.503 49.0717 124.328 53.6597 117.476C54.5403 115.757 55.99 114.026 56.545 112.039C47.325 108.397 43.642 103.084 38.4634 95.2444ZM159.801 117.687C159.41 117.827 158.975 117.712 158.558 117.704C157.077 117.673 155.629 118.059 154.213 118.45C150.092 119.577 145.95 120.575 141.729 121.243C141.644 121.331 141.562 121.421 141.488 121.516C141.561 121.64 141.572 121.795 141.466 121.949C140.829 123.165 141.344 124.655 140.882 125.958C140.211 128.594 138.428 131.569 135.767 132.504C136.655 133.35 137.291 134.439 138.205 135.255C140.451 136.795 142.926 134.5 144.76 133.269C148.252 130.801 151.753 128.351 155.264 125.911C156.837 124.607 160.316 122.963 161.069 121.236C161.551 119.912 160.673 118.621 159.801 117.687ZM135.736 121.049C134.232 124.116 133.365 127.376 132.497 130.668C133.4 130.916 134.231 131.305 135.119 131.567C136.369 131.848 138.133 129.432 138.76 128.473C139.406 127.4 139.858 126.222 140.068 124.987C140.245 123.778 140.057 122.522 140.582 121.402C138.954 121.568 137.302 121.603 135.736 121.049ZM46.3755 114.723C47.787 114.327 44.576 117.521 44.3911 117.862C42.3033 120.328 40.3904 122.932 38.4921 125.544L37.9166 126.337C37.8613 126.418 37.4802 126.981 37.7558 126.909C37.781 126.903 37.7928 126.936 37.7728 126.95C36.0172 127.26 45.529 114.94 46.3755 114.723ZM80.7866 113.215C80.9008 112.871 80.3588 112.724 80.2446 113.066L79.8848 114.15C78.527 118.245 77.1775 122.346 75.5545 126.346C75.4188 126.681 75.9617 126.827 76.0964 126.496C77.8617 122.143 79.304 117.671 80.7866 113.215ZM96.5704 111.781C96.0754 114.131 94.8248 116.249 94.0666 118.495C95.4905 118.181 96.5875 116.854 97.4175 115.712L97.4424 115.674C97.834 115.071 98.2891 114.129 99.1784 114.555C100.528 115.339 99.5613 118.121 99.5361 119.439C99.3649 121.247 98.7775 122.938 98.377 124.693C99.4061 123.99 99.7019 122.603 100.203 121.522L102.134 116.89C103.553 114.945 102.894 120.769 102.82 121.319C102.705 122.526 102.196 123.741 102.396 124.956C103.196 124.095 103.7 123.013 104.124 121.914C104.712 120.387 105.248 118.84 105.807 117.302C106 116.809 106.733 116.982 106.627 117.525C106.591 119.27 106.562 121.015 106.534 122.76L106.514 124.069C106.51 124.317 106.387 125.042 106.816 124.841C109.066 122.479 109.643 117.755 109.35 114.581C104.927 114.688 100.413 114.114 96.5704 111.781ZM135.934 120.595C135.915 120.653 135.895 120.71 135.874 120.768C135.886 120.771 135.9 120.773 135.913 120.777C135.921 120.716 135.928 120.655 135.934 120.595ZM37.7598 120.595C37.2692 120.232 45.5163 109.641 44.982 112.698C42.6812 115.421 39.9981 117.808 37.7598 120.595ZM110.593 97.1899C102.88 95.3777 96.0883 102.148 88.3429 101.125C88.4326 103.55 88.5572 105.991 88.5082 108.417C98.794 109.266 97.6237 113.645 109.464 113.204C110.994 112.179 111.623 105.896 111.494 104C111.592 101.757 109.663 100.751 107.742 100.357C107.047 100.777 105.801 99.5254 106.833 99.0852C108.19 98.6769 109.459 98.0348 110.593 97.1899ZM53.6939 57.4457C50.9501 57.7162 48.2324 58.4644 45.7105 59.6203C36.3883 62.3124 35.0441 73.2281 36.1651 81.5C36.6296 87.7905 38.4229 93.9428 42.1934 99.0581C52.2315 114.371 68.8575 111.947 84.6058 109.921C85.1735 109.526 86.1355 109.807 86.6825 109.285C86.6253 109.265 86.5738 109.238 86.5297 109.204C86.7926 108.999 86.996 108.639 87.0566 108.256L87.1701 108.268C87.2814 105.893 87.1924 103.564 87.2283 101.208C82.0536 99.7886 76.504 99.0631 71.2596 97.6492C70.6635 98.0651 69.9762 97.5864 69.3939 97.3604C67.8844 96.7182 66.3615 96.1081 64.8273 95.5272L64.4436 95.3826C63.4435 95.0076 62.4442 94.6231 61.4535 94.2223L61.0824 94.0712C60.5149 93.839 59.0817 92.9796 58.4627 93.5162L58.5126 93.6239C58.8797 94.4252 60.1443 97.3898 58.5897 96.8035C57.3274 95.9167 56.6729 89.7333 55.4225 89.6787C54.9926 90.8299 54.6845 92.0247 54.6141 93.2553C54.5887 93.5322 54.2249 93.7657 54.0062 93.507C52.5233 91.5534 54.7633 89.4255 54.8231 87.3635C54.9644 84.9658 53.904 82.7224 53.3756 80.4274L53.3431 80.2691C53.0334 78.7803 52.5513 76.9751 52.6792 75.6398L52.9869 76.7989C53.2955 77.9588 53.6117 79.1188 53.9745 80.2623C54.8747 83.1185 56.5002 86.0611 55.5969 89.1172C57.4089 89.1776 57.7153 92.0387 58.396 93.3454C59.4973 91.9158 67.2468 95.3436 69.0151 95.8935L69.3562 95.5064C74.8945 89.2242 78.8926 84.9727 87.4765 89.942C85.9936 85.1566 85.8504 80.0739 85.5974 75.1047C85.6841 74.1594 85.1379 71.6657 85.9082 71.1497C86.0418 71.1692 86.1718 71.2096 86.2946 71.2634L86.2944 71.7532C86.2981 72.702 86.3424 74.2754 86.7401 74.6328L86.9226 76.5115C87.4006 81.3968 87.9426 86.2784 89.4009 90.9861C92.9015 92.9439 96.0957 95.3953 99.1006 98.04L99.4428 97.9151C103.156 96.5552 107.623 94.8121 111.419 96.5093C111.356 95.5511 110.986 94.6341 110.47 93.8237C109.61 93.6103 109.048 92.703 108.432 92.099C106.481 90.0021 104.478 87.9532 102.571 85.814C94.437 77.0597 90.9763 62.6847 78.2023 59.2892C77.3578 66.3631 68.3114 67.4919 62.8599 65.0709L62.653 64.9917C59.2642 63.6832 55.4345 61.7084 54.2444 58.1106L54.1949 58.0065C54.0725 57.7527 53.9266 57.4941 53.6939 57.4457ZM55.7045 97.7016C55.7145 97.6906 55.7337 97.7053 55.7252 97.7174C54.1369 99.7113 52.8445 102.431 54.423 104.813C54.7148 105.349 54.0329 105.864 53.5964 105.455C51.4055 102.966 53.8362 99.5926 55.7045 97.7016ZM110.963 98.152C110.089 98.7758 109.153 99.294 108.161 99.7027C108.164 99.817 108.108 99.9393 108.058 100.029C109.364 100.133 110.724 100.47 111.64 101.423C111.685 101.075 111.728 100.725 111.762 100.376C111.846 99.4766 111.692 98.672 110.963 98.152ZM50.9055 89.3379L50.9156 89.2898C50.9227 89.2353 51.0055 89.2316 51.0031 89.2898C50.9727 90.0026 50.4543 90.5096 50.0152 91.0171C49.3636 91.7701 48.712 92.5229 48.0602 93.2756C46.9704 94.5873 45.3649 95.906 45.7259 97.8063C45.7327 98.4813 44.8872 98.6259 44.5441 98.1296C43.1798 95.5266 47.4744 93.312 48.922 91.6327C49.6018 90.9059 50.673 90.3711 50.9055 89.3379ZM71.3537 97.1525C71.3741 97.1849 71.3886 97.22 71.3964 97.256C71.6251 97.2803 71.8528 97.3064 72.0806 97.3343L71.3537 97.1525ZM37.1937 91.0648C37.2344 91.3367 37.2726 91.6093 37.3091 91.8823L37.3451 92.1551L37.3507 92.1313C37.3693 92.0605 37.4045 91.9989 37.4505 91.9498L37.4662 91.9338C37.3715 91.6456 37.2807 91.3559 37.1937 91.0648ZM99.8932 88.2494C100.44 88.191 97.9608 89.9747 97.8238 90.1954C97.6239 90.3693 97.3902 90.0603 97.6035 89.9097C98.3739 89.3659 99.1332 88.8078 99.8932 88.2494ZM95.069 83.0025C95.4497 82.8465 95.7083 83.4809 95.3472 83.6576C94.0316 84.3015 92.6405 84.7569 91.4284 85.604C91.3752 85.6411 91.3085 85.5546 91.3589 85.5147L91.5046 85.3995C92.6211 84.5124 93.7364 83.5483 95.069 83.0025ZM37.6479 74.9821C38.0156 76.7143 40.0049 77.2832 41.5488 77.7447L42.0312 77.9284C43.3945 78.4504 44.8069 79.0377 45.7877 80.1407C46.1721 81.3848 43.429 79.2176 43.0461 79.1078C41.1729 77.9458 37.7882 77.7483 37.6479 74.9821ZM78.2585 58.8087C78.2688 58.8967 78.274 58.9867 78.2765 59.0766C78.3919 59.0766 78.5065 59.0775 78.6219 59.0812C78.4875 59.0024 78.3644 58.9125 78.2585 58.8087Z" fill="black"/>
<path fill-rule="evenodd" clipRule="evenodd" d="M82.6108 35.0912C82.0011 27.6566 80.1447 21.0718 71.4217 20.791C67.4851 20.8262 63.4668 21.6627 59.8468 23.2105C51.0482 27.6234 48.2565 43.7483 56.0084 50.2393C55.9623 50.2655 55.9512 50.3413 56.0056 50.3779C57.6071 51.4557 59.3873 52.3424 61.1701 53.0875C65.9193 55.0959 71.51 55.9683 76.3533 53.7897C83.7447 50.6436 83.8555 41.8895 82.6108 35.0912Z" fill="white"/>
<path fill-rule="evenodd" clipRule="evenodd" d="M97.1591 31.6261C97.4629 31.3525 97.6894 30.9935 97.8039 30.591C97.9088 30.2241 97.9159 29.8233 97.8048 29.4573C97.6858 29.0646 97.4291 28.7518 97.4868 28.3431C97.4931 28.3031 97.501 28.2613 97.5135 28.2196C97.7355 27.4501 98.2818 26.8948 98.0864 26.0418C98.0313 25.801 97.9274 25.5842 97.7826 25.4136C97.7986 25.2288 97.8128 25.0422 97.8244 24.8557C98.145 24.1049 98.1335 23.2128 97.7915 22.4735C97.7498 22.095 97.6867 21.7201 97.5979 21.3513C97.6387 21.0253 97.5819 20.6663 97.4771 20.3811C97.2929 19.8792 97.0654 19.3847 96.8184 18.8983C96.8475 18.7653 96.8344 18.6248 96.761 18.4997C96.6276 18.2725 96.4513 18.0728 96.2711 17.8776C96.1436 17.6499 96.0153 17.424 95.888 17.2011C95.829 17.0986 95.7639 16.985 95.6921 16.8646C95.8877 16.5016 95.9922 16.1477 95.7853 15.7208C95.7076 15.5604 95.4939 15.4422 95.3179 15.4527C95.1256 15.4641 94.9315 15.4727 94.7364 15.4801C94.3717 15.0396 93.9584 14.6441 93.5155 14.4165C93.0669 14.0362 92.6121 13.663 92.1698 13.2818C92.0445 13.1734 91.9184 13.065 91.7932 12.9566C91.7923 12.954 91.7914 12.9504 91.7905 12.9478C91.6981 12.611 91.5942 12.2787 91.4903 11.9446C91.4254 11.7376 91.4059 11.5208 91.2043 11.408C90.7832 11.1725 90.1357 11.1352 89.6525 11.0952C89.6045 11.0526 89.5566 11.0108 89.5086 10.9681C89.728 10.3835 89.6889 9.76243 89.4127 9.17689C89.3185 8.97787 88.9916 8.88813 88.8122 9.01963C88.3983 9.3235 87.9071 9.43101 87.4212 9.38658C86.7071 8.83748 83.8265 6.35443 83.3814 6.09232C83.3759 6.0829 83.3714 6.07348 83.3656 6.06416C83.1154 5.6645 82.8115 5.34357 82.4699 5.08625C82.4211 5.03534 82.3723 4.98434 82.3236 4.93334C82.3665 4.62867 82.4794 4.33448 82.6611 4.08836C82.6806 4.05993 82.7029 4.03239 82.7251 4.00573C83.0431 3.62722 82.6549 3.14032 82.2108 3.33845C82.1788 3.35267 82.1468 3.36689 82.1148 3.38199C81.7734 3.53428 81.3956 3.69981 81.0022 3.83949C80.8582 3.78556 80.7115 3.73669 80.5776 3.68284L79.1444 3.10646C78.9084 3.01157 78.659 2.93116 78.4308 2.81965C78.3512 2.29018 77.8208 1.94295 77.2699 1.96108C77.3017 1.85943 77.3491 1.76072 77.416 1.66716C77.4355 1.63961 77.4569 1.61296 77.4791 1.58719C77.7624 1.25755 77.384 0.64625 76.979 0.939461C76.9506 0.959896 76.9213 0.980333 76.8928 1.00077C76.7803 1.07976 76.6651 1.15386 76.5486 1.22565C76.3622 1.14426 76.1522 1.12569 75.9325 1.21179C75.4459 1.40238 74.9973 1.59616 74.5689 1.89488C74.5515 1.90706 74.5335 1.91727 74.5159 1.92873C74.3032 1.67178 73.9656 1.49994 73.6616 1.5018C73.6553 1.5018 73.6505 1.50171 73.645 1.50163C73.4177 1.15519 73.0011 0.953855 72.5987 1.00281C72.6259 0.505687 72.1284 0.0620508 71.6754 0.00811788C71.1462 -0.0547891 70.6692 0.252549 70.5104 0.768955C70.4662 0.912717 70.422 1.05657 70.3778 1.20042C69.9669 0.99295 69.5333 0.833994 69.0803 0.754649C68.0487 0.573925 67.0401 0.766378 66.0461 1.05284C65.9468 1.08145 65.8476 1.11086 65.7483 1.14018C65.6066 0.97589 65.4736 0.807694 65.3465 0.650693C65.1271 0.379696 64.6004 0.596493 64.6359 0.944792C64.6606 1.18514 64.563 1.35804 64.4059 1.48092C64.2333 1.50616 64.0665 1.5138 63.8149 1.50873C63.4824 1.50198 63.3312 1.49158 62.9835 1.356C62.8215 1.29291 62.6198 1.12703 62.5253 0.978111C62.1634 0.407062 61.244 0.25326 60.8061 0.797742C60.3452 0.59596 59.7634 0.874244 59.5076 1.26661C59.3738 1.47177 59.0945 1.58648 58.7429 1.6851C58.479 1.75903 58.2092 1.815 57.9381 1.86396C57.8173 1.70003 57.5629 1.59012 57.3763 1.72757C57.2499 1.82096 57.1271 1.91683 57.006 2.0151C56.0725 2.14376 55.1438 2.14838 54.2537 1.78426C53.5001 1.47595 52.8082 2.31799 52.9325 3.0249C52.7143 3.13854 52.4775 3.21415 52.2619 3.33321C51.7916 3.59319 51.4054 4.00413 51.17 4.48695C51.1278 4.5734 51.0897 4.66119 51.0534 4.74942C50.8776 4.89256 50.7038 5.03952 50.5341 5.19456C50.2516 5.04974 49.9701 4.90491 49.6876 4.76008C49.4762 4.65168 49.12 4.72721 49.0783 5.00798C49.0099 5.47 48.8438 5.85295 48.6066 6.17371C47.8356 6.57887 47.0939 7.03379 46.3842 7.53936C45.5679 7.79525 44.7001 7.94452 43.9868 8.11245C43.7426 8.17021 43.6093 8.48918 43.747 8.70154C43.8927 8.92633 44.0383 9.15113 44.1831 9.37592C43.7772 9.7722 43.3961 10.1862 43.0364 10.6145C42.0354 11.8051 41.1977 13.1104 40.4481 14.4929C40.1514 14.6128 39.8547 14.7319 39.558 14.8518C39.272 14.9674 39.1432 15.2997 39.3751 15.544C39.4852 15.6604 39.5838 15.783 39.6682 15.9118C39.248 16.6076 38.7533 17.242 38.0613 17.6578C37.8508 17.784 37.6927 17.9821 37.6083 18.2069C37.5364 18.2549 37.4653 18.3064 37.3951 18.3588C37.1997 18.5063 37.0816 18.828 37.3108 19.019C37.4715 19.154 37.6225 19.314 37.7504 19.4908C37.778 19.5912 37.8064 19.6925 37.8348 19.7929C37.1917 20.3846 36.657 21.0723 36.2555 21.8436C36.1605 21.8285 36.0628 21.8382 35.9837 21.8969C35.266 22.4273 35.2447 23.2723 35.5334 24.0276C35.3593 25.1657 35.4712 26.3324 35.807 27.435C35.3655 27.8757 35.0999 28.5119 34.9916 29.125C34.8006 30.2019 34.7873 31.858 34.7375 32.9571C34.2561 33.4218 33.9132 34.0234 33.7222 34.6702C33.5615 34.7502 33.4007 34.8301 33.2399 34.9101C33.0969 34.9812 32.9921 35.1687 33.0005 35.3268C33.0419 36.0918 33.3572 36.696 33.7755 37.2433C33.9239 37.6654 34.1433 38.0546 34.4311 38.4277C34.63 38.6836 34.8246 38.9289 34.996 39.2052C35.0138 39.2327 35.0244 39.2585 35.0324 39.2763C34.9649 39.3491 34.9089 39.47 34.8601 39.5562C34.4497 40.2794 34.4435 41.127 35.0262 41.757C34.8068 41.9365 34.7997 42.299 34.9933 42.5211C36.2538 43.9614 37.3045 45.7127 39.0535 46.4777C39.0615 46.491 39.0686 46.5043 39.0748 46.5177C38.7204 47.3707 38.6724 47.814 38.962 48.6954C38.9638 48.7034 38.9665 48.7105 38.9691 48.7185C39.1237 49.1806 39.4079 49.9207 39.9204 50.0646C40.0821 50.1099 40.2411 50.1304 40.3983 50.1295C40.8051 50.5213 41.2111 50.9141 41.617 51.3068C41.6525 51.5014 41.6747 51.6977 41.6818 51.8959C41.6934 52.2273 42.0052 52.4956 42.3409 52.3979C42.459 52.3632 43.1128 51.7279 43.2327 51.7315C43.2931 51.7919 43.3517 51.8523 43.4104 51.9136C43.6262 52.1402 43.9255 52.4974 43.9504 52.7346C43.9984 53.1815 44.2915 53.6933 44.7649 53.784C44.9426 53.9643 45.2268 54.0185 45.4444 53.7831C45.4587 53.768 45.4729 53.7529 45.488 53.7395C45.5111 53.7369 45.5333 53.7342 45.5564 53.7315C45.6612 54.0443 45.766 54.3571 45.8717 54.6689C46.0787 55.2838 46.8692 55.6792 47.4306 55.3202C47.5212 55.3744 47.61 55.4322 47.6988 55.4899C47.8338 55.5761 47.9706 55.6641 48.111 55.7467C48.119 55.7698 48.127 55.7929 48.1341 55.8151C48.2247 56.0914 48.6013 56.2398 48.8331 56.0808C48.9051 56.1039 48.9788 56.1225 49.0534 56.1376C49.4451 56.2149 49.8395 56.1936 50.2179 56.063C50.4888 55.9706 50.7473 55.7938 51.0386 55.7698C51.0568 55.7683 51.0756 55.7695 51.094 55.769C51.3317 56.2561 51.8749 56.6758 52.303 56.8184C52.8636 57.0053 53.4374 56.9385 53.948 56.7097C54.0858 56.9852 54.2588 57.2461 54.4655 57.4873C54.5801 57.6206 54.787 57.5921 54.9052 57.4873C55.1295 57.2884 55.3525 57.0884 55.5751 56.8883C55.7362 56.8262 55.8988 56.7516 56.0685 56.6823C56.5991 56.4655 57.1809 56.3757 57.6716 56.0624C57.9046 55.9136 58.1237 55.7239 58.3042 55.5039C58.6442 55.3076 58.9566 55.063 59.238 54.7827C59.3784 54.7835 59.5249 54.7507 59.6671 54.6787C60.2613 54.3766 60.574 53.7618 60.6015 53.1327C61.0829 51.9998 61.3672 50.7914 61.4453 49.5546C61.4702 49.1486 61.4746 48.739 61.4435 48.3329C61.4222 48.0468 61.3503 47.8558 61.2419 47.5972C61.2055 47.5128 61.1726 47.4355 61.1469 47.3502C61.1531 47.0766 61.1566 46.8029 61.1602 46.5301C61.2339 46.3 61.3654 46.0859 61.5484 45.9055C61.8317 45.6265 61.9614 45.0472 61.7038 44.7024C61.5359 44.4794 61.3689 44.2564 61.2011 44.0334C61.2481 43.0765 61.4773 41.5535 60.9692 41.3936C60.9897 41.2514 61.0332 41.1111 61.058 40.9698C61.1771 40.291 61.106 39.6841 60.7454 39.0906C60.6699 38.9671 60.6059 38.8578 60.5535 38.7512C60.5207 38.5557 60.4878 38.3602 60.4549 38.1647C60.4043 37.8635 60.3546 37.5597 60.3119 37.254C60.2897 36.8648 60.2693 36.4757 60.2471 36.0856C60.2266 35.7266 60.2036 35.3677 60.1796 35.0078C60.1893 34.847 60.2036 34.6862 60.224 34.5254C60.3457 33.5667 60.7374 33.2121 61.416 32.5458C61.5226 32.5289 61.6283 32.5102 61.7322 32.4889C62.2163 32.3885 62.7226 32.233 63.2209 32.289C63.7619 32.3494 64.246 32.5831 64.7718 32.2845C64.9264 32.1957 65.2666 31.9505 65.2959 31.7559C65.2977 31.7434 65.3003 31.7328 65.3039 31.7248C65.3403 31.7194 65.3874 31.715 65.4167 31.7141C65.8342 31.6999 66.233 31.8643 66.654 31.819C67.1523 31.7656 67.5982 31.5444 67.8913 31.2165C68.2671 31.3089 68.6508 31.3507 69.0407 31.2992C69.3676 31.2565 69.6607 31.1499 69.9503 30.9917C70.1608 30.878 70.0942 30.8451 70.3234 30.9375C70.8448 31.149 71.3164 31.428 71.9035 31.2832C72.2082 31.2085 72.4711 31.0442 72.6923 30.8229C72.7447 30.7714 72.8335 30.6941 72.8931 30.6212C73.172 30.7625 73.8737 31.0815 73.9891 31.1099C74.316 31.1899 74.6624 31.1774 74.9804 31.0708C75.214 30.9926 75.5001 30.7794 75.7052 30.7359C75.9708 30.679 76.5606 31.0486 76.8777 31.1757C77.4338 31.3987 78.0227 31.4538 78.5858 31.2236C78.7795 31.1446 79.1561 30.8291 79.3009 30.8318C79.5363 31.1224 80.1936 32.7119 80.3907 33.2921C81.1893 35.6378 81.3962 42.9618 81.0276 44.8304C81.0134 44.8855 80.9983 44.9397 80.9832 44.9948C80.5302 46.6199 80.0585 48.2725 79.3009 49.7865C78.5858 51.2135 77.5972 52.4983 76.1787 53.2775C74.7077 54.0861 72.981 54.2984 71.3271 54.1891C70.2621 54.1198 69.2148 53.9057 68.1845 53.6374C67.6462 53.4979 67.1123 53.3424 66.5812 53.1807C66.3493 53.1105 66.114 53.0447 65.8866 52.963C65.4851 52.8181 65.2746 52.8066 64.8899 52.9923C64.54 53.1611 64.4503 53.6596 64.6324 53.9732C64.929 54.485 65.4726 54.5205 65.9976 54.6698C66.5323 54.8217 67.0688 54.9675 67.6089 55.0981C68.6437 55.3469 69.6954 55.5379 70.7559 55.6259C72.655 55.7849 74.6118 55.5397 76.3403 54.7107C76.5358 54.6165 76.7241 54.5161 76.9062 54.4077C76.8386 54.5019 76.7703 54.5961 76.701 54.6894C76.5091 54.9479 76.6512 55.3877 76.9204 55.529C77.0056 55.5734 77.0909 55.6161 77.1771 55.6578C77.1886 55.6854 77.201 55.7129 77.2153 55.7405C77.4613 56.2345 77.9765 56.5259 78.5014 56.6521C79.125 56.8014 79.8232 56.6956 80.4574 56.677C81.0454 56.6592 81.6334 56.6414 82.2205 56.6237C82.3591 56.6201 82.4977 56.6157 82.6362 56.6112C83.3344 56.5899 84.0317 56.5695 84.7289 56.5481C85.3507 56.5295 85.3214 56.5775 85.905 56.3287C86.1652 56.2167 86.3784 56.0586 86.5578 55.848C86.6698 55.7982 86.7781 55.7414 86.8821 55.6765C87.216 55.4686 87.5127 55.1896 87.7863 54.8822C88.2508 55.0288 88.9019 54.8928 88.9925 54.3091C89.1382 53.3752 90.3515 52.9763 90.9182 52.301C91.3757 51.7564 91.7026 51.0429 91.6857 50.3578C92.8386 49.7999 93.4657 48.3294 93.6123 47.0819C93.6807 46.5035 93.67 45.8842 93.7686 45.296C93.8122 45.2489 93.8512 45.1991 93.8841 45.1458C94.1737 44.6776 94.4259 44.1951 94.648 43.7011C94.95 43.4834 95.3133 43.3492 95.6935 43.327C96.6279 43.2728 96.8038 42.012 95.9129 41.7081C95.9084 41.7064 95.9049 41.7055 95.9004 41.7037C96.142 41.0995 96.1216 40.3842 95.8285 39.812C95.8409 39.7498 95.8525 39.6885 95.864 39.6263C96.3641 39.0888 96.651 38.3416 96.619 37.6139C96.8473 37.453 97.1031 37.3286 97.3829 37.2513C97.8155 37.1323 97.8181 36.6045 97.4984 36.3682C97.3696 36.2731 97.263 36.162 97.1742 36.0394C97.3953 35.3748 97.3083 34.6062 96.8562 34.0607C97.1431 33.6928 97.43 33.325 97.7169 32.9571C97.907 32.7137 98.0073 32.3005 97.7169 32.0695C97.5312 31.9211 97.3456 31.7736 97.1591 31.6261Z" fill="black"/>
<path fill-rule="evenodd" clipRule="evenodd" d="M73.4671 48.5955C72.87 48.3518 72.3372 47.9454 71.9477 47.4262C71.8123 47.2457 71.7772 47.0551 71.8056 46.8807C71.8375 46.6847 71.9535 46.5071 72.1116 46.3879C72.2702 46.2683 72.4686 46.2094 72.6604 46.2395C72.827 46.2656 72.9929 46.3568 73.1242 46.5462L73.1517 46.584C73.3832 46.8974 73.685 47.1545 74.0288 47.3202C74.3602 47.48 74.7308 47.5545 75.1144 47.5112C75.8449 47.4286 76.3483 47.0335 76.8835 46.4968C76.9498 46.4291 77.0162 46.3592 77.0829 46.2882C77.125 46.2238 77.1835 46.1825 77.2484 46.1608C77.3204 46.1367 77.4019 46.138 77.4766 46.1641C77.5486 46.1892 77.613 46.2369 77.6561 46.3003C77.6972 46.3605 77.7204 46.435 77.7129 46.5206C77.6639 47.0767 77.3732 47.573 76.9604 47.9628C76.5018 48.3956 75.894 48.695 75.3217 48.8001C74.6912 48.9157 74.0488 48.8329 73.4671 48.5955ZM75.6191 40.016C76.2899 40.4239 77.3119 41.3748 76.5903 42.3859C75.7409 43.2774 74.5181 42.2552 73.9154 41.793C73.3567 41.4347 72.7289 42.3561 73.2473 42.7745C77.6018 45.9994 79.369 40.1227 75.9584 39.5365C75.5829 39.4719 75.4434 39.8899 75.6191 40.016ZM67.8158 36.2646C67.8899 35.3445 69.2909 35.1355 69.4303 36.0461C69.555 36.8617 69.4081 37.611 69.0408 38.3454C68.6899 39.0469 67.8078 38.7196 67.7411 38.0808C67.6517 37.2244 67.7697 36.837 67.8158 36.2646ZM78.4804 35.8573C78.6757 35.6014 78.9577 35.4267 79.2956 35.5254C80.3513 35.834 80.0402 37.3332 79.6694 38.0629C79.4679 38.4592 78.8168 38.5597 78.5225 38.2108C78.0428 37.6418 77.8131 36.5054 78.4229 35.945C78.4394 35.916 78.4578 35.8868 78.4804 35.8573ZM69.026 32.2383L69.1927 32.2091C69.7086 32.1198 70.35 32.0341 70.715 32.4489C70.9085 32.6689 70.9751 33.0778 70.715 33.2884C70.2574 33.6589 69.7514 33.5153 69.203 33.5467C68.7511 33.5726 68.3167 33.6474 67.8814 33.7719C66.9263 34.045 66.1481 34.5434 65.3325 35.0907C65.2254 35.1625 65.1162 35.0256 65.1673 34.9255C65.6381 34.0029 66.5506 33.2451 67.4646 32.7832C67.9524 32.5366 68.4863 32.3321 69.026 32.2383ZM77.5181 31.825L77.6457 31.8511C79.0347 32.1415 80.8393 32.7217 81.497 34.0864C81.5221 34.2794 81.4956 34.3207 81.4741 34.3478L81.4669 34.3567C81.4491 34.3798 81.435 34.4116 81.3514 34.4379C81.3282 34.4324 81.3047 34.4265 81.281 34.4203C80.9795 34.3413 80.741 34.2324 80.5101 34.1194L80.2597 33.996C79.9692 33.8535 79.6761 33.7162 79.3655 33.6149C78.7027 33.3986 78.0209 33.2463 77.3286 33.1649C77.1785 33.1473 77.034 33.0966 76.92 33.0098C76.8118 32.9274 76.7292 32.8133 76.6915 32.6616C76.6426 32.4654 76.6567 32.3168 76.7619 32.1397C76.8411 32.0067 76.9544 31.9145 77.0845 31.8616C77.217 31.8076 77.368 31.7949 77.5181 31.825Z" fill="black"/>
</svg>
