<svg xmlns="http://www.w3.org/2000/svg" viewBox="0 0 167.32 239.94">
  <defs>
    <style>
      .cls-1 {
        fill: #fff;
      }

      .cls-1, .cls-2 {
        fill-rule: evenodd;
      }

      .cls-2 {
        fill: #1e293b;
      }
    </style>
  </defs>
  <title>Asset 1</title>
  <g id="Layer_2" data-name="Layer 2">
    <g id="Layer_1-2" data-name="Layer 1">
      <g id="Introduction">
        <g id="variations">
          <g id="images">
            <g id="a-person_bust" data-name="a-person/bust">
              <g id="body_Button-Shirt-1" data-name="body/Button-Shirt-1">
                <path id="_-Background" data-name="ðŸŽ¨-Background" class="cls-1" d="M11.34,236.17c27.6,4.2,55.7,4.41,83.53,2.88a194.26,194.26,0,0,1,33.07.09c6.5.48,35,2.66,37.34-3.17-1.46-31-4.43-62.32-13.54-92.16-3.75-10.59-7-19.39-14.28-28.15-2.3-2.4-7.27-7.42-10.12-9.06-2.47-1.41-3.5-.91-4.91-3.3C121,100.65,120,96.23,118,94.36s-5-1.22-8.79-.61c.69-9.28-3.6-11.65-9.5-13.41-10.37-4-20.62-2-23.23,10.66-4.84,0-7.56,2.08-10.5,4.09-1.2.82-.37,2.9-1.8,3.54-2.66,1-7.35.72-9.91,1.88-11.63,5.3-22,13-28.79,24.19C10.21,148.64-.26,199.06,1.55,227.44c-.79,1.24.31,3,.58,4.37a2.57,2.57,0,0,0,2.69,1.81C6.48,235.4,9.05,235.8,11.34,236.17Z"/>
                <path id="_-Ink" data-name="ðŸ–-Ink" class="cls-2" d="M125.58,105.9c-.17-.09,0-.33.15-.25,8.19,3.84,14.47,10.58,18.89,18.36,4.57,8.07,7.18,17.22,9.43,26.17l.08.32c2.4,9.58,4.43,19.25,6.27,28.94s3.35,19.7,4.55,29.62c.59,4.9,1.12,9.81,1.53,14.74q.32,3.69.57,7.38c.06,1,.13,2,.18,3l0,.74a7.05,7.05,0,0,1-.05,2,8,8,0,0,1-.71,1.61,1.48,1.48,0,0,1-2.53,0l-.17-.25a4.76,4.76,0,0,1-.8-1.84c-.12-.7-.12-1.43-.17-2.14-.1-1.3-.18-2.6-.27-3.9q-.28-4.11-.64-8.2c-.47-5.4-1-10.79-1.6-16.17q-1.65-14.34-4.12-28.58c-1.59-9.27-3.61-18.44-5.71-27.6l-.22-.95C146.6,132.87,140.92,114.45,125.58,105.9ZM38.4,168.53a.19.19,0,0,1,.36,0,41.75,41.75,0,0,1,.69,7.58c.08,2.51.08,5,0,7.54-.13,9.23-.39,18.44-.61,27.66-.1,4.62-.21,9.23-.29,13.84,0,1.74-.05,3.47-.07,5.2l0,2.28a27.59,27.59,0,0,1-.16,3,4.28,4.28,0,0,1-.62,1.87,3.78,3.78,0,0,1-1,.88l-.07.05a1,1,0,0,1-1.4,0l-.13-.1A3.35,3.35,0,0,1,34,237.19a5.93,5.93,0,0,1-.51-2.39c-.1-1.25,0-2.52,0-3.77,0-2.52.06-5,.1-7.55.16-9.23.48-18.46,1.07-27.68.27-4.34.64-8.69,1.14-13l.1-.81c.15-1.28.29-2.57.45-3.87a28.21,28.21,0,0,1-6.12-5.88c-.13-.16.08-.4.24-.24a22.68,22.68,0,0,0,6.09,4.48A36.39,36.39,0,0,1,38.4,168.53ZM77.28,86.25a.09.09,0,0,1,.11,0,3.5,3.5,0,0,1,.42,2.22v.07c0,1.08,0,2.16,0,3.24v3.44h0c0,.47,0,1,0,1.44v.19h0a1.12,1.12,0,0,1,.3,1.05,1.49,1.49,0,0,1-.66,1.18l.82,1.16h0l.82,1.16c1.69,2.4,3.4,4.78,5.18,7.11s3.75,4.67,5.78,6.87c1,1.07,2,2.13,3,3.17.42.42.85.83,1.28,1.24l.42.42a4,4,0,0,1,.73.81,3.94,3.94,0,0,1,.15.73c.32.68-.22,1.78-1.1,1.44l0,0c.16-.11,0-.11-.31,0a1.6,1.6,0,0,1-.66-.16l-.06,0a3.41,3.41,0,0,1-.77-.65l-.06-.06c-.54-.5-1-1-1.55-1.55q-1.61-1.64-3.12-3.34-3-3.42-5.72-7.09a66.28,66.28,0,0,1-5-7.83c-.56-1-1.07-2.09-1.56-3.16-1-.3-1.18-1.32-1.11-2.46a14.6,14.6,0,0,1-.86-2.51c0-.12.13-.23.22-.13.3.35.59.72.86,1.1.16-.81.37-1.54.47-2l.42-2.07h0a8.85,8.85,0,0,0-6.64,2.57,2.9,2.9,0,0,1-.77,1.18,7.1,7.1,0,0,0-1,1.58c-.56,1.24-.25,3.07-1.32,4a1.07,1.07,0,0,1-.36.2,38.89,38.89,0,0,1,.26,7.78v.22c0,2.83-.09,5.67-.2,8.5l-.11,2.8a82.06,82.06,0,0,0,.13,11.2c1.65-1.47,3.37-2.87,5.14-4.21,1.17-.88,2.35-1.72,3.56-2.54l1-.66a24.74,24.74,0,0,1,3.67-2.17,5.7,5.7,0,0,1,4.93.28c1.62.75,3.2,1.63,4.79,2.45l4.86,2.49c1.07.55,2.65,1,3.44,2.06,0-.23.11-.45.17-.67a1.54,1.54,0,0,1,.15-1.06c2.64-4.86,5.09-9.84,7.52-14.82,1.24-2.52,2.41-5.07,3.64-7.58l1.2-2.45.6-1.23c.3-.61.62-1.21.92-1.82.13-.26.3-.51.42-.77l.06-.13s.29-.92.07-.84h0c-.11.07-.21-.08-.13-.17.32-.39.76,0,.94.32.5,1-.42,2.57-.77,3.53l0,0c-1.09,3.09-2.32,6.12-3.59,9.14-2.43,5.8-5,11.5-7.64,17.21l0,.1h0c.56-.42,1.15-.81,1.66-1.19,1.28-1,2.59-1.85,3.91-2.75,2.41-1.64,4.89-3.18,7.41-4.66l.5-.3a6,6,0,0,1,4-1.1,14.37,14.37,0,0,1,3.93,1.55l.12.06,3.88,1.84c-.42-1.65-.87-3.29-1.33-4.93q-1.38-4.78-3-9.49c-1-2.93-2.11-5.83-3.27-8.71l-.35-.86c-.48-1.19-.95-2.48-2.3-2.84s-2.91.17-4.14-.6a.16.16,0,0,1,0-.29l.77-.19a9.65,9.65,0,0,1,4.46-.37,5.83,5.83,0,0,1,3.41,2.9,37.49,37.49,0,0,1,2,4.56l.1.24q1,2.59,2,5.22,1.9,5.23,3.48,10.6.76,2.58,1.45,5.18c.13.5.35,1.1.53,1.73a4.92,4.92,0,0,1,.58.69.81.81,0,0,1-.29,1.17,2.23,2.23,0,0,1-.34,1.19c-.9,1.37-3.27,1-3.18-.82a1.58,1.58,0,0,1,.29-.78v0h0l0-.07h0l-1.26-.63-4.07-2h0a15.37,15.37,0,0,0-3.79-1.71c-1.22-.2-2.5.71-3.55,1.26l-.07,0c-2.53,1.3-5.05,2.64-7.56,4-1.22.66-2.43,1.35-3.64,2a16,16,0,0,1-3.27,1.68,1.29,1.29,0,0,1-1.53,0,36,36,0,0,1,.26,4c.09,1.81.1,3.62.13,5.43v.68q.12,6,.14,12c0,14.25-.11,28.5-.14,42.75,0,7.16-.16,14.32-.35,21.47-.08,3-.24,6.06-.42,9.09l-.1,1.65a84.91,84.91,0,0,1-1,10.45.48.48,0,0,1-.92,0,87,87,0,0,1-.74-11.18l0-.74q-.21-6-.19-12c0-14.26.42-28.5.72-42.75.15-7.16.26-14.32.49-21.47.12-3.59.25-7.16.41-10.74.07-1.6.14-3.2.25-4.79l.05-.69.09-1.32c-1.44.53-2.76-.45-4.06-1.12l-4.48-2.3-1.5-.77h0l-3-1.53c-1.35-.69-2.39-1.37-3.83-.56a73.92,73.92,0,0,0-14.25,10.83c-.83.78-2.58.57-2.79-.73-.89-5.58-.35-11.23.11-16.82l.17-2.08c.2-2.48.42-5,.72-7.43.13-1.1.26-2.21.41-3.31l.11-.83a24,24,0,0,1,.69-3.86.85.85,0,0,1-.34-.2c-1.17-1.11-.61-3-.08-4.36a10,10,0,0,1,2.34-3.42,1.31,1.31,0,0,1,.84-.36c2.44-1.62,5.12-2.42,7.91-1.54.08-.37.15-.75.24-1.12l.08-.37C76.4,88.4,76.48,86.87,77.28,86.25Zm25,146.09a2.2,2.2,0,0,1,2.71,2.71,2.16,2.16,0,0,1-.56,1,2.22,2.22,0,0,1-.9.55l-.08,0-.12,0a2.2,2.2,0,0,1-1.14,0,2,2,0,0,1-.94-.55,2.07,2.07,0,0,1-.55-1,2,2,0,0,1,0-1.14l.05-.12h0a2.16,2.16,0,0,1,.56-1A2.33,2.33,0,0,1,102.29,232.34Zm45-75.5c.12-.14.32,0,.25.19-1.18,2.32-2.5,4.61-3.79,6.87.1.62.21,1.24.32,1.85.51,2.57,1.12,5.1,1.53,7.7,1.44,9.35,2.19,18.79,2.83,28.22s.73,18.94.83,28.42a2,2,0,0,1-1.47,1.93,3,3,0,0,1-1.07,0,2,2,0,0,1-1.47-1.93c-.25-5.3-.59-10.59-1-15.89-.7-9.38-1.13-18.78-1.69-28.17l-.2-3.28c-.21-3.56-.41-7.12-.47-10.68,0-2.36.08-4.72,0-7.07a26.63,26.63,0,0,1,.18-6.68c0-.08.15-.1.18,0a14.62,14.62,0,0,1,1.06,3.36C144.61,160,145.92,158.39,147.27,156.84ZM63.1,99.36c.18,0,.17.26,0,.28a33.47,33.47,0,0,0-7.34,2.19l-.2.08a52.77,52.77,0,0,0-7,3.1,53.36,53.36,0,0,0-12,8.91C22.2,127.86,15.68,148,10.9,166.86a242,242,0,0,0-5.76,31.93q-.91,8-1.28,16c-.13,2.74-.21,5.49-.25,8.23,0,1.41,0,2.81,0,4.22a8.51,8.51,0,0,1,0,2.08,5.49,5.49,0,0,1-1,1.57.88.88,0,0,1-1.5,0l-.15-.2a3.47,3.47,0,0,1-.9-1.85c-.07-.79,0-1.61,0-2.4,0-1.61,0-3.22,0-4.82q.09-4.62.36-9.23Q1,203,2.25,193.74a246.18,246.18,0,0,1,6.84-32.58c2.84-10.09,6.21-20.14,11-29.49,4.45-8.67,10.28-16.74,18-22.8a50.69,50.69,0,0,1,11.68-6.94,32.62,32.62,0,0,1,6.61-2A65.85,65.85,0,0,1,63.1,99.36Zm39.63,115.16a2.18,2.18,0,0,1,1.19.3l.46.36h0l.37.48a2.07,2.07,0,0,1,.26,1.42,1.62,1.62,0,0,1-.26.83l-.35.45h0a3,3,0,0,1-1,.6,1.71,1.71,0,0,1-.62.08h-.1l-.2,0-.14,0h-.13a1.91,1.91,0,0,1-1.4-.58,2,2,0,0,1-.58-1.4l0-.19a2,2,0,0,1,.2-.77,2.25,2.25,0,0,1,.57-.83A2.49,2.49,0,0,1,102.73,214.52ZM101.13,191a2.27,2.27,0,0,1,2.71-.35,3.48,3.48,0,0,1,.58.43,2.23,2.23,0,0,1,.67,1.61,2.32,2.32,0,0,1-.67,1.61l-.09.09h0a1.89,1.89,0,0,1-.91.49,2.41,2.41,0,0,1-1.48-.11,2.23,2.23,0,0,1-1-.87l0-.06,0-.09,0,0A2.31,2.31,0,0,1,101.13,191Zm.36-23.65a1.79,1.79,0,0,1,.92,0,1.21,1.21,0,0,1,.59.16,1.19,1.19,0,0,1,.51.3,1.06,1.06,0,0,1,.42.42,1.83,1.83,0,0,1,.42.79l.08.62-.08.61-.24.56h0l-.19.25a1.21,1.21,0,0,1-.42.42,1.4,1.4,0,0,1-.39.26,2.16,2.16,0,0,1-2.77-.23,2.13,2.13,0,0,1-.55-.95l-.05-.29a2.62,2.62,0,0,1,.05-1.1,3.24,3.24,0,0,1,.26-.66A2.49,2.49,0,0,1,101.49,167.35Zm26.83-17h3.33c1.12,0,2.07-.1,2.95.67a1.25,1.25,0,0,1-.25,1.93c-.92.64-2.06.32-3.11.25s-2.22-.14-3.33-.19c-2.15-.09-4.3-.16-6.45-.17s-4.3,0-6.45.05a54.32,54.32,0,0,1-6.63,0,.27.27,0,0,1-.07-.52,32.4,32.4,0,0,1,6.5-1.21c2.21-.28,4.42-.48,6.65-.61S126,150.36,128.32,150.34Zm-26.84-7h.07a2.3,2.3,0,0,1,1.1.27l.07,0,.47.37a2.31,2.31,0,0,1,.6,1l.08.62h0a1.71,1.71,0,0,1-.2.89,1.67,1.67,0,0,1-.48.75,1.77,1.77,0,0,1-.74.47,1.7,1.7,0,0,1-.82.21h-.08a2.27,2.27,0,0,1-1.16-.31l-.47-.36h0a2.29,2.29,0,0,1-.6-1l-.08-.61h0a1.75,1.75,0,0,1,.2-.9,1.7,1.7,0,0,1,.48-.74,1.64,1.64,0,0,1,.74-.48,1.69,1.69,0,0,1,.82-.2Zm6.87-54.46a.71.71,0,0,1,1.28.5,22.34,22.34,0,0,0,.49,4.82,9.66,9.66,0,0,0,.73,2.14l.15.28a2.49,2.49,0,0,1,.19,2.67,1.54,1.54,0,0,1-1.35.77c-2.45-.1-2.79-3.52-2.94-5.43A9.18,9.18,0,0,1,108.35,88.93Z"/>
              </g>
              <g id="head_No-Hair-3" data-name="head/No-Hair-3">
                <path id="_-Background-2" data-name="ðŸŽ¨-Background" class="cls-1" d="M126.73,28.76C119.3,9.2,105.9-5.12,83.31,3.87a2,2,0,0,0-2.3,0A58.61,58.61,0,0,0,56,37.92a19.31,19.31,0,0,0-6.63,2.49C45,43.18,42,47.57,39.21,51.86a2.55,2.55,0,0,0,1.51,3.71,14.31,14.31,0,0,0,2,.22,8,8,0,0,1-.65,1.69,2.38,2.38,0,0,0,2.64,3.42,4.23,4.23,0,0,0,.62.25c0,1.08.57,2.52,1.67,2.74,1.78.38,4.14-1,3.72-3a5.67,5.67,0,0,0,1.59,0c.06,1,0,2.11.19,3.07a7.18,7.18,0,0,0,9.24,6.15c.27,1.4.57,3.37,1.95,4.13,1.62,4.53,4.4,9.7,9,11.76a2.34,2.34,0,0,0,1,3,41.28,41.28,0,0,0,27.82,4.6,27.13,27.13,0,0,0,11-2.89,51.1,51.1,0,0,0,7.25-4.75,36,36,0,0,0,6.63-5.68A18.39,18.39,0,0,0,130,72a72.76,72.76,0,0,0-3.22-40.84C120.49,14.74,133,45.17,126.73,28.76Z"/>
                <path id="_-Ink-2" data-name="ðŸ–-Ink" class="cls-2" d="M90.8.06a30.57,30.57,0,0,1,11.3,1.52,39.7,39.7,0,0,1,15.44,9.26,39.16,39.16,0,0,1,9.83,15.57c2.44,7.12,2.8,14.71,3.49,22.14.35,3.75.92,7.44,1.51,11.16l.09.59a28.91,28.91,0,0,1,.11,10.89c-1.33,6-5.32,11.11-10.06,14.88-9.73,7.74-24.88,12.45-36.22,5.33-1.75-1.1-.09-3.92,1.62-2.77a17.64,17.64,0,0,0,3.85,2c5.72,2,12,1.31,17.65-.59a38,38,0,0,0,15-9.26,21,21,0,0,0,6.36-16.16c-.2-3.71-1-7.35-1.52-11-.41-3.26-.66-6.54-1-9.81l-.1-1.18c-.61-6.67-1.49-13.52-4.52-19.57A38.79,38.79,0,0,0,112.92,9.92,36,36,0,0,0,96.71,2.74c-6.93-1.12-13.56.92-19.35,4.72a45.93,45.93,0,0,0-12.91,13,53.44,53.44,0,0,0-4.24,7.84c-1.14,2.56-1.92,5.24-2.83,7.88a17.75,17.75,0,0,1,2.29.09,14.4,14.4,0,0,1,10,5.76c2.89,4,2.11,8.86,3.23,13.38a.8.8,0,0,1-.36.89,5,5,0,0,1-5.65-.1,4.31,4.31,0,0,1-1.53-4.74.21.21,0,0,1,.41.06c.11,2.9,2.8,5.14,5.44,3.76-1.13-3.9-.54-8.26-2.85-11.78-4.1-6.24-12.58-6.5-18.53-3a21.73,21.73,0,0,0-7.47,7.74l-.53.9a10.63,10.63,0,0,0-1.61,3.9c-.08.77.2,1.49,1.08,1.1A4.56,4.56,0,0,0,43,52.5a1,1,0,0,1,1.78,1l0,0a11.37,11.37,0,0,0-1.5,5l0,.48c0,.36,0,.87,0,.88s.72-.7.82-.8a3.32,3.32,0,0,1,1.72-1c.92-.17,1.85,1,1,1.71l0,0A1.61,1.61,0,0,0,47,62.26c1.11.82,2.48-.52,2.64-1.62v0a.94.94,0,0,1,1.88,0c.2,2.67-3,4.91-5.39,3.56a3.64,3.64,0,0,1-1.76-2.55,2.55,2.55,0,0,1-1,.3,2,2,0,0,1-2.12-1.76,9.33,9.33,0,0,1,.24-3.88A2.48,2.48,0,0,1,39.59,56c-2-1.14-1.41-3.66-.66-5.37,3.17-7.28,9.74-13.89,17.88-14.41a20.54,20.54,0,0,1,.51-3.79C60.1,19.84,69.12,8.19,80.87,2.74A28.41,28.41,0,0,1,90.8.06ZM60,50.33l.12,0c1.27-.27,4.6-.59,4.2,1.54a.1.1,0,0,1-.19,0c-.39-1.34-3.07-.27-3.85.06a11.18,11.18,0,0,0-3,1.86,9.85,9.85,0,0,0-3.42,6.6,9.18,9.18,0,0,0,2.37,7.12A5,5,0,0,0,59.54,69c1.15,0,2.43-.86,3.5-.33a.73.73,0,0,1,.36.63,1.58,1.58,0,0,1-.54,1.06c1.79,3.25,3.25,6.7,5.53,9.66a23.37,23.37,0,0,0,3.91,4,16.62,16.62,0,0,0,2.24,1.47,6.42,6.42,0,0,1,2.36,1.68A1.54,1.54,0,0,1,76,89.5c-2.16.29-4.27-1.46-5.86-2.77A21.29,21.29,0,0,1,66,82.09,27.9,27.9,0,0,1,61.77,71a7.19,7.19,0,0,1-2.06.29,6.9,6.9,0,0,1-4.27-1.5c-4.49-3.47-5-10.6-1.82-15.09A10.93,10.93,0,0,1,60,50.33Zm0,8.26a7.1,7.1,0,0,1,3.06.43l.4.14a6.26,6.26,0,0,1,2.37,1.32,1.38,1.38,0,0,1-1.33,2.29c-1.48-.41-2.68-1.66-4.16-2.18a4.43,4.43,0,0,0-4,.4.19.19,0,0,1-.26-.25A5,5,0,0,1,60,58.59Z"/>
              </g>
              <g id="face_Smiling" data-name="face/Smiling">
                <path id="_-Ink-3" data-name="ðŸ–-Ink" class="cls-2" d="M107,78.4a8.63,8.63,0,0,1-3.62-2.79,1.7,1.7,0,0,1-.34-1.29,1.94,1.94,0,0,1,.73-1.18,1.78,1.78,0,0,1,1.31-.35,1.63,1.63,0,0,1,1.1.73l.07.09a5.57,5.57,0,0,0,2.08,1.75,4.73,4.73,0,0,0,2.58.46,6.93,6.93,0,0,0,4.21-2.42l.48-.49a.74.74,0,0,1,.39-.31.91.91,0,0,1,.54,0,.88.88,0,0,1,.43.33.75.75,0,0,1,.13.52,5.37,5.37,0,0,1-1.79,3.43A7.68,7.68,0,0,1,107,78.4ZM112.14,58c1.6,1,4,3.23,2.31,5.63-2,2.13-4.92-.31-6.36-1.41-1.33-.85-2.82,1.34-1.59,2.34,10.36,7.67,14.56-6.31,6.45-7.7C112.06,56.69,111.73,57.69,112.14,58ZM93.58,49.06c.18-2.18,3.51-2.68,3.84-.52A8.86,8.86,0,0,1,96.5,54a1.63,1.63,0,0,1-3.09-.63A17.36,17.36,0,0,1,93.58,49.06Zm25.37-1a1.76,1.76,0,0,1,1.94-.79c2.51.73,1.77,4.3.89,6a1.75,1.75,0,0,1-2.73.35c-1.14-1.35-1.69-4-.24-5.39A2.43,2.43,0,0,1,119,48.1ZM96.46,39.49l.4-.07c1.23-.22,2.75-.42,3.62.57a1.42,1.42,0,0,1,0,2c-1.09.89-2.29.54-3.6.62a14.63,14.63,0,0,0-3.14.53,21.44,21.44,0,0,0-6.06,3.14c-.26.17-.52-.15-.4-.39a12.49,12.49,0,0,1,5.47-5.1A13.62,13.62,0,0,1,96.46,39.49Zm20.2-1,.3.07c3.31.69,7.6,2.07,9.16,5.31.06.46,0,.56-.05.62l0,0a.41.41,0,0,1-.27.19l-.17,0a9.43,9.43,0,0,1-1.83-.72l-.6-.29a16,16,0,0,0-2.13-.91,24.9,24.9,0,0,0-4.84-1.07,1.92,1.92,0,0,1-1-.37,1.45,1.45,0,0,1-.55-.83,1.51,1.51,0,0,1,.17-1.24,1.64,1.64,0,0,1,.77-.66A1.79,1.79,0,0,1,116.66,38.5Z"/>
              </g>
              <g id="facial-hair_Moustache-9" data-name="facial-hair/Moustache-9">
                <path id="_-Background-3" data-name="ðŸŽ¨-Background" class="cls-1" d="M120.29,66.54c-3-.5-6,.24-8.9,1-4.54-3-10.42,0-13.67,3.76-1.11.91-3.45,2.13-2.22,3.88-.47,1.24-.59,1.82.38.37,5.46.63,11.32-.56,16.73-1.68,1.84.62,3.47,2.07,5.5,1.57,1.91.41,4,.79,5.71-.44,1.32,0,4.24,2.31,4.2-.44C127.61,72,122.39,67.56,120.29,66.54Z"/>
                <path id="_-Ink-4" data-name="ðŸ–-Ink" class="cls-2" d="M122.51,75a13.32,13.32,0,0,1-9.17-2,.77.77,0,0,0-.79-.08.7.7,0,0,0-.72.4c-.67,1.3-2.92,1-4.15,1-4,.07-8.2-.15-12.08,1.07,3.71-7.26,8.84-10.39,16.78-7.54-.72.58,2.86-.78,3.18-.8,5.49-1.38,10,3.23,12.24,7.8a15.72,15.72,0,0,0-5.29.15m7.67,1.23c-2.42-5.46-7.19-11.46-13.86-10.52-1.37.21-2.8,1.14-4.18,1-4-1.47-7.28-2.22-11.27.16-1.7.13-11.23,11.94-6.7,11,5.56-3.19,15.23-.18,18.68-3,6.78,4.45,12.3-.38,16.12,2.4a.78.78,0,0,0,1.21-.94"/>
              </g>
              <g id="accessories_Glasses-3" data-name="accessories/Glasses-3">
                <path id="_-Ink-5" data-name="ðŸ–-Ink" class="cls-2" d="M130,59.88c-1.42,1.91-4.06,2.52-6.49,2.31-5.25-.51-6.9-6.47-7.07-11.1,3.51,1-.3-6,11.72-6.79,4.24-.35,3.08,2.21,4.95,4.08,0,3.93-.69,8.19-3.11,11.5m-25-4.51c-3.1,14.51-20.06,11.06-21.84-2,1.65-1.17,1.21-4,3.26-5.07,3.24-2.07,7.29-2,11-1.94,4.71.33,6.05,2.27,8.46,4.4a28.88,28.88,0,0,1-.84,4.63M136.68,41.9l-.53-.09a1.79,1.79,0,0,0-.48-.17,7.92,7.92,0,0,0-1.26-.22c-6-1.35-20,.57-20.55,5.72-1.92.64-3.58.07-5.8.12-1.7-7.08-31-6.08-32.38-1.81h0a22.13,22.13,0,0,0-4.9-.39,42.94,42.94,0,0,0-9.85.92c-6.06,1-14.32,2.1-10.11,9.66h0a1.2,1.2,0,0,0,2-.87c-1.42-3.58,1.78-4,4.24-5a41.31,41.31,0,0,1,18.7-1.83,4.59,4.59,0,0,0,2,1.31c4.24.7,2,3.85,4.68,4.3-.49,11,12.81,16.94,20.51,9.74,3.08-3,3.81-7.47,4.53-11.49a1.06,1.06,0,0,0,.75-.56c.91-.91,1.48-1.74,3.27-2a5.85,5.85,0,0,1,3.36.4l.16.29a1,1,0,0,0,.32.34c-1.77,10.91,6.7,17.81,15.24,12.15,3.72-3.49,4.5-8.84,4.66-13.62a1.45,1.45,0,0,0,.65-1.63,2.07,2.07,0,0,1,1.22-2.35,1.61,1.61,0,0,0-.38-2.9"/>
              </g>
            </g>
          </g>
        </g>
      </g>
    </g>
  </g>
</svg>
