<svg xmlns="http://www.w3.org/2000/svg" viewBox="0 0 167.23 237.06">
  <defs>
    <style>
      .cls-1 {
        fill: #fff;
      }

      .cls-1, .cls-2 {
        fill-rule: evenodd;
      }

      .cls-2 {
        fill: #1e293b;
      }
    </style>
  </defs>
  <title>Asset 1</title>
  <g id="Layer_2" data-name="Layer 2">
    <g id="Layer_1-2" data-name="Layer 1">
      <g id="Introduction">
        <g id="variations">
          <g id="images">
            <g id="a-person_bust" data-name="a-person/bust">
              <g id="body_Blazer-Black-Tee" data-name="body/Blazer-Black-Tee">
                <path id="_-Background" data-name="ðŸŽ¨-Background" class="cls-1" d="M147.37,134.3c-2.93-13.9-13.33-24.69-27.32-30.06-2.69-1.52-5.29-8-8.91-9.24-.58-.19.34,1.33,0,1.42a3.83,3.83,0,0,1-3.85-.81c-2.36-2.1-3.1-8.22-4.53-11-7.56-14.6-26.44-8.89-29,7.25A60.36,60.36,0,0,1,67.61,95c-2,1-3.72,3.26-5.75,4.09-1.82.74-4.82.22-6.65.86-8.42,3-15.56,6.69-21.15,14.24-1.18,1.6-2.51,3.56-3.58,5.17-5.53,6.37-9.37,13.5-12.91,21.16C7.68,163,5,187.85,2.57,212.06c.05,4.24-2.76,16,1.4,18a.44.44,0,0,0,.3.77,171.73,171.73,0,0,1,31.44,2.67c5,.89,10,2.1,15.08,2.3,10.59-.07,21.14-1.84,31.71-.17,12.71,0,28.16-.37,42.3-.91,13.21-.51,26.5.64,39.55-1.61a1.91,1.91,0,0,0,1.32-2.33,146.38,146.38,0,0,1-3.14-17,26.34,26.34,0,0,0-1.49-10.9Q155.73,168.3,147.37,134.3Z"/>
                <path id="_-Ink" data-name="ðŸ–-Ink" class="cls-2" d="M143.11,164.58a23.27,23.27,0,0,1-1.19,4c-.5,1.24-1.26,2.34-1.78,3.57a.85.85,0,0,1-.32.38l0,.34h0l0,.33c.26,2.25.55,4.49.81,6.73l.12,1.13c.49,4.68,1.28,9.35,1.89,14s1.2,9.16,1.85,13.73c.67,4.72,1.35,9.43,2.15,14.12q.5,3,1.05,5.95l.28,1.51a3.34,3.34,0,0,1,.74,6.25,3.67,3.67,0,0,1-4.17-.55c-1.15-1.1-1.2-3.1-1.47-4.6l-.26-1.4a297.09,297.09,0,0,1-4.37-31.72c-.2-2.74-.37-5.49-.48-8.24-.11-2.59-.06-5.17-.1-7.76v-.7c-.06-2.76,0-5.52.06-8.27,0-.34,0-.68,0-1a.93.93,0,0,1-.2-.38l0-.18a1.37,1.37,0,0,1,.35-1.28c.15-1.88.34-3.76.4-5.64,0-.15.22-.15.24,0,.12,1.6.37,3.2.62,4.8a13,13,0,0,0,3.49-5.19A.11.11,0,0,1,143.11,164.58ZM105.17,89.89a9.27,9.27,0,0,0,1.49,3.33,6.67,6.67,0,0,0,1.18,1.31,12.94,12.94,0,0,0,1.26.82,1.91,1.91,0,0,1,1.67.58l-.07-.65a.19.19,0,0,1,.37,0c1.85,9.32,3.54,18.65,5,28.05l.64,4.14.6,3.9c1,6.49,2,13,2.69,19.51,1,8.72,1.79,17.47,2.38,26.23s1,17.64,1.23,26.48c.07,2.23.14,4.45.2,6.68l.45-2.66c.45-2.67.9-5.33,1.27-8,1.36-9.58,2.45-19.22,3-28.88.49-8.84.32-17.85-1.93-26.46a51.14,51.14,0,0,0-2.09-6.38c-.81-2-1.92-3.89-2.79-5.88a11,11,0,0,1-.8-7c.46-2.17,1.26-4.21,1.4-6.45a22.46,22.46,0,0,0-3-11.8c-.5-1-1-1.91-1.58-2.84a91.41,91.41,0,0,0-5.53-8.17c-.1-.14.12-.3.23-.18a76.11,76.11,0,0,1,5.35,5.43c.78.94,1.55,1.9,2.27,2.88,7.93,1.32,14.74,6.26,19.39,12.79,5.29,7.4,8,16.31,9.94,25.08,2.2,9.75,4.05,19.59,6,29.38q3.06,15.21,6.14,30.42l3.06,15.1q.78,3.82,1.63,7.63c.29,1.3.6,2.6.87,3.91a3.46,3.46,0,0,1-1,3.49,1.19,1.19,0,0,1-1.41.19l-.14-.07-.14-.07a2.8,2.8,0,0,1-1.36-1.18,6.82,6.82,0,0,1-.58-2.19c-.24-1.38-.49-2.77-.73-4.16q-.56-3.12-1.17-6.23l-2-10.36c-.54-2.76-1.09-5.53-1.63-8.29q-2.92-14.81-5.86-29.62c-1.87-9.47-3.53-19-5.66-28.44l-.13-.53-.12-.53c-1.91-8.13-4.57-16-9.41-22.87-3.72-5.3-8.89-10-15-12.42q.64.93,1.23,1.89c2.47,4,4.27,8.82,3.85,13.62-.21,2.35-1.1,4.66-1,7,.07,2.1,1.37,4,2.27,5.77a55.47,55.47,0,0,1,4.47,13.07c1.9,9.06,1.9,18.4,1.24,27.6-.71,10-2.07,20-3.61,29.93-.8,5.08-1.85,10.12-2.66,15.19-.4,2.51-.94,5-1.42,7.49l-.22,1.19c-.13.66-.26,1.32-.41,2l-.1.39v.07a2.09,2.09,0,0,1-.34,1.19A14.52,14.52,0,0,1,123,234a1.5,1.5,0,0,1-1,.78,2.56,2.56,0,0,1-2.32,1.57l-13.83-.05c-8,0-16.08-.09-24.11-.13-2,0-4.06-.05-6.08-.1s-3.72-.28-5.6-.52a3.18,3.18,0,0,1-3-3.89c.07-.47.15-.93.22-1.4A1.24,1.24,0,0,1,66,230l-.32-.32a5,5,0,0,1-1.12-1.45c-.29-.6-.52-1.23-.78-1.84-.55-1.32-1.09-2.65-1.61-4-1-2.65-2.09-5.32-3.06-8q-2.9-8-5.11-16.18a209.65,209.65,0,0,1-5.76-29.7L48,166.1l-.09-.71a73,73,0,0,1-.66-11.7,21.78,21.78,0,0,1,1.4-7.14A32.43,32.43,0,0,1,52,140.8l.14-.21.14-.22a10.65,10.65,0,0,0,2-5.54A17.45,17.45,0,0,0,53,128.75l-.17-.48L52.7,128c-1.44-4-3.09-8-2.55-12.44.8-6.49,4.73-11.71,9.68-15.74a42.71,42.71,0,0,0-12.59,4.77,50.44,50.44,0,0,0-12.14,9.82c-6.66,7.26-11.41,16-15.3,25a167.74,167.74,0,0,0-9.37,29.25,253.7,253.7,0,0,0-4.86,30.5c-.52,5.1-.93,10.21-1.27,15.33-.18,2.62-.31,5.25-.51,7.86a46.52,46.52,0,0,1-.93,7.82c-.3,1.18-2.31,1.3-2.52,0a43.29,43.29,0,0,1-.22-8.89l0-.27q.2-4.41.5-8.82c.42-6,1-12,1.69-18,2.53-21,7.21-41.88,16.37-61.05,4.31-9,9.85-17.8,17.55-24.31a45,45,0,0,1,12.26-7.37A32.27,32.27,0,0,1,60.78,99a47.62,47.62,0,0,1,6.68-4.26.14.14,0,0,1,.16.22l-.17.17a1.17,1.17,0,0,1,.76.39,15.41,15.41,0,0,1,2.18,3.11c1,1.2,1.87,2.44,2.83,3.63q2.31,2.85,4.7,5.64c2.67,3.12,5.43,6.19,8.31,9.13l.48.49a34.55,34.55,0,0,0,4.77,4.52l.09.06c.74.49,1.27.57,1.91-.15A24,24,0,0,0,95,119.82l.11-.17a123.55,123.55,0,0,0,7-11.37c1-1.78,1.88-3.58,2.75-5.41l.26-.55c.48-1,1-2,1.38-3l.27-.72A7.81,7.81,0,0,1,104,94.33a6.54,6.54,0,0,1,.5-4.52A.35.35,0,0,1,105.17,89.89ZM39.51,152.33c-.19,5.84-.3,11.69-.57,17.53l-.1,2a1.79,1.79,0,0,1,.48,1.78,1,1,0,0,1-.6.65l-.08,1.86c-.41,8.33-.89,16.65-1.76,25-1.1,10.4-2.36,20.79-3.62,31.18a2.46,2.46,0,1,1-4.84-.65c.83-5.73,1.62-11.47,2.32-17.22l.8-6.55c1-8.18,2-16.37,3.2-24.53q.73-5.11,1.52-10.23l-.18-.23c-.74-1-1.5-1.89-2.25-2.83-1.44-1.8-2.86-3.6-4.18-5.49-.06-.1.07-.24.16-.17,1.85,1.37,3.61,2.83,5.37,4.32L36.72,170c.89-5.89,1.77-11.79,2.55-17.69C39.29,152.18,39.51,152.17,39.51,152.33ZM66.13,96.42c-1.12,1-2.25,2.08-3.38,3.12l-.41.39-.41.38a40.61,40.61,0,0,0-5.43,6.06c-2.89,4.1-4.61,9.11-3.41,14.12,1,4.16,3.28,7.92,3.9,12.18a12.05,12.05,0,0,1-.65,6.29,36.11,36.11,0,0,1-3.3,5.67c-2.56,4-2.91,8.45-2.65,13.11.26,4.88.82,9.75,1.51,14.58a205.72,205.72,0,0,0,6.3,29c1.4,4.75,3,9.4,4.69,14.07.82,2.32,1.77,4.59,2.75,6.85q.78,1.77,1.59,3.54c-.2-1.66-.2-3.37-.3-5-.14-2.37-.31-4.73-.48-7.1q-.49-7.22-.89-14.44C64.63,182,63.94,164.83,64,147.64q0-12.9.57-25.78c.17-4,.51-8.09.81-12.12l.07-.87c.26-3.62.58-7.26,1.14-10.85a6.87,6.87,0,0,1-.41-1.12l0-.15h0A1,1,0,0,1,66.13,96.42Zm9.63-14.77a.1.1,0,0,1,.19,0,12.53,12.53,0,0,1-.14,6.57,19.11,19.11,0,0,1-1.2,3.35l-.18.37a5.7,5.7,0,0,1-1.75,2.44,1.28,1.28,0,0,1-1.32,0l-.17-.14-.09-.07a1.25,1.25,0,0,1-.34-1.27,15.25,15.25,0,0,1,1.87-2.69A16.78,16.78,0,0,0,74,87.65,34.57,34.57,0,0,0,75.76,81.65Z"/>
              </g>
              <g id="head_hat-beanie" data-name="head/hat-beanie">
                <path id="Path" class="cls-1" d="M91.23,1.63c9.45,0,20.8,4.59,21.77,4.68h0c.51,0,2.5,1.51,6,4.53l-3.74,7.32.3.29c1.45,1.39,2.69,2.66,3.67,3.66,8,8.16,9.42,40.22,7.54,51.4s-5.37,22.12-21.6,22.12-34.27-9.76-37-12.8a7.94,7.94,0,0,0-6.25-2.91l-.28-.36-.34,0a20.87,20.87,0,0,1-6.88-1.87c-2.7-1.53-5.67-9.58-5.67-11.35s-4.44-14.52-4.53-15.87v0c0-1.13-5.8-6.32-5.8-8s-1.17-1.55,0-7.36l.34-1.71c1.24-6.18,3.68-16.43,13-20.88C61.84,7.57,81.67,1.63,91.23,1.63Z"/>
                <path id="_-Ink-2" data-name="ðŸ–-Ink" class="cls-2" d="M50.07,12.23c5.08-5.4,34-13.76,48.58-12l.44.06a25.05,25.05,0,0,1,3.45.68A29.52,29.52,0,0,1,113,5.3c2.53,1.77,10.51,4.66,8.16,9.3a6.87,6.87,0,0,1,.61,5.32,6.8,6.8,0,0,1-.47,1.62,47.72,47.72,0,0,1,4.53,8.81,93.77,93.77,0,0,1,3.57,22.79c.64,14.43-.95,31.67-13.51,41-7.59,5.91-19.47,6.11-28-1.22-.49-.58-2.76-2.12-2-2.39.22.24.46.47.69.7a.22.22,0,0,1,0-.08l-.22-.2c-.42-.39-1-1-.34-.84l.08.09.31.2,0,0v0c-.36-.38-.57-.77,0-.52l.07,0c.24.25.48.48.72.72a.15.15,0,0,1,0-.09L87,90.35c-.22-.22-.19-.22-.08-.39-.47-.67.41-.27.47,0,.56-.14,1,.9,1.4,1,15.63,12,38.32,1.36,38-32.15v-.65c-.11-10.72-1-21.73-5.44-31.43A28.27,28.27,0,0,0,119.85,24c-.37-.66-.76-1.3-1.18-1.93a17.2,17.2,0,0,1-3.48-.64c-.4-.1-.79-.21-1.17-.34-5.68.31-11.24.65-16.93,1l-1.78.11c-4.82.31-9.81.81-13.7,3.79-3.82,2.72-3.84,8.08-7.11,11.06-4.66,3.17-4.7,6-5.6,10.69.07,3.51,2.51,8.62-2,10.1.76,1.08-.29.56-.38.18h0c.67,1.25-.31.46-.4.06A.31.31,0,0,1,66,58c.68,1.1-.42.33-.35.13-1.31-2-4-2.32-5.91-1.79a.1.1,0,0,1-.16,0c-8.07,1.75-6,18.48,2.29,16.86.35-.07.34.1.41.12-.19-.51.35-.3.35-.2h.06c-.18-1,.86.46.78.52l.1,0,0-.1c-.17-.46-.16-.27-.16-.53s-.14-.18-.11-.39c.46-.36.6.71.75.79-.26-.36-.06-.66.19-.46a34.46,34.46,0,0,0,7.38,10.51c.34.27.69.53,1,.78,1.33,1.16,3.36,1.9,4.6,2.92a.14.14,0,0,1,0,.06l0,0h0l0,0,.43.21a2.38,2.38,0,0,1,.35.36,2.46,2.46,0,0,1,.28.41c0,.17,0,.25-.22.17l-.22-.08s0,0,0,0,.19.41,0,.35h0l-.31-.12c.12.15.23.31.33.45a.81.81,0,0,1,.19.38c0,.08-.05.11-.13.1l-.36-.12,0,.06c.09.17.21.45,0,.36L77,89.6s0,0-.1,0a12,12,0,0,1-1.63-.74l-1.38-1A9.72,9.72,0,0,1,72.67,87a27.29,27.29,0,0,1-6.87-6.36c-3.1,2.69-9.31.12-13.15-2-3.39-1.89-4.72-5.36-5.07-9.11-.72-5-4.84-6.78-4.55-17.86h0a3.25,3.25,0,0,1-.43-.18,2.42,2.42,0,0,1-.4-.25L42,51.07h0l-.21-.14,0,0c-.09.11,0-.06,0-.09l-.27-.37-1.9-2.62,0,0s0,0,0,0a16.93,16.93,0,0,1-3-6.56,11.68,11.68,0,0,1,.11-5.17C38.25,30.57,43.36,17.73,50.07,12.23ZM86.73,90.69l-.08-.07.07.09a.92.92,0,0,0,.14.14v0ZM98.59,3.09c-9.91-.85-19.66,1.33-29.12,4l-.65.19c-5.38,1.53-11.06,2.91-15.61,6.2-6.35,4.86-9.62,12.6-12.48,19.75a13.17,13.17,0,0,0,2.54,15,60.93,60.93,0,0,1,2.1-10.81c.22-.55.05-.73.52-.81.71,9.56-2.78,16.62,4.13,28,3,5.35-.47,9.26,8,12.07l.23.09a10,10,0,0,0,5.41.82l-.15-.25c-.16-.26-.21-.39,0-.5l0,0c-.19-.35-.37-.7-.54-1.06l-.21.06c.05.08.06.17-.08.2a3.64,3.64,0,0,1-1.43.19h-.1a5,5,0,0,1-1.22-.22l-.3-.06a7.13,7.13,0,0,1-2.76-1.35c-7.82-4.45-7-19.59,2.63-21,.2-9.53,4.74-25.62,12.26-34.71,6.8-8.35,25.36-12,38.28-10.7l.57.19c2,.18,3.89,1.07,5.88,1.48a18,18,0,0,0-4.73-2.4A34.12,34.12,0,0,0,100.92,3.4,10.79,10.79,0,0,0,98.59,3.09Zm-39.53,58c.52-.28.46,0,.58-.09,3.73-.3,7.76,3,9.84,5.69-.16.17-.61-.34-.68-.42l0,0,.06.08c.84,1.21-.83-.22-1-.51l-.09,0a2.36,2.36,0,0,1,.61.71l.11.09c1,.87.93,1.52-.22.29a.17.17,0,0,1,0,.15l0,0c.56.39,1,1.5-.15.36.12.83-1.18-.77-1.22-.76a17.4,17.4,0,0,0-8.36-3.7h-.1c-.51-.07-.76-.22-.58-.56-.63-.15-.48-.47-.18-.46-.45-.29-.05-.57.21-.46-.17-.5.54-.17.61-.24C58.9,60.79,59,61.27,59.06,61.12ZM51.24,30.4c1.79-.66,7.09,1.31,6.66,3.91a1.24,1.24,0,0,1-1.66.61l-.77-.52C54.15,33.51,53,32.74,51.53,32,50.75,31.58,50.42,30.76,51.24,30.4Zm10.2-3.87-.69-.45c-3.74-2.45-9-6.15.35-2.32,1.06.46,2.48.73,3.06,1.75C65.08,27.38,62.67,27.51,61.44,26.53Zm.42-11c-.3-1.13,3.43.2,4.52.55l.16.07a5.66,5.66,0,0,1,2.9,1.67c.74,1.26-.76,1.52-1.69.95C65.85,17.54,63.76,16.61,61.86,15.55Zm9.48-5.3c-2.1-2.29,3.52-.09,4.37.52h0a1,1,0,0,1-.09,1.68C74,12.49,72.73,11.09,71.34,10.25ZM80.9,7.74c-3.34-2.4,1.06-1.26,2.59-.32C84.53,8.34,83.45,9.89,80.9,7.74Z"/>
              </g>
              <g id="face_Eating-Happy" data-name="face/Eating-Happy">
                <path id="_-Ink-3" data-name="ðŸ–-Ink" class="cls-2" d="M99.75,70c1.18-2,3.7,2.82,4,3.64a10.58,10.58,0,0,1,.47,2.22,7,7,0,0,0,2.81,0,11.51,11.51,0,0,0,3.46-1.66,1.87,1.87,0,0,1,2.33.82,1.92,1.92,0,0,1-.49,2.42c-1.28,1.23-3.79,1.51-5.46,1.18a7,7,0,0,1-2.61-1.07c0,.1,0,.2,0,.3l0,.16c-.12,1.37-.5,3.08-1.56,4-1.73,1.45-3.87-1.35-2.19-2.8l0,0c1-.85,1.28-3.12,1.22-4.37a8.75,8.75,0,0,0-.44-2.43l0-.15c-.08-.22-.93-2.31-1.23-2h0C99.86,70.35,99.65,70.18,99.75,70Zm9.44-11c1.59,1,4,3.24,2.31,5.64-2,2.12-4.93-.31-6.37-1.41-1.33-.85-2.82,1.34-1.59,2.34C113.9,73.28,118.1,59.3,110,57.9,109.1,57.75,108.77,58.74,109.19,59Zm-17-9a5.92,5.92,0,0,1,4.45,1l.09.07c1.25.91,2.64,2.51,1.93,4.08a1.26,1.26,0,0,1-1.69.44C96,55.21,95.86,54,95.05,53.4a3.52,3.52,0,0,0-2.41-.78c-2,.18-3.24,2.16-3.86,3.87a.3.3,0,0,1-.53.07C86.79,53.81,89.39,50.57,92.15,50.08Zm25-1c3-.24,6.49,2.85,5.7,6a1.58,1.58,0,0,1-3,0,4.78,4.78,0,0,0-.78-2.2,2.31,2.31,0,0,0-1.9-.83,3.42,3.42,0,0,0-2.12,1c-.51.51-.82,1.26-1.35,1.72a.31.31,0,0,1-.43,0c-.91-.84-.36-2.6.21-3.47A5,5,0,0,1,117.12,49ZM86.46,44.48c1.92-1.69,5.4-3.33,8-2.5,1.49.48,2.14,2.88.48,3.64-1.92.88-4.14.52-6.09,1.43a5.91,5.91,0,0,0-2.16,1.56,5.54,5.54,0,0,1-1.56,1.6.45.45,0,0,1-.54-.07C83.14,48.53,85.22,45.59,86.46,44.48Zm27.37-2.58a8.56,8.56,0,0,1,3.7-.12,8.19,8.19,0,0,1,3.41,1.44l.11.08c1.07.81,2.35,2,2.28,3.42a1.61,1.61,0,0,1-2.4,1.37c-.88-.51-1.3-1.53-2.05-2.21a7,7,0,0,0-2.11-1.32,7.53,7.53,0,0,0-2.65-.52,16.64,16.64,0,0,0-2.12.3c0,.11-.5.06-.81-.05a.43.43,0,0,1-.16-.58C111.44,42.75,112.9,42.16,113.83,41.9Z"/>
              </g>
            </g>
          </g>
        </g>
      </g>
    </g>
  </g>
</svg>
