<svg xmlns="http://www.w3.org/2000/svg" viewBox="0 0 195.03 236.82">
  <defs>
    <style>
      .cls-1 {
        fill: #fff;
      }

      .cls-1, .cls-2 {
        fill-rule: evenodd;
      }

      .cls-2 {
        fill: #1e293b;
      }
    </style>
  </defs>
  <title>Asset 1</title>
  <g id="Layer_2" data-name="Layer 2">
    <g id="Layer_1-2" data-name="Layer 1">
      <g id="Introduction">
        <g id="variations">
          <g id="images">
            <g id="a-person_bust" data-name="a-person/bust">
              <g id="body_Polka-Dot-Jacket" data-name="body/Polka-Dot-Jacket">
                <path id="_-Background" data-name="ðŸŽ¨-Background" class="cls-1" d="M86.6,81c6.15.3,15.74,2.94,16.22,4.63.74,2.63-.86,12.51,1.83,17.83,1.14,2.26,5.49,2.06,7.18,2.8,5.64,2.47,22.35,7.16,25.79,13.06C139,121.65,147.48,151,152,166a41.88,41.88,0,0,0,1.71,4.69l.22-1.12q2.76-13.58,2.76-16.43c0-3-2.37-15.54,0-18.74s8-5.75,10.57-5.8h.07a6.49,6.49,0,0,0,4.36-1.57l1.81-.91q13.77-6.91,16.09-7.58c2.47-.72,6.67.8,4.57,3.09q-2.1,2.28-10.56,8.08l-2.12,1.69.25.13c2.75,1.45,4.36,2.66,4.85,3.65s.26,2.23-.72,3.62l.15.14c1.23,1.22,1.85,2,1.85,2.44v2q1.85,2.7.92,4.5a8.3,8.3,0,0,1-2.92,3.12,12.81,12.81,0,0,1-3.51,5.53q-2,1.63-7,2.73l-3,7.22-2.45,10.14-1.23,11.32.36.26c1.66,1.21,2.72,2.11,2.72,3,0,1.44-6.69,35.36-17.1,36.88-2.25.33-13.93-1.28-17.77-4.4l.06.33q1.35,8.19-.57,8.5-23.67,3.89-134.44,2.4-.66-58.81,6-78.34c11.28-33.29,23.73-44.66,28.08-45.64,3.81-.85,17-6.12,20.73-7.51,2.41-.92,2.93-3.65,5.68-3.65h.22c2.66,0,5,.5,6.34-.86,3.48-3.6,2.51-8.56,3.95-13.32C73.62,83,79.05,80.59,86.6,81Z"/>
                <path id="_-Ink" data-name="ðŸ–-Ink" class="cls-2" d="M69.69,90.37c.36-.72,1.32-.63,2-.3,1.9,1.39-.08,4.08-.61,5.77-1.35,3.29-3.69,6.5-6.93,8,.27,3.27.57,6.53.68,9.8,4.14,5.14,11.12,7,17.32,8.46,9.73,2.69,20.71-2.83,24-12.45-3.74-2.12-4.95-7.69-3.84-11.57.1-.27.52-.39.67-.09,1,2.11.89,4.68,2,6.76,11.17,1.07,25.59,5.28,32.9,14.32,3.25,4.52,4.53,10.4,6.13,15.64,3.41,10.8,6.12,21.82,9.46,32.63l.4-2c1.08-5.64,2.06-11.35,1.33-17.08V148c-.24-4.57-1.67-13,1.87-16.12,3.19-2.44,7.83-4.41,11.84-3.28,7.14-3.18,13.31-8.53,20.91-10.62,2.34-.48,5.71.09,5.16,3.27-1.54,5.55-8,7.71-12.35,10.57,2.82.77,6.25,4.19,4,7.18l0,.12c1.78.79,2,2.78,1.59,4.48,0,.45-.16.06.1.47,2,1.9,1.12,7.19-1.91,7.37a7.33,7.33,0,0,1-3.45,6.31c-2.19,1.47-5.37,1.54-7.19,3.55-4.27,7.54-5.74,16.43-6.21,25.06,2.82,1,5.34,4.2,2.78,6.88l-.15,0c-1.48,3.95-2.05,8.17-2.84,12.31A49.49,49.49,0,0,1,161,225c-4.65,7.78-17.13,6.54-23.42,1.52a11.58,11.58,0,0,1-.18,3.9c-.62,1.38-2.14.78-2.29-.57-3.33,1.87-4.11-4.3-.41-3.33-.29-4.46-.45-8.93-.59-13.4-4.18,1.35-4.36-5.59-.08-4.2V207c0-14.73.13-29.5,2.08-44.11.18-1.09.48-2.15.66-3.23,0-.11.19-.08.19,0,.3,20.45-1,40.94.36,61.4,1.16.35,1.62,1.68,2.48,2.46a12.51,12.51,0,0,0,7,2.92c7.11,1,10.18-1.18,13.35-7.36a1.75,1.75,0,0,1-2.49-2.25l0,0a1.7,1.7,0,0,1,3.13,1.15c3.19-5.1,4.86-10.86,6.09-16.69l.16-.7a25.08,25.08,0,0,1,2.82-7.56c-8.77-2.23-17.34-9-18.71-18.38-2.23,7-5.24,13.83-8.11,20.63-.89,2.36-1.26,4.91-2.53,7.1a.68.68,0,0,1-1.22-.16c-1.14-5.11,2.33-10,4.13-14.59,1.47-2.6,5.68-14.48,8.3-14.51-2.94-12.89-6.86-25.68-10.59-38.4-3.61-17.19-11-20.5-26.55-25.91,2.81,14.33,15.64,28.2,8.81,43.23l-.16.39a7.73,7.73,0,0,0-.79,5.14,23.15,23.15,0,0,0,2.41,4.89c4.82,9,1.5,19.43-.36,28.77-2.35,10.95-4.68,21.91-7.11,32.84a58,58,0,0,1-1.52,6.54c-.37,1.09-2.24,1-2.12-.28a67.23,67.23,0,0,1,1.43-7.3c3-15.7,7.13-31.21,9.74-47,1.67-11.67-4.92-13.46-4.68-21,.9-3.86,3.27-7.3,3.14-11.41.52-12.58-8.63-22.95-9.77-35.19l-2-.71-3-1.09c5.23,36.59,3.64,74,1,110.75-.54,1.7,0,13.55-2.27,12.5-.11.66-.46,1.31-1.23,1.31-6.94.06-13.89.17-20.83.26-3.34-.31-7.93,1-10.78-1-3.28-.94-3.65-9.83-4.53-13l-.34-2.31c-5.58-37.64-10.56-76.06-6.56-114.08-5.57.22-6.72,6.23-7.14,10.62-1,9.67-7.28,18-7.58,27.78a16.65,16.65,0,0,0,1.38,6.85c2.51,5.34,6.86,11.51,3.61,17.48-3.85,4.64-3.51,5.86-2.1,11.6,4,19,10.56,37.2,16.84,55.48-1.36,7.11-9.56-19.28-10.34-21.27-3.62,1.83-5.61-4.23-1.44-4.66-2.68-8.95-5.14-18-7.19-27.09l-.05-.26c-.91-4.21-2.69-9.15.32-12.89,7.75-7.84-5.12-16.6-3.5-26.1a2.21,2.21,0,1,1,.36-3.27c1.3-7.71,5.85-14.44,7.22-22.12l.07-.36c.46-2.72.59-5.58,1.93-8a36.7,36.7,0,0,1-5.74,3c3.56,3-3.33,5.68-2.76,1.1-19.49,5.64-23.9,13.51-31,31.57a1.78,1.78,0,1,1-.6,1.42l-.33.78c-4.34,10.38-8.29,21-10.27,32.12,3.89-.55,2.9,5.68-.63,3.92-1.41,9.88-1.44,19.9-1.26,29.86,3.28-1.72,3.38,4.13,0,2.47.12,8.16.3,16.32.44,24.48a1.35,1.35,0,0,1-2.7,0C.37,223-.2,210.42.07,197.87c-.25-21.77,6-42.76,15.33-62.27,8.25-22.46,19.64-25,40.61-31.54,1.93-2.87,6.07-5.59,9.44-3.79C67.34,97.23,68.29,93.61,69.69,90.37ZM33.77,168.64a.25.25,0,0,1,.49.07A91.75,91.75,0,0,1,34,179.32c-.15,2.16-.33,4.31-.48,6.46q-.62,8.49-1,17l.27-.1a2.52,2.52,0,0,1,1.28,0,2.42,2.42,0,0,1,1,.56l.06.06a1.81,1.81,0,0,1,.5.78,1.76,1.76,0,0,1,.21.85V205a2.38,2.38,0,0,1-.33,1.22,2.44,2.44,0,0,1-.86.86,2.38,2.38,0,0,1-1.22.33h-.14a1.75,1.75,0,0,1-.9-.2H32.4c-.1,2.87-.19,5.75-.25,8.63-.06,2.51-.13,5-.18,7.53l0,1.25h0l0,2.78a9.87,9.87,0,0,1-.4,3.3l-.05.13c-.27.72-.49,1.72-1.24,2.12a1.29,1.29,0,0,1-1.74-.42,1.39,1.39,0,0,1,.39-1.62l0-.07c-.07-.19-.17-.37-.23-.56a7,7,0,0,1-.14-1.89c0-1.12,0-2.23.07-3.35.07-2.37.14-4.74.24-7.11.31-8,.9-15.89,1.58-23.82l.23-2.67c.31-3.56.62-7.12,1.07-10.66,0-.17,0-.34.07-.51a2.58,2.58,0,0,1-.65-.47A9.35,9.35,0,0,1,29.53,177l-.1-.22a15.51,15.51,0,0,1-1.05-3.17l0-.1c-.1-.47-.29-1.3.21-1.53a.32.32,0,0,1,.51.22.14.14,0,0,1,0,.11c.21.31.53.6.73.9l.7,1h0l.34.5c.44.64.9,1.25,1.38,1.86A62.18,62.18,0,0,1,33.77,168.64ZM62.24,227.8a1.34,1.34,0,1,1,0,1.89l-.05,0h0l0,0a1.26,1.26,0,0,1,0-1.73l0,0Zm-37.83-2.46h.08a2.26,2.26,0,0,1,1.1.29c.14.12.29.23.44.34a2.25,2.25,0,0,1,.56,1l.07.57h0a1.62,1.62,0,0,1-.18.84,1.72,1.72,0,0,1-.45.71,1.69,1.69,0,0,1-.7.45,1.72,1.72,0,0,1-.77.19h-.07a2.2,2.2,0,0,1-1.1-.29l-.45-.34a2.36,2.36,0,0,1-.56-1c0-.19-.05-.38-.07-.58a1.68,1.68,0,0,1,.18-.83,1.92,1.92,0,0,1,1.16-1.16,1.65,1.65,0,0,1,.76-.19Zm98.9-4,.55.07h0a2.06,2.06,0,0,1,1.24,1,1.44,1.44,0,0,1,.25.77,1.56,1.56,0,0,1,0,.83,1.47,1.47,0,0,1-.37.71,1.44,1.44,0,0,1-.22.27,2.17,2.17,0,0,1-.71.67,1.39,1.39,0,0,1-.74.24,1,1,0,0,1-.53,0,1.44,1.44,0,0,1-.74-.24l-.4-.31a4.46,4.46,0,0,1-.33-.43l-.21-.48a2.24,2.24,0,0,1,0-1.12,1.8,1.8,0,0,1,.05-.19l0-.12a2.31,2.31,0,0,1,.41-.71l.08-.11a.93.93,0,0,1,.13-.15,4.45,4.45,0,0,1,.48-.38A2,2,0,0,1,123.31,221.33ZM51.58,220h.07a1.71,1.71,0,0,1,.86.24l.35.26h0a1.88,1.88,0,0,1,.44.76l.06.45a1.24,1.24,0,0,1-.15.66,1.5,1.5,0,0,1-.9.9,1.24,1.24,0,0,1-.6.15h-.06a1.73,1.73,0,0,1-.86-.23l-.35-.27h0a1.84,1.84,0,0,1-.44-.75l-.06-.46a1.28,1.28,0,0,1,.15-.66,1.5,1.5,0,0,1,.9-.9,1.36,1.36,0,0,1,.59-.15Zm-13.94-.7a2.25,2.25,0,0,1,2,1.3l.13.33a1.65,1.65,0,0,1,0,1.44,1.9,1.9,0,0,1-1.23.8,2,2,0,0,1-1.24,0,2.94,2.94,0,0,1-.57-.26,2.45,2.45,0,0,1-.73-.74,1.92,1.92,0,0,1,0-1.93A1.93,1.93,0,0,1,37.64,219.27Zm-22.4.41a1.77,1.77,0,0,1,1.7,2.23,1.79,1.79,0,0,1-1.23,1.24,3,3,0,0,1-1.24,0,2.1,2.1,0,0,1-.93-.52,1.28,1.28,0,0,1-.37-1.13,1.29,1.29,0,0,1,.5-.87h0l-.1.08.12-.11,0-.07a1.9,1.9,0,0,1,.63-.63A1.75,1.75,0,0,1,15.24,219.68Zm130.06-6.4a1.79,1.79,0,0,1,.92,0,1.29,1.29,0,0,1,.59.31,1.21,1.21,0,0,1,.41.43l0,.06a1.77,1.77,0,0,1,.18,1.33,1.7,1.7,0,0,1-1.21,1.21h0a2,2,0,0,1-1.33-.17,2,2,0,0,1-.61-.62,1.25,1.25,0,0,1-.21-.64.9.9,0,0,1,0-.46,1.25,1.25,0,0,1,.21-.64l.27-.35h0l0,0h0A1.67,1.67,0,0,1,145.3,213.28ZM124,202.1c2.77,0,2.76,4.29,0,4.29S121.26,202.1,124,202.1Zm-101.41-.55a1.75,1.75,0,0,1,.88,0l.52.22.44.34h0a1.82,1.82,0,0,1,.2.25l.09.12a1.85,1.85,0,0,1,.3.62,2.17,2.17,0,0,1,0,1.13,2.31,2.31,0,0,1-.22.51,2.45,2.45,0,0,1-.31.41l-.06.06a1.69,1.69,0,0,1-.7.45,1.08,1.08,0,0,1-.55.15,1.75,1.75,0,0,1-.88,0l-.52-.22-.44-.34L21,204.8l-.11-.26h0l-.11-.26-.08-.58a1.62,1.62,0,0,1,.19-.84,1.05,1.05,0,0,1,.28-.49,1.12,1.12,0,0,1,.39-.39,1.17,1.17,0,0,1,.48-.28A1.08,1.08,0,0,1,22.62,201.55Zm137-3.07a1.22,1.22,0,0,1,.65.15l.2.08a1.7,1.7,0,0,1,.61.61,2,2,0,0,1,.19,1.24l0,.06a1.82,1.82,0,0,1-.21.47l0,0a1.7,1.7,0,0,1-.56.54,1.76,1.76,0,0,1-.84.23,1.71,1.71,0,0,1-1.43-.82,2.29,2.29,0,0,1-.1-.23,1.63,1.63,0,0,1-.09-1.14,1.21,1.21,0,0,1,.3-.57,1.41,1.41,0,0,1,.47-.44,1.85,1.85,0,0,1,.79-.23Zm-116.94-2.1a1.75,1.75,0,0,1,.88,0l.07,0a1.33,1.33,0,0,1,.61.32,1.28,1.28,0,0,1,.45.5,1.73,1.73,0,0,1,0,1.79,1.71,1.71,0,0,1-.64.64l-.23.11h0a1.17,1.17,0,0,1-.62.2.86.86,0,0,1-.45,0,.92.92,0,0,1-.43-.11.83.83,0,0,1-.37-.22,1.29,1.29,0,0,1-.43-.47l-.17-.41h0l-.06-.44h0l.06-.45h0l.09-.22h0a1.81,1.81,0,0,1,.46-.79A1.71,1.71,0,0,1,42.67,196.38Zm104.77-3.57a1.84,1.84,0,0,1,.93,0,1.1,1.1,0,0,1,.58.16,1.19,1.19,0,0,1,.51.29,1.84,1.84,0,0,1,.59.65l.23.55h0a2.41,2.41,0,0,1,0,1.25,1.75,1.75,0,0,1-.41.77,1.15,1.15,0,0,1-.41.41,1.72,1.72,0,0,1-.67.38l-.08,0h0a1.65,1.65,0,0,1-.31,0,1.73,1.73,0,0,1-.93,0l-.54-.23-.47-.36-.36-.47a1.75,1.75,0,0,1-.28-.86,1.26,1.26,0,0,1,0-.61,1.18,1.18,0,0,1,.16-.58,1.67,1.67,0,0,1,.48-.75l.47-.35ZM12.7,185.25a1.7,1.7,0,0,1,1,0l.43.18h0a1.33,1.33,0,0,1,.51.46,1.29,1.29,0,0,1,.32.61,2,2,0,0,1,0,1.16,2.22,2.22,0,0,1-.55,1,1.85,1.85,0,0,1-1.74.45,1.48,1.48,0,0,1-.47-.2,1.56,1.56,0,0,1-.76-1.32,1.09,1.09,0,0,1,0-.18,1.2,1.2,0,0,1,0-.38l.06-.48h0a1.92,1.92,0,0,1,.46-.79,1.9,1.9,0,0,1,.72-.43l.07,0Zm159.42-47.46c-.58-4.74-2.75-9.83-9.37-7l-.49.19c-1.64.62-3.54,1.43-4.54,2.86-.69,1-.46,2.9-.55,4.05a47.86,47.86,0,0,0,.25,11.22,53.86,53.86,0,0,1-4.92,25.74c3.66,5.93,8.56,11.45,15.25,13.92a119.78,119.78,0,0,1,3-19.92l.06-.29c.56-3,.84-6,2.78-8.47,4-4.3,9.41-1.87,12-8.77a.57.57,0,0,1,.42-1c2.28.4,2.65-3.84,1.09-4.86s0-2.82-.68-4.15c-.39-.57-1.22-.59-1.6-1.25-1-2.41,4-4-1.89-6.69a11.13,11.13,0,0,0-3.77-.17c-1.8.17-3.22,1.43-4.86,1.83,1.79,4.62-2.72,9.07-6.78,5.38-2.21,2.09-4.68,6.85.69,4.63,2.63-1.75,4.9-4,7.95-5.11l.07,0c1.13-.37,6.09-2.78,5.84-.69-1.85,1.79-4.92,1.77-7.07,3.23-3,1.38-4.89,4.72-8.46,4.68-.83,5,4.85,2,7,.58l.58-.32c3-1.61,6-3.11,9.49-3.13a.75.75,0,0,1,0,1.49c-4.53,0-8.22,2.86-12,5-.37,2.92,3.91,1.64,5.53,1.21,1.7-.24,4.43-2.08,5.92-1.11.58,1.5-2,1.39-2.87,1.84,4.07,2,.5,3.19-.59.18l-.32.11c-2.73.92-9.34,2.8-8.55-1.82a5.43,5.43,0,0,1-3.32.46c-2.75,4.07-7.14,2.5-.76-.27-1.44-.67-1.92-3.25-.54-4.21-5-.31-1.29-5.58.79-7.33-.2-.2-.39-.4-.57-.61a11,11,0,0,1-3.8,1c-1.29.12-1.57-2.08-.3-2.26a10.34,10.34,0,0,0,3.82-1.24c1.81-.78,2.44,2.59,4.26,2.71C171.25,139.53,171.92,138.66,172.12,137.79Zm-42.25,43.55a1.71,1.71,0,0,1,1.15.48,1.64,1.64,0,0,1,.47,1.15,1.83,1.83,0,0,1-.47,1.15,1.64,1.64,0,0,1-2.3,0,1.66,1.66,0,0,1-.48-1.15,1.38,1.38,0,0,1,.14-.63,1.32,1.32,0,0,1,.29-.48l.05,0A1.66,1.66,0,0,1,129.87,181.34Zm13.31-10h.07a2.08,2.08,0,0,1,1,.28l.42.32a2.15,2.15,0,0,1,.53.91,2.05,2.05,0,0,1,0,1.1,1.49,1.49,0,0,1-.24.58,2,2,0,0,1-.72.73,2,2,0,0,1-2.05,0,2,2,0,0,1-.72-.73,1.49,1.49,0,0,1-.24-.58,2,2,0,0,1,.48-2l.05-.06a1.55,1.55,0,0,1,.66-.42A1.54,1.54,0,0,1,143.18,171.32Zm-101.61.11a.9.9,0,0,1,.46,0,1.28,1.28,0,0,1,.65.21l.36.28.1.12a2,2,0,0,1,.4.72,1.35,1.35,0,0,1,0,.69.82.82,0,0,1-.12.43.81.81,0,0,1-.22.38.92.92,0,0,1-.31.31,1.24,1.24,0,0,1-.58.3l-.46.06h0l-.18,0-.2,0-.07,0h-.06l-.25-.1a.89.89,0,0,1-.38-.23,1.25,1.25,0,0,1-.45-.49l0-.07h0a.88.88,0,0,1-.1-.22.77.77,0,0,1-.11-.41,1.14,1.14,0,0,1,0-.58l0-.06.16-.39a1.69,1.69,0,0,1,.29-.37,3.47,3.47,0,0,1,.33-.26l0,0h0A1.32,1.32,0,0,1,41.57,171.43Zm-25.47-3a1.63,1.63,0,1,1,2,2l-.14,0h0a1.57,1.57,0,0,1-1.91-1.91l0-.14Zm145-9.77c0-.12.15-.16.22-.09,1,.91,1.67,2,2.91,2.71s2.52.66,3.81,1.11a.47.47,0,0,1,0,.9C165.59,164.13,161.29,161.23,161.1,158.64ZM46,158.45a1.53,1.53,0,0,1,.82,0,1,1,0,0,1,.52.13,1,1,0,0,1,.45.27.94.94,0,0,1,.37.37,1.53,1.53,0,0,1,.37.7l.07.54h0l-.07.55h0l-.21.49-.19.26a1.93,1.93,0,0,1-.54.48,1.55,1.55,0,0,1-.77.24,1,1,0,0,1-.55,0,.94.94,0,0,1-.51-.14,1,1,0,0,1-.46-.26,1.64,1.64,0,0,1-.53-.58c-.07-.16-.14-.33-.2-.49l-.08-.55h0l.08-.54h0v0h0A2.06,2.06,0,0,1,45,159l.41-.32h0A2,2,0,0,1,46,158.45Zm98.62.41a1.7,1.7,0,1,1,.91,3.28,1.54,1.54,0,0,1-.52.06,1.61,1.61,0,0,1-.83-.22l-.33-.25h0a1.19,1.19,0,0,1-.33-.53,1.25,1.25,0,0,1-.15-.63v0a1,1,0,0,1,0-.24.67.67,0,0,1,0-.24A1.71,1.71,0,0,1,144.57,158.86ZM18.41,153.14a1,1,0,0,1,.53.12.9.9,0,0,1,.44.28,1,1,0,0,1,.28.44,1,1,0,0,1,.12.53,1.27,1.27,0,0,1-.19.68l-.21.28a1.31,1.31,0,0,1-.6.35l-.14.05h0a1.41,1.41,0,0,1-1.19-.17,1.13,1.13,0,0,1-.42-.42l-.11-.27h0a1.75,1.75,0,0,1-.05-.33v0a2.2,2.2,0,0,1,.05-.37,1.47,1.47,0,0,1,.25-.48,1,1,0,0,1,.37-.34h0l.15-.11A1.42,1.42,0,0,1,18.41,153.14Zm109.1-1.5a1.81,1.81,0,0,1,.94.25l0,0a1.84,1.84,0,0,1,.67.66,1.87,1.87,0,0,1,0,1.87,1.87,1.87,0,0,1-.67.67h0a1.83,1.83,0,0,1-1.88,0,1.87,1.87,0,0,1,0-3.23A1.81,1.81,0,0,1,127.51,151.64Zm-87.74-2.45h.06a1.24,1.24,0,0,1,.63.14,1.27,1.27,0,0,1,.52.34l.31.26h0l.09.07,0,0a1.63,1.63,0,0,1,.43.74,3.93,3.93,0,0,1,.06.48,1.59,1.59,0,0,1-.47,1.16,1.31,1.31,0,0,1-.53.34,1.21,1.21,0,0,1-.63.13,1.73,1.73,0,0,1-1.22-.49.69.69,0,0,1-.11-.13l-.27-.3h0a1.58,1.58,0,0,1-.41-.72c0-.15,0-.29-.06-.43a1.64,1.64,0,0,1,.47-1.15A1.66,1.66,0,0,1,39.77,149.19Zm-10.66-4.45a1.71,1.71,0,0,1,0,3.41A1.71,1.71,0,0,1,29.11,144.74ZM139.58,140h.07a2.1,2.1,0,0,1,1,.28l.41.32h0a2,2,0,0,1,.52.89c0,.18,0,.36.08.54a1.48,1.48,0,0,1-.18.77,1.55,1.55,0,0,1-.42.66,2.35,2.35,0,0,1-1.42.59,2,2,0,0,1-1-.28l-.41-.31a2.11,2.11,0,0,1-.5-.82l0-.08-.08-.53a1.5,1.5,0,0,1,.18-.78,1.84,1.84,0,0,1,1.07-1.07A1.44,1.44,0,0,1,139.58,140Zm-9.9-6.38a1.26,1.26,0,0,1,.55.12,1.08,1.08,0,0,1,.46.3,1.37,1.37,0,0,1,0,2,1.44,1.44,0,0,1-.63.37l-.38.05h0a1.49,1.49,0,0,1-1-.42l-.16-.14a1.27,1.27,0,0,1-.36-.87.92.92,0,0,1,.11-.46.88.88,0,0,1,.25-.4l.16-.14A1.51,1.51,0,0,1,129.68,133.58Zm62.7-11.37c1.39-1.69.58-2.89-1.51-2.47-3.59.48-7,2.75-10.14,4.38-3.45,1.83-7,3.33-10.53,5a9.61,9.61,0,0,1,3.36,3.89,10.16,10.16,0,0,1,5.81-1.93C183.1,127.55,189.29,126.73,192.38,122.21Zm-164,5.62a2.17,2.17,0,0,1,1.06.27l.07,0,.45.35a1.64,1.64,0,0,1,.47.72,2,2,0,0,1,0,1.72,1.64,1.64,0,0,1-.47.72,1.24,1.24,0,0,1-.48.39l-.53.22a2.83,2.83,0,0,1-.65.09,2.36,2.36,0,0,1-1.11-.3l-.44-.35h0a2.41,2.41,0,0,1-.65-1.47v-.13c0-.2,0-.4.08-.6a1.64,1.64,0,0,1,.4-.76.64.64,0,0,1,.21-.25,2.17,2.17,0,0,1,1-.58Zm98-5.6h.06a1.59,1.59,0,0,1,.8.21l.31.25a1.51,1.51,0,0,1,.41.7l.06.41h0a1.27,1.27,0,0,1-.14.61,1.13,1.13,0,0,1-.33.51,1.78,1.78,0,0,1-1.11.46,1.47,1.47,0,0,1-.79-.22l-.32-.24a1.59,1.59,0,0,1-.39-.63l0-.07,0-.42a1.15,1.15,0,0,1,.13-.6,1.25,1.25,0,0,1,.33-.51,1.14,1.14,0,0,1,.51-.32,1.11,1.11,0,0,1,.54-.14Zm-85.68-2.29h.07a2.35,2.35,0,0,1,1.18.32l.47.36a2.44,2.44,0,0,1,.6,1l.08.62h0a1.79,1.79,0,0,1-.2.89,1.86,1.86,0,0,1-.48.75,1.67,1.67,0,0,1-.75.48,1.76,1.76,0,0,1-.9.21,2.29,2.29,0,0,1-1.17-.32l-.47-.37a2.31,2.31,0,0,1-.6-1l-.08-.62h0a2.6,2.6,0,0,1,.68-1.65,2.64,2.64,0,0,1,1.57-.68ZM119,114.13a1.1,1.1,0,0,1,.57,0,1.58,1.58,0,0,1,.81.26l.44.34h0a0,0,0,0,1,0,0,2,2,0,0,1,.55.94l.08.57h0a1.64,1.64,0,0,1-.18.82,1.63,1.63,0,0,1-.39.64l-.07.07a1.69,1.69,0,0,1-.7.45,1,1,0,0,1-.55.14,1.58,1.58,0,0,1-.86,0l-.52-.22,0,0a2.13,2.13,0,0,1-1.06-1.84,2.1,2.1,0,0,1,1.06-1.84l0,0A1.58,1.58,0,0,1,119,114.13Z"/>
              </g>
              <g id="head_Hijab" data-name="head/Hijab">
                <path id="Path-2" class="cls-1" d="M92.59,14.41c31.8,1,33.72,16.12,33.72,41.46S109.82,97.17,103.74,100s-22.07,14.77-36.5,9.25S57,80.37,57,70.35,60.8,13.4,92.59,14.41Z"/>
                <path id="_-Ink-2" data-name="ðŸ–-Ink" class="cls-2" d="M105.49,91.64C99.66,94.9,93,95,86.69,93a39.46,39.46,0,0,1-10.46-5.39,71.66,71.66,0,0,1-7.8-6.5A57.7,57.7,0,0,1,63.7,67.15a36.8,36.8,0,0,1,0-13.4q9.86-8.1,19.6-16.3c3.32-2.78,6.64-5.55,10-8.27,1.71-1.39,3.4-2.79,5.1-4.18l.84-.68c3.52,2.57,7.29,4.78,10.78,7.39,1.83,1.38,3.6,2.84,5.29,4.37.89.81,1.76,1.64,2.6,2.49s1.52,1.89,2.62,2.19a1,1,0,0,0,.42,0c1.47,12.84,2.51,26.71-3.77,38.37A30.7,30.7,0,0,1,105.49,91.64Zm-38,4.72c-.81-.74.39-1.93,1.19-1.2,5,4.61,11.61,7,18.25,8.19,1.07.18.61,1.81-.45,1.63C79.56,103.79,72.75,101.16,67.51,96.36Zm-6,7.07c-1-.52-.1-2,.85-1.46A40.78,40.78,0,0,0,74.9,105.9c1.07.18.62,1.81-.45,1.63A41.92,41.92,0,0,1,61.47,103.43Zm16-71.23a79.64,79.64,0,0,1,10.44-8,22.88,22.88,0,0,1,12.22-3.82c-.31.24-.6.52-.9.77l-2.49,2.15c-1.66,1.43-3.33,2.86-5,4.31L82,36.16q-9.28,8.28-18.18,17c0-.14.07-.28.1-.42C65.92,44.5,71.25,37.73,77.42,32.2Zm25.49-11.51a1.16,1.16,0,0,0,0-.18A21.69,21.69,0,0,1,120.82,36a1.37,1.37,0,0,0-.28,1c0,.18,0,.36.07.54-.29-.29-.59-.56-.84-.81-.85-.86-1.71-1.69-2.6-2.5a66.42,66.42,0,0,0-5.68-4.64,38,38,0,0,0-11.31-6l.81-.66A5.06,5.06,0,0,0,102.91,20.69Zm15.17-8.77A37,37,0,0,0,98.11.64,39.15,39.15,0,0,0,76.55,2.85C62.25,8.48,51,20.84,45.69,35.16a58.67,58.67,0,0,0-3.17,26.33c.92,8.8,3.57,17.88,8.39,25.36a23.13,23.13,0,0,0,1.43,2,16.93,16.93,0,0,1-2.45,7.32l-.22.35c-1.39,1-2.83,2-4.24,3-1.22.87-2.42,1.77-3.57,2.74a13.74,13.74,0,0,0-3.07,3.16,2.9,2.9,0,0,0,0,3.35c1,1.16,2.66.75,4,.75h.34c.41.25.82.48,1.22.69q6.07,3.23,12.18,6.39c8.11,4.21,16.18,8.59,24.45,12.47,3.83,1.8,7.94,3.37,12.23,3.37a17.75,17.75,0,0,0,10.81-4,64.22,64.22,0,0,0,9.48-9.74q1.75-2.07,3.42-4.2c2.15-.71,4.28-.92,6.19.46,1.54,1.11,3.56-.4,3.6-2.06a12.6,12.6,0,0,0-.08-1.75c-.38-3.55-2.12-6.77-4.07-9.75-1.07-1.63-2.2-3.23-3.33-4.81-.27-.38-.53-.75-.78-1.13a77.16,77.16,0,0,0,10.37-21.89,74.66,74.66,0,0,0,2.6-25.11C130.6,35.45,127,21.72,118.08,11.92Z"/>
              </g>
              <g id="face_Calm" data-name="face/Calm">
                <path id="_-Ink-3" data-name="ðŸ–-Ink" class="cls-2" d="M107.33,82.25a8.36,8.36,0,0,1-8.79-2.56A5.75,5.75,0,0,1,97,75.85a.62.62,0,0,1,.15-.4.71.71,0,0,1,.81-.18.51.51,0,0,1,.28.28l.49.63a8.07,8.07,0,0,0,4.55,3.26,5.57,5.57,0,0,0,3.11-.23,6.63,6.63,0,0,0,2.73-1.93,1.49,1.49,0,0,1,1.12-.55,1.72,1.72,0,0,1,1.2.53,1.85,1.85,0,0,1,.56,1.21,1.67,1.67,0,0,1-.46,1.19A9.45,9.45,0,0,1,107.33,82.25Zm0-20.25c1.6,1,4,3.24,2.31,5.64-2,2.12-4.92-.31-6.36-1.41-1.33-.85-2.82,1.34-1.59,2.33,10.36,7.68,14.56-6.3,6.45-7.7C107.2,60.71,106.87,61.7,107.28,62ZM92.36,57.73a1.78,1.78,0,0,0-1.78-.13,5.8,5.8,0,0,0-2.08,2.07,4,4,0,0,0-.68,2.42.56.56,0,0,1-.18.46.67.67,0,0,1-.38.17.93.93,0,0,1-.41,0,.61.61,0,0,1-.4-.34,5,5,0,0,1,.25-3.7,7.47,7.47,0,0,1,2.7-3.4,4.5,4.5,0,0,1,4.37,0A8,8,0,0,1,96.41,58c.15.23.31.45.47.67a1.36,1.36,0,0,1,.22,1.26,1.62,1.62,0,0,1-.92,1A1.59,1.59,0,0,1,94,59.94a4.94,4.94,0,0,0-1.66-2.21Zm26,1.83a1.2,1.2,0,0,1-1,.12,1.46,1.46,0,0,1-.6-.35,1.27,1.27,0,0,1-.33-.6,2.42,2.42,0,0,0-.86-1.43,1.73,1.73,0,0,0-1.37-.37,2.65,2.65,0,0,0-1.48.89,3.88,3.88,0,0,0-.32.47,3.26,3.26,0,0,1-.61.8.58.58,0,0,1-.38.15.47.47,0,0,1-.17,0,1.76,1.76,0,0,1-.65-1.42,2.45,2.45,0,0,1,.48-1.32,5.24,5.24,0,0,1,2.78-2,4.19,4.19,0,0,1,3.27.71A4.62,4.62,0,0,1,119,58.08a1.57,1.57,0,0,1-.08.86A1.16,1.16,0,0,1,118.4,59.56ZM94.94,47.18a3.61,3.61,0,0,1-2.37.89,11.21,11.21,0,0,0-1.21.18,11.6,11.6,0,0,0-2.92,1.06,10.93,10.93,0,0,0-2.73,1.94c-.18.19-.34.39-.51.59s-.3.36-.46.53l-.51.6a1.44,1.44,0,0,0-.15.26l-.11.21a2.9,2.9,0,0,1-.19.34c-.12.2-.18.25-.24.27a.47.47,0,0,1-.25.05.38.38,0,0,1-.23-.11,1.62,1.62,0,0,1-.45-1.33,5.72,5.72,0,0,1,.58-2.25,12.11,12.11,0,0,1,2.59-3.55,12.44,12.44,0,0,1,4.06-2.47,8.27,8.27,0,0,1,3.07-.64,3.07,3.07,0,0,1,2,.8,1.88,1.88,0,0,1,0,2.63Zm24.89,6.27a.33.33,0,0,1-.17.16.47.47,0,0,1-.23,0,.51.51,0,0,1-.21-.1.4.4,0,0,1-.12-.21,6.13,6.13,0,0,0-3.3-4.55,14,14,0,0,0-3.08-1,9.21,9.21,0,0,0-.94-.16,3.92,3.92,0,0,1-2.67-1.13,2.14,2.14,0,0,1-.46-1.68,1.76,1.76,0,0,1,1-1.33c1.42-.74,3.19,0,4.63.6l.31.13a11,11,0,0,1,3.74,2.5,8.15,8.15,0,0,1,1.92,3.55A4.24,4.24,0,0,1,119.83,53.45Z"/>
              </g>
              <g id="accessories_Glasses-5" data-name="accessories/Glasses-5">
                <path id="_-Ink-4" data-name="ðŸ–-Ink" class="cls-2" d="M122.11,65.6c-3.17,1.53-7.59-.72-9.73-3.08a7.16,7.16,0,0,1-1.07-4.88,9.61,9.61,0,0,1,7-7.62c4.45-1.2,8.92,1.84,8.4,5.42-.49,3.4-1.24,8.34-4.65,10.16m-21.58-8.11c-.26,4.6-4,8.63-8.37,9.82-7.11,2-10.63-3-12.22-8.4a4.19,4.19,0,0,1,.47-3.57c3.93-5.52,13.48-4.58,18.25-3.07a6.64,6.64,0,0,1,1.87,5.22m25-7.94h0l0,0,0,0m6,.53c-.42-4.68-15.11-2.89-16.83-2.5-4.69,1.38-8.74,5.13-14,3.48C95.26,45,77,46.74,73.14,49.83a4,4,0,0,0-2.55.13c-4.8-.17-26.73,1.49-22.24,7.62.68.47,1.36,0,1.38-1,23.38-8.45,21.11-.54,23.88-1.46.43.12.87.2,1.25.28,2.15.69,2.88.48,3.16,2.89C80,76.92,104.74,70.49,102.7,55.23c2-.11,3.78-1,5.9-.13,1.48,14.38,13.05,15,16.53,10,2.62-3.46,1.58-8.68,5.19-11.4,1.43,1.19,1.52-2.83,1.19-3.59"/>
              </g>
            </g>
          </g>
        </g>
      </g>
    </g>
  </g>
</svg>
