<svg xmlns="http://www.w3.org/2000/svg" viewBox="0 0 168.32 247.19">
  <defs>
    <style>
      .cls-1 {
        fill: #fff;
      }

      .cls-1, .cls-2 {
        fill-rule: evenodd;
      }

      .cls-2 {
        fill: #1e293b;
      }
    </style>
  </defs>
  <title>Asset 1</title>
  <g id="Layer_2" data-name="Layer 2">
    <g id="Layer_1-2" data-name="Layer 1">
      <g id="Introduction">
        <g id="variations">
          <g id="images">
            <g id="a-person_bust" data-name="a-person/bust">
              <g id="body_Fur-Jacket" data-name="body/Fur-Jacket">
                <path id="_-Background" data-name="ðŸŽ¨-Background" class="cls-1" d="M15.57,243.52a2.57,2.57,0,0,0,4.25.12c10.71,2.49,21.69,1.51,32.55.9,30.61-1.25,61.39,2.66,91.87-1.43,3.24-.64,7-.34,9.65-2.58,4.23-5,3.32-12.49,2.64-18.54-5.4-34.06-13.08-68.43-16.92-102.71-.21-3.27,1.14-7.33,2.34-10.39.3-.58,2.18-1.14,3.16-1.79,3-2.16,2.51-6-.09-8.28C136.61,92.89,124.89,95,116,97.15c-1.71-6.43-3.64-10.66-6.9-11.07-6.19-.8-21.23-3.24-25.87,0-2.21,1.54-3.63,7-5.23,9.64-11.63-.2-35.25-15.77-40.1,1.76-3.94.27-7.85,3.72-7.1,7.85-5.11,4.52-1.08,11.3-1.15,16.93-.67,11.94-7.13,22.62-9.82,34.16-6.14,22.37-13.09,63.06-5.47,84.9-.17-.08-.52,0-.29.23C14.9,241.79,15,242.88,15.57,243.52Z"/>
                <path id="_-Ink" data-name="ðŸ–-Ink" class="cls-2" d="M149.32,237.83a322.9,322.9,0,0,1-2.43-36.9.85.85,0,0,1,1.69,0,322.9,322.9,0,0,0,2.43,36.9c.14,1.08-1.55,1.06-1.69,0m-10.58-71.15c-2.21,1.35-5.11.41-7.29-.48-1-.41-.56-2,.45-1.63,1.66.68,4.09,1.68,5.85.73s1.83-3.56,1.84-5.28a.85.85,0,0,1,1.69,0c0,2.34-.33,5.3-2.54,6.66m-4.09,52.51A16.74,16.74,0,0,1,129,214.5c-.67-.86.8-1.7,1.46-.85a14.83,14.83,0,0,0,5,4.08c1,.5.11,2-.86,1.46m-10.7-59a287.75,287.75,0,0,0-7.65,46.66q-.37,4.78-.53,9.58c-.1.83-.2,1.66-.29,2.5a82.39,82.39,0,0,0-.59,9.54c0,1.43.06,2.85.15,4.27-.16-.47-.32-.95-.47-1.43-.31-1-.52-2-.84-3-.26-.8-.6-1.57-.91-2.34h0c.1-3.18-.12-6.39-.23-9.55-.14-4.09-.32-8.19-.41-12.28-.18-8.2-.09-16.4.21-24.59.59-16.51,2.09-32.94,3.6-49.38.42-4.57.88-9.14,1.19-13.72s.44-9.27.48-13.91a.31.31,0,0,0-.6-.1,22.07,22.07,0,0,0-.47-3.26c3.64,2.33,7.48,4.34,11.25,6.45,2,1.11,4,2.25,6,3.24,1.12.55,2.25,1.06,3.41,1.54s2.35,1.17,3.67.83a1.79,1.79,0,0,0,.32-.13c-.15.28-.3.57-.44.86-.5,1-1,2-1.43,3a1.06,1.06,0,0,0-.32.37c-.22.44-.44.88-.65,1.33l-.13-.12c-.18-.17-.42.09-.26.27l.21.24c-1.38,3-2.5,6.09-3.65,9.13q-2.13,5.61-4,11.3-3.75,11.19-6.6,22.66m-54.64,55.6a145.1,145.1,0,0,0-20,13.15c-.86.66-1.7-.81-.85-1.46a145.61,145.61,0,0,1,20-13.15c1-.51,1.82,1,.86,1.46m-23.79-44.2a.86.86,0,0,1-.82-.62,16.25,16.25,0,0,1-.49-7.26c.24-1.07,1.87-.62,1.63.44a13.52,13.52,0,0,0,.35,5.79c6.15.27,12.21-1.94,18.09-3.42a.84.84,0,0,1,.44,1.63c-6.23,1.57-12.68,3.93-19.2,3.44m122.3,62.34s0,0,0,0a13,13,0,0,0,.41-3.52,50,50,0,0,0-.19-6.12,89.26,89.26,0,0,0-2.23-12.68c-2-8.27-4.77-16.33-6.29-24.72-3-16.46-2.28-33.61-8.13-49.49a56,56,0,0,0-10.62-18.19c.34-1,.68-2.1,1-3.16a49.54,49.54,0,0,0,1.51-5.62.77.77,0,0,0,0-.15c2-.87,3.84-2.5,4.15-4.67a5.38,5.38,0,0,0-.42-2.89,3.57,3.57,0,0,0,1.23-3.09c-.24-2.51-3.16-3.15-5.2-3.64a20.63,20.63,0,0,0-7.09-.45,21.36,21.36,0,0,0-3.53.68,7.56,7.56,0,0,0-2.9,1.27.14.14,0,0,0,.1.24c1.63,0,3.25-.61,4.89-.69a20.15,20.15,0,0,1,5.14.42,18.54,18.54,0,0,1,4.8,1.64c.42.22,1,.37.54.82a2.88,2.88,0,0,1-1.54.4,2.13,2.13,0,0,0-2.06,1.82,2.09,2.09,0,0,0,1.5,2.29l.16.05s.07.1.07,0h0c0,.15,0,.21,0,.22s0-.06,0-.11,0,.1,0,.19c0-.09,0,.15,0,.19-.55,1-2.17,1.3-3.12,1.73a2.8,2.8,0,0,0-.48.3l-.68-.24c-1.14-.43-2.27-.84-3.42-1.22-2.22-.74-4.46-1.41-6.68-2.15-4.2-1.41-8.26-3.19-12.38-4.8a13.83,13.83,0,0,0-.46-1.42c0-.1-.21-.13-.23,0-.07.41-.12.82-.16,1.24a.16.16,0,0,0,0,.12c-.24,2.41-.18,4.87-.3,7.28-.15,3-.58,6-.7,9v.06c-.44,2.56-.84,5.14-1.2,7.72a1.71,1.71,0,0,0-1.36.15,26.68,26.68,0,0,1-11,3,33.24,33.24,0,0,1-5.73-.17c-1.26-.15-2.5-.41-3.74-.66.65-2.73,1.36-5.46,2.15-8.16A61.15,61.15,0,0,1,96,110.19c.9-2.16,2-4.21,3.08-6.3a1.57,1.57,0,0,0-1.34-2.34l-1.12.07a74.88,74.88,0,0,1-11-.6c-4.09-.41-8.24-.84-12.29-1.51a.24.24,0,0,0-.12.46c1.92.64,3.82,1.37,5.79,1.86s4.07,1,6.13,1.31,4,.63,5.93.87c1.3.16,2.61.24,3.91.34a42.87,42.87,0,0,0-4,9.09c-1.35,4-2.35,8.13-3.32,12.24q-3.13,13.22-5.15,26.66Q81,162,80.12,171.67q-.25-2.94-.62-5.87A166,166,0,0,0,76,146.51a1.33,1.33,0,0,0,.16-.83,23.44,23.44,0,0,0-1.67-4.88c-.65-2.26-1.34-4.51-2.09-6.74a76.54,76.54,0,0,0-3-9,64,64,0,0,0-3.18-6.5,91.78,91.78,0,0,0-4.67-8.56,1.73,1.73,0,0,0-.44-.7c-.31-.49-.62-1-.94-1.45-.21-.31-.81-.12-.66.27.08.19.15.38.23.56-7-1.74-13.75.92-20.37,2.88a48.79,48.79,0,0,1-5.07,1.27,11.53,11.53,0,0,1-4.25.28c-.9-.18-1.3-.59-.86-1.55a5.06,5.06,0,0,1,2.76-2.09,3.69,3.69,0,0,0,1.18-.47,2.11,2.11,0,0,0,.86-2.63,2.07,2.07,0,0,0-2.48-1.22l-.42.17a.93.93,0,0,1-.05-.1c-.14-.38-.2.08-.14-.48.1-.9,1.06-1.72,1.71-2.24a7.62,7.62,0,0,1,6.09-1.76,3.64,3.64,0,0,1,.47.14c2.17.75,3.22-2.37,1.49-3.53-.1-.07-.24-.16-.38-.27-.72-.5-1.78-1.34-1.49-2.1.35-1,2.45-1.49,3.24-1.81a27.59,27.59,0,0,1,9-2,29.78,29.78,0,0,1,9.25,1A31.16,31.16,0,0,1,64.66,94c1.25.57,4,1.31,4.14,2.89,0,.35.54.47.64.09.86-3-2.45-5-4.63-6.25a23.68,23.68,0,0,0-4.62-1.84,27,27,0,0,0-4.61-1.06A31.19,31.19,0,0,0,45.47,88c-3,.59-6.42,1.6-8.88,3.56a4.5,4.5,0,0,0-1.58,5l.06.19a11.77,11.77,0,0,0-7,4.21c-1.41,1.78-2.15,4.26-.89,6.33l-.15.12a6.55,6.55,0,0,0-2.37,3.9,5.12,5.12,0,0,0,3.85,5.93c-.63.62-1.24,1.28-1.83,1.93a45.42,45.42,0,0,0-3.72,4.7,74,74,0,0,0-5.9,10.53A83.73,83.73,0,0,0,10.2,158a118.6,118.6,0,0,0-1.13,12.34c-.17,4.72,0,9.43-.09,14.15a64.71,64.71,0,0,1-1.6,13.37c-1,4.22-2.26,8.36-3.43,12.53A112.08,112.08,0,0,0,.48,224.62,33.52,33.52,0,0,0,.07,232a26.75,26.75,0,0,0,2,7.07,1.19,1.19,0,0,0,1.4.72A7,7,0,0,0,4.62,243a9,9,0,0,0,5.81,3.78,35.93,35.93,0,0,0,8.16.31c2.95-.11,5.9-.2,8.85-.33s6.17-.25,9.25-.39q-.15-4.74-.36-9.48c-.74-17.1-1.91-34.2-1.95-51.32l-.17-.13a29.51,29.51,0,0,0-4.7-3.28c-.9-.59-.06-2.06.86-1.46,1.35.89,2.76,1.67,4,2.67,0-1.78,0-3.57.06-5.35a.85.85,0,0,1,1.69,0c-.11,5.37-.07,10.74,0,16.11.39,17.41,1.63,34.78,2.19,52.17,8.28-.35,16.57-.71,24.85-1l20.21-.74a2.46,2.46,0,0,0,2.38-2.38,10.4,10.4,0,0,0-1.62-7,2.94,2.94,0,0,0-.49-.56c0-1.45.09-2.91,0-4.37-.13-2.22-.31-4.44-.47-6.66-.33-4.45-.58-8.91-.68-13.37q-.3-13.38.45-26.75a330.47,330.47,0,0,1,7.23-52.88c.28-1.27.56-2.54.85-3.8A22.54,22.54,0,0,0,101,129a27.81,27.81,0,0,0,11.84-2.64c0,.19,0,.38-.08.57-1,8.25-1.9,16.5-2.66,24.78-1.52,16.48-2.45,33-2.32,49.6,0,4.59.21,9.16.43,13.74a61.72,61.72,0,0,0,1.86,14.08,1.2,1.2,0,0,0,.83.89c0,.65.06,1.31.1,2,.15,2.1.58,6.47,1.5,8.38a8.39,8.39,0,0,0,4.28,4.14c2.42,1,5,.74,7.57.57,11.08-.72,22.15-1.69,33.22-2.54l4.63-.35a9,9,0,0,0,4-.92c1.39-.8,2.47-4.78,2-6.42a3.57,3.57,0,0,0-.39-.87"/>
              </g>
              <g id="head_hat-hip" data-name="head/hat-hip">
                <path id="_-Background-2" data-name="ðŸŽ¨-Background" class="cls-1" d="M133.43,56.05a107.54,107.54,0,0,0-.88-14.25,21.5,21.5,0,0,0-5.83-12.06c-6.91-7.07-16.92-8.8-26.24-10.38L84.55,16.65c-4.86-.82-10-2.14-15-1a15.57,15.57,0,0,0-6.35,3.5,22.32,22.32,0,0,0-5,5.23,19.38,19.38,0,0,0-2,6.79q-.68,3.94-1.05,7.92a98.26,98.26,0,0,0-.2,16c.17,2.58.45,5.15.81,7.72.17,1.27.37,2.54.6,3.8.06.37.11.78.18,1.2a12.57,12.57,0,0,0-.76,4.39c.06,4.34,3.73,7.08,7.42,8.54,2.15.85,4.39,1.43,6.49,2.38a14.6,14.6,0,0,1,5.24,4.48A50.77,50.77,0,0,0,84.79,97c7.89,5.61,17.88,8.26,27.45,6.25a24.28,24.28,0,0,0,6.68-2.36,15.09,15.09,0,0,0,5.2-5,48.94,48.94,0,0,0,5.77-12.42,71.77,71.77,0,0,0,3-13.51,101,101,0,0,0,.58-13.91Z"/>
                <path id="_-Ink-2" data-name="ðŸ–-Ink" class="cls-2" d="M82.59.16c6.59-.91,15.69,2,19,8,15.67-3.7,35.45-3.82,48.37,8.49,13.48,14.6-3.46,33.85-14.68,38.19.81,4-.46,29.44-9.48,40.8-7.16,9.62-23.83,14.06-31.55,2.57l-.06-.1c-.82-1.32-.11-1.28.74-.29,7.55,6.64,17.82,6.76,25.74-.26,14.83-12.82,13.3-44.25,6.24-62.43-20.1-2.21-41.61,3.89-55.5,19l.94,5.66c.16,1,.34,1.92.48,2.89a2,2,0,0,1-.33,1.73c-1.41,1.66-3.8-.83-5.76-1.82A8.38,8.38,0,0,0,65,62.53c-9.44,1.22-7.58,19.52,2.79,16.32.87-.55,1.62-.38,2,.41,2.47,2.26,4.1,6.3,8.21,10.19a33.17,33.17,0,0,0,4.39,3.85c1,1,3.85,2,2.93,3.61-1.73,3.78-11.94-8.07-13.75-11.35C65.87,87.8,59.6,87,53.74,86.49c-30.92-1.6-26.8-34.21-1.45-54.8A70.83,70.83,0,0,1,67.8,23.1c.75-.3.42-1.53-.34-1.22A75.52,75.52,0,0,0,57,27.09v-1.2a33.35,33.35,0,0,1,.38-6,14.48,14.48,0,0,1,.93-3.68C58.81,13.06,67.62,2.22,82.59.16Zm-18,66.57c.48-.45,1.37.09,1.8.08A6.89,6.89,0,0,1,69.29,68a7.9,7.9,0,0,1,1.22.84h0l0,0c.45.32,2.11,2.14,1.06,1.65l-.24-.3s0,0,0,0l.06.09c.89,1.34-.65-.07-.89-.45l0,0,.31.38.1.13.07.06c1,1,1.06,1.93-.14.43a.42.42,0,0,1,.09.21l.07.09c.94,1.21.18.78-.29.27l0,0h0c.43.67-.43.2-.58-.16h0a2.13,2.13,0,0,1-.3-.33h0a7.82,7.82,0,0,0-3-1.85L66.34,69a13.87,13.87,0,0,0-1.81-.27.33.33,0,0,1-.21-.14c-.93,0-.64-.41-.26-.48H64c-.59-.06-1-.28-.4-.41h.08l0,0c-.51,0-.17-.55.11-.43-.12-.39.43-.2.5-.26a.55.55,0,0,1,.15-.11C64.57,66.73,64.49,66.74,64.57,66.73Zm3.15-6.35-.12.07a1.25,1.25,0,0,1-.3.12l.42.19v-.38Z"/>
              </g>
              <g id="face_Smiling" data-name="face/Smiling">
                <path id="_-Ink-3" data-name="ðŸ–-Ink" class="cls-2" d="M109.56,86.43A8.59,8.59,0,0,1,106,83.65a1.64,1.64,0,0,1-.34-1.3,1.81,1.81,0,0,1,.73-1.17,1.72,1.72,0,0,1,1.3-.36,1.65,1.65,0,0,1,1.11.73l.06.09a5.6,5.6,0,0,0,2.09,1.75,4.71,4.71,0,0,0,2.58.46,7,7,0,0,0,4.21-2.42l.47-.49a.76.76,0,0,1,.39-.3.83.83,0,0,1,1,.33.76.76,0,0,1,.14.52,5.47,5.47,0,0,1-1.79,3.43,7.7,7.7,0,0,1-8.31,1.51ZM114.68,66c1.59,1,4,3.23,2.31,5.64-2,2.12-4.93-.31-6.36-1.41-1.33-.86-2.83,1.34-1.59,2.33,10.35,7.67,14.56-6.31,6.45-7.7C114.59,64.72,114.26,65.72,114.68,66ZM96.12,57.1c.18-2.19,3.51-2.69,3.84-.52A8.81,8.81,0,0,1,99,62.05a1.63,1.63,0,0,1-3.09-.63A17.73,17.73,0,0,1,96.12,57.1Zm25.36-1a1.78,1.78,0,0,1,1.94-.79c2.51.73,1.77,4.3.89,6a1.74,1.74,0,0,1-2.73.35c-1.14-1.35-1.68-4-.23-5.38A2.39,2.39,0,0,1,121.48,56.13ZM99,47.52l.39-.07c1.23-.21,2.76-.42,3.62.57a1.43,1.43,0,0,1,0,2c-1.08.88-2.29.54-3.59.61a13.86,13.86,0,0,0-3.14.54,21.33,21.33,0,0,0-6.07,3.13c-.25.17-.51-.15-.39-.39a12.58,12.58,0,0,1,5.46-5.1A13.57,13.57,0,0,1,99,47.52Zm20.2-1,.3.06c3.3.69,7.6,2.07,9.16,5.31.06.46,0,.56-.06.63v0a.44.44,0,0,1-.28.19l-.16,0a9.54,9.54,0,0,1-1.84-.72l-.59-.29a16,16,0,0,0-2.13-.91,26,26,0,0,0-4.84-1.07,2,2,0,0,1-1-.37,1.46,1.46,0,0,1-.54-.82,1.49,1.49,0,0,1,.17-1.25,1.66,1.66,0,0,1,.76-.66A1.75,1.75,0,0,1,119.2,46.54Z"/>
              </g>
              <g id="facial-hair_Moustache-4" data-name="facial-hair/Moustache-4">
                <path id="_-Ink-4" data-name="ðŸ–-Ink" class="cls-2" d="M135.48,70.38c-.7-.94-2-2.17-3.23-2.11a.18.18,0,0,0-.13.31c.42.51,1,.87,1.4,1.39a6.64,6.64,0,0,1,1.22,5.53,6.59,6.59,0,0,1-4,4.12,6.39,6.39,0,0,1-5.69-.09c-2.52-1.57-4.66-3.82-7.83-3.87a1.74,1.74,0,0,0-1.57.82,1.83,1.83,0,0,0-1.55-.81c-3.56,0-6.21,2.41-9.19,3.93-2,1-4.62.71-6.7,0s-4.09-1.93-4.83-4a5.19,5.19,0,0,1,.1-3.54,6.12,6.12,0,0,1,1.23-2c.54-.6,1.26-1,1.82-1.53a.19.19,0,0,0-.13-.31C94,68.11,91.85,71,91.4,73A6.48,6.48,0,0,0,93,78.61c2.72,3.14,7.74,4.18,11.64,3.25,3.17-.74,6.17-2.47,9.48-2.22a1.62,1.62,0,0,0,1.55-.71,1.6,1.6,0,0,0,1.57.71c3.08-.29,5.83,1.89,8.82,2.42a10.09,10.09,0,0,0,7-1.43,7.56,7.56,0,0,0,3.73-6.06,6.69,6.69,0,0,0-1.26-4.19"/>
              </g>
            </g>
          </g>
        </g>
      </g>
    </g>
  </g>
</svg>
