<svg xmlns="http://www.w3.org/2000/svg" viewBox="0 0 246.14 232.41">
  <defs>
    <style>
      .cls-1 {
        fill: #fff;
      }

      .cls-1, .cls-2 {
        fill-rule: evenodd;
      }

      .cls-2 {
        fill: #1e293b;
      }
    </style>
  </defs>
  <title>Asset 1</title>
  <g id="Layer_2" data-name="Layer 2">
    <g id="Layer_1-2" data-name="Layer 1">
      <g id="Introduction">
        <g id="variations">
          <g id="images">
            <g id="a-person_bust" data-name="a-person/bust">
              <g id="body_Whatever" data-name="body/Whatever">
                <path id="_-Background" data-name="ðŸŽ¨-Background" class="cls-1" d="M233.61,147.39c2.16-1.13,4.27-2.36,6.35-3.64a1.32,1.32,0,0,0-1.33-2.29l-2.3,1.23A14.21,14.21,0,0,0,238,141l0,0c1.94-1.74-.55-5-2.75-3.58a31.36,31.36,0,0,1-6.13,3.77c-4.62,2-9.71,2.28-14.67,2.34a19.29,19.29,0,0,0-5.3.53c.69-2.77,2.42-4.86,3.33-7.54.68-2.71-3.23-4.56-4.61-1.95-.34.64-.67,1.28-1,1.93-3,2.72-8,2.48-11,5.41a9.32,9.32,0,0,0-2.89,5.67c-.23,1.41.12,2.83-.73,4.08-4.12,5.83-10.64,15.06-13.95,21.48-2.34-15.26-8.6-34.14-15.06-48.09a57.94,57.94,0,0,0-7.79-12.6c.36-1.26-.92-3.5-1.74-2.81-2.51-3.08-7-3.87-10.53-5.4A20.93,20.93,0,0,1,132.36,93c-2.52-9.28-8.75-10.46-17.37-10-8.26,0-14.37,3.52-16.17,11.93-3.66,6.38-12.3,5.33-18.52,7a61.58,61.58,0,0,0-13.18,4.69c-4.68-4.43-21.42,14.18-22.94,19,.89.17,1.78.38,2.66.63a.64.64,0,0,1-.33,1.23,25.46,25.46,0,0,0-3-.52c0,.1-.06.19-.08.29l-.33,0a3.61,3.61,0,0,1,.72.48c.56.46-.17,1.37-.77,1a4.67,4.67,0,0,0-2-.49c0,1.39-5-.17-5.77-.63-3.42-.43-6.94,0-10.14-1.62-4.25-.89-8.53-1.89-12.74-3-1.11.44-2.16,2-1.27,3.13a.64.64,0,0,1-.77,1,16.31,16.31,0,0,1-5.1-5.25c-.65-.65-1.8-.51-2.67-.78a1.37,1.37,0,0,0-.19.68c-3.69.61-1.06,4.64.8,5.9-1,.64-1,1.9-.94,3a1.44,1.44,0,0,0-.09,1.25c.69,1.6,2.19,2.95,3.34,4.25a27.72,27.72,0,0,0,3.92,4,42.41,42.41,0,0,0,20.15,7.93c2.57.39,6.27,1,7.86,3.17a75.7,75.7,0,0,1-1.76,7.58c-.91,3.34-.85,6.83-.86,10.24a.25.25,0,0,0-.41.11,8.91,8.91,0,0,1-1.22,4.05A33.59,33.59,0,0,0,31.69,180c-1.12,11-1.39,22.3,1.15,33.12a39.37,39.37,0,0,0,4.74,11.34,2.4,2.4,0,0,0,2.63,1.14,18.57,18.57,0,0,0,10.44,1.74c11.5-3.26,7.49,4.58,23.61,2.18,27.83-3.54,56,3.42,83.71-.67.69,5.29,9.64,3.77,12.75,1.54,9.32-6.94,13.95-28.89,18.63-40,3.22-8.78,8.6-24.32,15.66-30.21a19.92,19.92,0,0,1,7.23-3.23c9.54-2.46,19.13-4.79,28.69-7.18,1.63-.4,1.33-3.17-.4-3Z"/>
                <path id="_-Ink" data-name="ðŸ–-Ink" class="cls-2" d="M21.08,145.74a13.06,13.06,0,0,1-1.91-.49c-1-.28-1.9-.61-2.83-1a33.52,33.52,0,0,1-5.51-2.79,24.43,24.43,0,0,1-7.17-6.86l-.13-.19c-1.07-1.63-3-5.25-.83-6.49-1.43-1.19-2.77-3.33-2.7-5,.11-2.33,3-2.3,4.46-1.31a11.71,11.71,0,0,1,2.42,2.45c.81,1,1.67,1.94,2.57,2.85.23.24.47.48.72.71l.24.23c0-.09-.07-.18-.1-.28A3.57,3.57,0,0,1,12,123.35a3.5,3.5,0,0,1,2.83.2l.14.06a35.64,35.64,0,0,0,3.76,1.32c5.22,1.47,10.66,1.72,16,2.45a56,56,0,0,1,6.21,1.17,24.19,24.19,0,0,1,4.77-9.12c10-12.53,26.38-16.67,41.39-19.35,1.37-.24,2.51,1.57,3.3,1.15a16.38,16.38,0,0,0,4-3.21c2.49-2.67,4.25-5.8,6.32-8.77,1-1.47,3.39-.16,2.43,1.42l-.46.77a38.18,38.18,0,0,1-6.79,8.84,14.56,14.56,0,0,1-4.94,3,8.58,8.58,0,0,1-4.92.43l-.18-.27.18.27a85.49,85.49,0,0,0,14.36,15.39,207.22,207.22,0,0,0,16.95,13l.49.34a80.13,80.13,0,0,0,23.08-26.22,9.91,9.91,0,0,1-3.35-1.46,11.05,11.05,0,0,1-3.23-2.58c-1.94-2.35-1.68-5.39-2-8.25,0-.18.21-.22.32-.13,1.05.87,1.41,2.3,1.85,3.53a7.47,7.47,0,0,0,2.13,3.42,15.48,15.48,0,0,0,3.51,2.12c.62.3,3.75,1.07,4.1,1.7,5.39-1.26,10.64.92,14.64,4.61s6.69,8.21,9.19,12.78a106.82,106.82,0,0,1,6.74,15.2,83,83,0,0,1,4.18,16.33c.68,4.71,1.1,9.49,1.37,14.26l0,.59q6-9.39,12.25-18.6c-1-2.53.1-5.12,1.88-7.08,2-2.16,4.69-3.17,7.3-4.34l.34-.16a17.05,17.05,0,0,0,3.59-2.06c1-.83,1.81-2,2.91-2.73,1.6-1.11,4.49-.88,4.57,1.55a10,10,0,0,1-1.06,4,15,15,0,0,1-2.35,3.71.86.86,0,0,1-.14.13l0,0a32.9,32.9,0,0,0,4,.45,31.36,31.36,0,0,0,8.14-.65,29.58,29.58,0,0,0,7.83-2.87c2.1-1.14,4-2.61,6.42-3,.22,0,.44,0,.67-.06a.63.63,0,0,1,.61.8c-.08.21-.17.41-.26.62a14.36,14.36,0,0,1-3.67,4.91l-.12.1a15.53,15.53,0,0,0,1.64-.65c3.17-1.42,6-3.58,9.44-4.45l.49-.11a1,1,0,0,1,1,1.69l-.3.38a38.62,38.62,0,0,1-5,5.2c-.63.53-1.28,1.05-1.94,1.55-.28.21-.56.42-.85.62l-.14.1,1-.72c2.08-.63,4.12-1.38,6.13-2.2.8-.33,1.41.48,1.5,1.14.28,2.22-2.19,3.83-3.79,4.9a23.9,23.9,0,0,1-5.2,2.55,53.17,53.17,0,0,1-10.81,2.34l-1.78.25c-7,1-14.38,2.16-19.43,7.64-2.83,3.07-4.74,6.88-6.49,10.63s-3.29,7.59-4.75,11.46-2.82,8.08-4.22,12.12c-1.28,3.72-2.82,7.38-4.34,11l-.24.57a82.35,82.35,0,0,1-12.45,21.41c-.88,1.07-2.31-.44-1.5-1.5,5.62-7.24,9.53-15.79,12.76-24.32,1.46-3.88,2.69-7.85,4.1-11.75l.84-2.32c1.13-3.09,2.26-6.18,3.44-9.24a121.93,121.93,0,0,1,5-11.42l.2-.39a33.58,33.58,0,0,1,7-9.81c5.41-4.87,12.61-6,19.58-7l2.19-.28a66.84,66.84,0,0,0,8.76-1.62,23.46,23.46,0,0,0,4.78-1.83,18.46,18.46,0,0,0,1.76-1,45.67,45.67,0,0,1-4.95,1.17c-.83.15-1.64.27-2.45.34a41.32,41.32,0,0,1-6.3.09c-.18,0-.24-.3-.05-.33,1.49-.27,3-.6,4.47-1l.45-.11a1.25,1.25,0,0,1,.3-.76c.74-.9,2.15-1.36,3.12-2a34.85,34.85,0,0,0,3-2.16c.87-.7,1.69-1.44,2.49-2.22l.24-.24-.24.24c-2.15,1-4.19,2.27-6.43,3a22,22,0,0,1-5.55,1.2h-.24a40,40,0,0,0-5.89.51.17.17,0,0,1-.09-.32,25,25,0,0,1,5.24-1.31.56.56,0,0,1,.31-.35l.45-.22a14.11,14.11,0,0,0,3.76-2.37,12.15,12.15,0,0,0,2.45-3.24c-2.5.55-4.69,2.44-7,3.5a31.27,31.27,0,0,1-7.77,2.47l-.31,0c-5,.84-11.06.73-15.56-1.88-.14-.08,0-.28.11-.25,1.27.21,2.54.45,3.8.67a.66.66,0,0,1-.07-1,13.92,13.92,0,0,0,2.61-4.42l.1-.32c.27-.75.72-1.92.26-2.61a1.73,1.73,0,0,0-2.07-.28c-1.28.57-2.12,2-3.2,2.88a18.45,18.45,0,0,1-3.86,2.27l-.29.13c-2.36,1.06-4.87,2-6.73,3.83a7.57,7.57,0,0,0-2.14,3.67,4.28,4.28,0,0,0,0,1.95c.14.51.43.81.26,1.32a10.34,10.34,0,0,1-1.37,2l-1.36,2q-1.36,2-2.71,4.07-2.71,4.09-5.36,8.2l-1.73,2.69-.85,1.34-.46.71-.77,1.21a.56.56,0,0,1,0,.34,1.52,1.52,0,0,1-.68.81l-.06,0c-4.51,7.13-8.94,14.3-13.42,21.45-.24,2.18-.47,4.36-.66,6.54-.44,4.95-.75,9.9-.84,14.86-.05,2.4.14,4.82.25,7.22,0,1.14.12,2.28.21,3.43l.06.81a7.42,7.42,0,0,1-.26,3.28,1.21,1.21,0,0,1-2.07.43q-12.53-.51-25.07-.75c-15-.29-29.93-.25-44.89,0q-11.27.23-22.54.61c-3.7.12-7.41.29-11.11.35-2,0-5.14-.7-5.3-3v-.07a6.57,6.57,0,0,1-.77.16.78.78,0,0,1-.34,0h0c-3,.91-6.74-.39-9.56-1.14l-.24-.06a11.46,11.46,0,0,1-6.63-3.95c-3.09-3.92-4.15-9.17-4.7-14A55.1,55.1,0,0,1,30.62,196,53.3,53.3,0,0,1,31,184.8c.21-1.83.45-3.65.75-5.46.16-1,.37-2,.59-3,.09-.4.16-.83.27-1.24l0-.18a1.77,1.77,0,0,1-1.07-.23,2.51,2.51,0,0,1-1.11-2.31,68.85,68.85,0,0,1,.57-8.24c.29-2.71.69-5.42,1.2-8.1l.14-.68a29.53,29.53,0,0,1,1.64-5.94,65.36,65.36,0,0,1-8.85-2A27.34,27.34,0,0,1,21.08,145.74Zm155.59,28.37-.13,0c-1.19.33-2.4.62-3.6.92a33.35,33.35,0,0,0-6,2c-.4,5.11-1,10.19-1.57,15.28l-.12,1q1.32-2.44,2.71-4.83Q172.21,181.27,176.67,174.11Zm-143.25.51a17.79,17.79,0,0,1-.19,1.82c-.11.95-.2,1.9-.31,2.84-.23,1.91-.43,3.81-.57,5.72-.09,1.22-.15,2.44-.2,3.67,1.2-4.48,2.78-8.86,4.29-13.25a5.56,5.56,0,0,1-.77-.16l-.45-.12C35,175.07,34.1,174.86,33.42,174.62Zm147-4.17v.2a1.12,1.12,0,0,1-.92,1.22C179.84,171.39,180.14,170.92,180.45,170.45ZM43.38,136.69a12.9,12.9,0,0,1,3.67.85l.12,0c.87.34,2.14.76,2.43,1.69a.41.41,0,0,1-.38.51c-.95.07-2.07-.94-2.94-1.28a13.41,13.41,0,0,0-3-.82,13.8,13.8,0,0,0-6.94.77c-.13.05-.21-.16-.09-.22A12.62,12.62,0,0,1,43.38,136.69Zm-26.73,6.05-.44-.4a15,15,0,0,1-2.87-3.7l-.2-.37c-.61-1.17-1.35-2.84.07-3.69a3.42,3.42,0,0,1,2.82-.07l.19.06c.42.15.83.33,1.19.5a37.23,37.23,0,0,1,4.43,2.71,14.33,14.33,0,0,0,5,2l.17,0c1.71.34,3.57.56,4.76,2,.3.35,0,1-.49.84-3.3-1.11-6.79-1.36-9.82-3.19-1.26-.75-2.45-1.62-3.73-2.34a11,11,0,0,0-2.13-.94l-.41-.12a1.31,1.31,0,0,0-.72-.07c-.36.13-.24.32-.13.66v0c.89,2.75,3.42,5.05,5.77,6.58.54.35,1.09.67,1.66,1,3.8,2,8.06,3,12.24,4.09q2.42.67,3.21.93a4.86,4.86,0,0,1,2.58.62,4.55,4.55,0,0,1,1.58,1.43,1.44,1.44,0,0,1,.45.81,5.62,5.62,0,0,1,.41,1.47.87.87,0,0,1-.19.7c.44,6.64-1.36,13.23-3.37,19.54l-.2.62-.13.4c-2.18,6.68-4.68,13.32-5.8,20.29a52,52,0,0,0-.17,14.15l0,.32C32.93,214,34,219,36.77,222.55a9.19,9.19,0,0,0,5.31,3.21l.12,0a43,43,0,0,0,6,1.48c1.88.2,3.45-.5,5.15-1.15h0c3.56-3.15,5.18-7.75,6.38-12.38,3.09-12,2.71-24.46,1-36.64-.91-6.36-2.16-12.66-3.4-19-.62-3.15-1.29-6.29-1.85-9.46l-.33-1.86c-.18-1-.36-2.07-.51-3.11-.2-1.39-.26-2.77-.33-4.17a19.92,19.92,0,0,0-7.06-6.83,26.36,26.36,0,0,0-6.48-2.64c-6.42-1.73-13.42-1.6-19.88-2.94a39.3,39.3,0,0,1-6.29-1.9l-.28-.11c-.94-.37-1.9-.57-2.37.54a2.25,2.25,0,0,0,.36,2.28c1.23,1.64,3.7,2.39,5.55,3a26.66,26.66,0,0,0,3.42.84,20.57,20.57,0,0,1,3.41.67.5.5,0,0,1,0,1,9.79,9.79,0,0,1-4.2-.23A29.32,29.32,0,0,1,16,131.87l-.84-.32-.21-.08.67.48a.07.07,0,0,1-.06.12,23.07,23.07,0,0,1-9-6.35l-.12-.14c-.86-1-2.81-4-4.45-3.12s1.09,3.76,2.09,5l.11.15a6.78,6.78,0,0,1,3.16,1.3,47.35,47.35,0,0,0,5,2.65c3.39,1.59,7,2.71,10.33,4.38a0,0,0,0,1,0,.08,41.71,41.71,0,0,1-6.3-1.56l-.09,0-.1,0c-1.28-.42-2.55-.9-3.8-1.41a39.63,39.63,0,0,1-4.06-1.92c-1.19-.65-2.52-1.83-3.9-2a1.74,1.74,0,0,0-.39,0c-1.59.13-.27,2.76.17,3.55a19,19,0,0,0,2.6,3.57,25.54,25.54,0,0,0,7.17,5.33C14.77,142,15.7,142.36,16.65,142.74Z"/>
              </g>
              <g id="head_Flat-Top" data-name="head/Flat-Top">
                <path id="_-Background-2" data-name="ðŸŽ¨-Background" class="cls-1" d="M117.42,6.4c12,0,27.48,7.52,28.8,15.23,1.56,9.09,9.89,44,8,55.13S142.21,96,126,96,97.65,87.14,94.87,84.1q-2.79-3-7.94-13.89Q78.25,69.06,78.2,62t5.65-9.66q-2-28,3.08-35.24C92,9.79,105.42,6.4,117.42,6.4Z"/>
                <path id="_-Ink-2" data-name="ðŸ–-Ink" class="cls-2" d="M145.49,20.39c0-.16.23-.18.27,0a217.31,217.31,0,0,1,5.86,24l.5,2.58c1.32,6.88,2.66,13.77,3.79,20.68L156,68a30.46,30.46,0,0,1,.18,10.77,18,18,0,0,1-4.83,8.88c-4.55,4.73-10.87,7.68-17.23,9a34.85,34.85,0,0,1-14.67,0l-.17,0c-1.62-.35-3.05-.76-3.9-2.28a.9.9,0,0,1,.32-1.23,4.27,4.27,0,0,1,2.41-.42c.89.1,1.76.37,2.64.54a32.08,32.08,0,0,0,15-.83c5.51-1.72,11.11-5,14.34-10,3.79-5.8,2.28-12.83,1.27-19.24l0-.19q-1.53-9.81-3-19.64l-.41-2.81C146.83,33.18,145.8,27.88,145.49,20.39ZM89.5,2.24C92.26.42,95.68,0,98.91,0h.4c4.14.06,25,.56,31.95.71l1.66,0,8.91.13H142c1.12,0,2.24,0,3.36.07h.16a3.18,3.18,0,0,1,2.2.76,1.45,1.45,0,0,1,.43,1.19V3l1.66.14a1.47,1.47,0,0,1,1.28,2.14l0,0c-.79,1.7-1.4,6.64-1.83,8.47a26.22,26.22,0,0,0-.51,2.92,4.88,4.88,0,0,1-.52,2.23c-.92,1.45-3.51,1.44-3.55-.62V18.1c-6.5-.28-15.39-.25-21.88.14a120.63,120.63,0,0,0-18.06,2.45c-1.51.31-3,.66-4.5,1a13.87,13.87,0,0,0-3.82,1.16c-1.23.74-1.21,2.07-1.07,3.34s.38.66.72,1.88l0,.08a24.3,24.3,0,0,0,1.35,3.9c.32.71.85,1.4.65,2.22a2.86,2.86,0,0,1-.82,1.28c-1.53,1.47-4.11.54-5.15,2.55s-1.12,5-1.21,7.28v.14a45.4,45.4,0,0,0,0,4.81c.1,1.46.49,2.9,0,4.3a1.21,1.21,0,0,1-2.17.29c-.07-.1-.14-.19-.2-.29l-.06-.1h0l.16.29a.11.11,0,0,1-.17.13c-1.46-1.59-3.6-1.27-5.25-.16S80.85,58.11,80.77,60a15.12,15.12,0,0,0,1,6.63,3.33,3.33,0,0,0,1.8,1.93,4.51,4.51,0,0,0,1.21.15,9.82,9.82,0,0,0,1.39.23A.92.92,0,0,1,87,70.1v0l0,.08.06.07A39.2,39.2,0,0,0,93.3,79.2a36.18,36.18,0,0,0,4,3.75,19,19,0,0,0,2.21,1.59,3.69,3.69,0,0,0,.79.34,3.2,3.2,0,0,1,.42.1l.13,0h0a1,1,0,0,1,.84.71A1.75,1.75,0,0,1,100.39,88a3.69,3.69,0,0,1-3.1-.88l-.06,0a27.68,27.68,0,0,1-5-4.52,25.07,25.07,0,0,1-5.52-11.7,2.33,2.33,0,0,1-1,1.1,3.78,3.78,0,0,1-2.48.28,6.18,6.18,0,0,1-4-2.66,10.86,10.86,0,0,1-1.57-4.83,19.42,19.42,0,0,1-.11-5.05,8.57,8.57,0,0,1,3.31-6.15A23,23,0,0,1,79.28,43.2a124.58,124.58,0,0,1,1.45-13.05l1.64-12.24h0l.07-.49a36.34,36.34,0,0,1,2-8.49A14,14,0,0,1,89.5,2.24Zm-6.9,57.9a5.38,5.38,0,0,1,7.1,2.45C91,64.8,87.19,66.27,86.57,64l0-.07a4.85,4.85,0,0,0-3.86-3.46C82.54,60.43,82.43,60.22,82.6,60.14Z"/>
              </g>
              <g id="face_Smiling" data-name="face/Smiling">
                <path id="_-Ink-3" data-name="ðŸ–-Ink" class="cls-2" d="M130.85,80.72a8.68,8.68,0,0,1-3.62-2.78,1.71,1.71,0,0,1-.34-1.3,1.92,1.92,0,0,1,.73-1.17,1.69,1.69,0,0,1,1.31-.35,1.63,1.63,0,0,1,1.1.73l.07.09a5.76,5.76,0,0,0,2.08,1.75,4.73,4.73,0,0,0,2.58.45A7,7,0,0,0,139,75.73l.48-.5a.76.76,0,0,1,.39-.3.77.77,0,0,1,.54,0,.86.86,0,0,1,.43.32.75.75,0,0,1,.13.52,5.37,5.37,0,0,1-1.79,3.44,7.65,7.65,0,0,1-8.3,1.5ZM136,60.31c1.6,1,4,3.23,2.31,5.64-2,2.12-4.92-.31-6.36-1.41-1.33-.85-2.82,1.34-1.59,2.33,10.36,7.68,14.56-6.3,6.45-7.7C135.88,59,135.55,60,136,60.31ZM117.4,51.39c.18-2.19,3.51-2.69,3.84-.52a8.87,8.87,0,0,1-.92,5.47,1.63,1.63,0,0,1-3.09-.63A17.31,17.31,0,0,1,117.4,51.39Zm25.37-1a1.78,1.78,0,0,1,1.94-.79c2.51.73,1.77,4.3.89,6a1.75,1.75,0,0,1-2.73.35c-1.14-1.36-1.69-4.06-.24-5.39C142.67,50.56,142.72,50.49,142.77,50.42Zm-22.49-8.61.4-.07c1.23-.21,2.75-.41,3.62.57a1.44,1.44,0,0,1,0,2c-1.09.88-2.29.54-3.6.61a14.64,14.64,0,0,0-3.14.54,21.18,21.18,0,0,0-6.06,3.14c-.26.17-.52-.16-.4-.4a12.58,12.58,0,0,1,5.47-5.09A13.32,13.32,0,0,1,120.28,41.81Zm20.2-1,.3.06c3.31.69,7.6,2.07,9.16,5.32.06.46,0,.56-.05.62l0,0a.38.38,0,0,1-.27.19l-.17,0a10.13,10.13,0,0,1-1.83-.71L147,46a16.44,16.44,0,0,0-2.12-.9A24.44,24.44,0,0,0,140,44a2.12,2.12,0,0,1-1-.37,1.48,1.48,0,0,1-.55-.83,1.5,1.5,0,0,1,.17-1.24,1.53,1.53,0,0,1,.77-.66A1.79,1.79,0,0,1,140.48,40.83Z"/>
              </g>
            </g>
          </g>
        </g>
      </g>
    </g>
  </g>
</svg>
