<svg width="222" height="263" viewBox="0 0 222 263" fill="none" xmlns="http://www.w3.org/2000/svg">
<path fill-rule="evenodd" clipRule="evenodd" d="M214.681 148.31L205.269 149.428C190.703 150.323 175.912 152.561 161.346 154.127C161.137 153.922 160.855 153.807 160.562 153.807C160.269 153.807 159.987 153.922 159.778 154.127C158.209 154.127 156.64 152.785 155.296 154.127C153.055 149.652 151.262 144.73 149.693 139.808C148.573 136.899 147.453 133.991 144.763 131.977C140.506 129.069 130.646 123.028 125.715 123.475C125.715 122.58 125.267 121.462 124.595 121.014C125.94 118.329 120.113 116.539 119.441 116.987C119.889 108.485 115.855 100.878 106.892 99.0879C98.8242 97.5218 87.3955 97.2981 83.1377 105.8L77.3113 105.576C76.4149 104.681 68.3475 113.407 71.7089 116.539C42.5768 129.292 25.7697 127.726 17.7024 164.195C16.5819 167.775 16.3578 171.355 15.4614 174.711C10.9084 184.311 7.95631 194.589 6.72179 205.139C4.70495 205.586 4.48086 209.166 6.72179 209.613C7.61817 209.613 8.51454 210.061 8.96273 210.508C8.51454 219.234 10.7555 238.699 12.1 238.699C14.5651 247.201 26.6661 249.438 34.9576 246.53C33.613 249.215 34.9576 251.004 34.9576 252.571C65.4343 253.689 98.6002 253.018 128.853 254.584C132.662 254.584 136.92 255.479 140.73 254.808C142.971 254.361 142.971 250.781 140.73 250.333L151.038 248.096C150.814 248.096 155.296 244.964 158.657 239.146C161.795 233.106 159.554 225.722 160.898 219.01C172.103 217.892 183.532 217.444 194.512 215.654C196.305 220.129 202.804 214.759 204.82 212.522C205.717 212.298 206.613 211.403 206.613 210.285C207.286 209.166 207.51 207.824 206.613 206.929C209.975 189.03 214.681 170.907 216.249 152.785C216.922 152.785 217.594 152.337 218.042 152.113C218.714 150.995 218.938 149.428 217.594 148.757C216.473 148.086 215.353 148.31 214.457 148.31H214.681Z" fill="white"/>
<path fill-rule="evenodd" clipRule="evenodd" d="M83.5858 103.563C84.4821 101.325 87.6195 102.22 87.1713 104.681C87.1713 106.024 86.2749 107.59 85.6026 108.932C84.9303 109.827 84.2581 110.946 83.3617 111.617C84.9475 113.171 86.592 114.663 88.2917 116.092L94.1182 120.119L99.4964 123.475C101.151 124.534 102.41 126.106 103.082 127.95C103.731 129.835 103.731 131.882 103.082 133.767C102.41 136.004 101.289 138.242 102.634 140.032L105.323 142.269C107.797 144.389 109.719 147.076 110.925 150.1V150.323C111.597 152.113 112.046 154.574 111.373 156.364C110.925 156.812 110.253 156.588 110.029 156.364L109.805 152.561C109.51 151.387 109.058 150.258 108.46 149.205C107.116 146.967 105.547 145.178 103.978 143.611L103.306 143.164C101.737 142.045 100.393 140.927 100.169 138.689C99.7205 136.676 100.617 134.662 101.289 132.648C101.702 131.338 101.702 129.932 101.289 128.621C100.841 129.516 100.169 130.411 99.4964 130.858L96.3591 135.333C94.7878 137.288 93.2927 139.303 91.8772 141.374L90.5327 142.94V143.611C88.2917 146.296 85.6026 140.703 84.9303 139.36C83.3617 136.452 82.2412 133.543 80.8966 130.411C79.328 127.726 77.5352 124.818 75.5184 122.133L71.7088 117.211C69.0197 119.448 65.6583 121.014 62.7451 122.58L52.2127 126.607L51.0922 127.055C45.0417 129.292 38.9911 131.977 33.837 136.004C28.2454 141.169 24.1439 147.736 21.96 155.022C18.8227 163.076 16.3577 171.578 14.1168 179.633C12.9296 184.016 11.809 188.416 10.7554 192.833C9.85898 196.637 9.1867 200.664 8.06623 204.244C10.3072 204.244 12.5481 205.139 14.5649 205.362C23.0805 206.481 31.372 208.271 39.2152 211.18C40.3357 211.627 40.5598 212.522 40.3357 213.417L42.1285 212.969C41.4562 212.074 41.9044 210.285 41.9044 209.166L42.1285 204.915L42.8007 196.86V196.189L44.1453 187.464V187.24L43.473 185.002L41.2321 179.409C41.2321 179.185 41.2321 178.962 41.4562 179.185C42.8154 180.397 43.9529 181.835 44.8176 183.436V182.541L46.1621 179.185H46.3862C47.0585 180.304 47.0585 181.87 47.2826 183.213V187.687L47.0585 196.189L46.1621 204.691V205.139L45.4899 209.166V209.613L44.8176 211.851C51.9776 209.871 59.1487 207.932 66.3306 206.034L81.793 202.006L82.9135 200.664C84.2581 199.322 86.0508 198.65 87.8436 199.769V200.216C87.4672 200.358 87.0937 200.508 86.7231 200.664L89.8604 199.769L97.0314 197.979C101.513 195.742 105.995 194.176 110.701 192.609H111.149C113.614 191.715 116.079 190.82 118.544 190.372C120.337 190.148 122.354 190.372 123.026 192.386L125.715 194.176L127.508 195.742L128.629 197.308C128.629 197.532 128.404 197.979 127.956 197.979C126.612 197.979 125.715 196.413 124.819 195.518L122.802 193.281H121.682C120.561 191.043 117.2 192.386 115.631 192.833L112.942 193.728L109.132 194.847L98.6 197.979C98.8241 198.427 98.8241 199.098 98.1519 199.322C95.4627 200.44 92.3254 200.888 89.6363 201.559C87.768 202.078 85.9006 202.6 84.034 203.125C83.6833 203.666 83.454 204.277 83.3617 204.915C83.1376 207.152 83.8099 210.061 84.4821 212.522V212.746C85.1544 214.759 85.8267 217.22 87.3954 218.115C87.8436 218.563 88.5158 218.787 88.964 218.787L98.6 213.864C99.0482 213.417 99.7205 213.864 99.9446 214.312C101.065 214.312 102.186 213.864 103.082 213.641C104.875 212.969 106.219 211.851 107.788 211.18C110.925 209.613 114.287 211.403 116.976 212.746L117.648 213.193C118.993 213.864 121.458 214.983 122.13 213.193C122.802 211.627 120.785 209.837 119.665 209.166C118.32 208.271 116.528 207.823 115.183 207.6C114.224 207.327 113.252 207.103 112.27 206.929C111.149 206.929 110.029 206.929 108.908 206.481C108.46 206.481 108.46 205.586 108.908 205.362C110.639 205.177 112.39 205.329 114.063 205.81L114.959 206.034C116.528 206.481 118.32 206.929 119.889 207.823C120.785 208.271 122.13 209.166 122.802 210.285C123.474 209.613 124.371 209.837 125.043 210.061H125.491C126.388 210.285 127.06 210.508 127.732 210.285L127.956 208.718C130.877 194.347 134.618 180.154 139.161 166.209L139.385 165.09C140.057 163.076 140.506 160.839 141.626 159.049C142.746 157.259 144.315 156.364 146.108 155.693L152.831 154.351H154.399L153.503 151.89L151.71 147.415L151.262 146.52C150.366 144.059 149.469 141.374 148.125 139.137C146.556 136.452 144.763 134.662 142.522 132.872C137.592 129.292 131.99 127.502 127.284 123.923L127.508 123.475C130.645 125.041 134.231 126.16 137.368 127.279L138.041 127.726C140.281 128.621 143.195 129.74 145.212 131.306C147.677 133.096 149.693 135.557 151.262 138.018C152.607 140.703 153.503 143.835 154.623 146.52V147.415L156.192 150.771C156.416 151.666 157.313 152.561 157.537 153.679L160.226 153.232C179.566 149.963 199.108 148.02 218.714 147.415C219.611 147.415 220.059 148.086 219.835 148.757L214.456 182.318C213.652 187.168 212.831 192.016 211.991 196.86L210.647 204.02C210.423 206.257 210.199 208.047 209.526 210.061C209.094 211.802 208.248 213.413 207.061 214.759C205.632 216.246 203.732 217.194 201.683 217.444C196.753 218.339 191.823 218.563 186.893 219.234L161.346 221.919C161.57 225.275 161.794 228.631 161.346 232.211V234.001L161.122 238.475C160.674 240.713 159.778 242.055 158.657 243.621C156.159 246.233 153.195 248.357 149.917 249.886C148.349 250.557 145.436 251.452 143.419 251.228C143.643 252.571 144.315 253.913 143.867 255.255C143.643 255.927 142.746 256.15 142.298 255.703C141.178 254.584 141.178 253.242 140.954 251.899C140.701 250.487 140.477 249.07 140.281 247.648C140.057 244.964 139.609 242.279 139.609 239.37C139.495 236.612 139.495 233.85 139.609 231.092C139.78 228.839 140.079 226.598 140.506 224.38H138.265C133.957 225.002 129.618 225.375 125.267 225.499C120.113 225.499 115.631 223.709 110.925 221.919L104.202 218.787L97.4796 216.325L92.1013 219.234C92.0436 219.391 91.9685 219.541 91.8772 219.681C91.429 220.353 90.7568 220.8 90.0845 221.024C89.3688 221.288 88.5974 221.365 87.8436 221.248C83.6626 223.489 79.4796 225.726 75.2943 227.96L71.2606 230.197L46.1621 242.95L45.4899 243.397C42.5766 244.74 39.4393 246.306 36.302 247.425V250.11C36.302 251.004 36.7502 252.347 35.8538 253.018C35.4057 253.466 34.7334 253.466 34.2852 253.018C33.837 251.899 34.2852 250.11 34.2852 248.991L34.7334 247.872C30.9238 248.991 27.1142 249.438 23.5287 248.767C19.9447 248.089 16.746 246.093 14.5649 243.174C12.324 240.265 10.5313 236.685 9.63489 233.106C8.51442 228.631 8.51442 224.38 8.51442 220.129L9.1867 206.257C8.5918 206.177 7.98886 206.177 7.39395 206.257C7.16986 206.705 6.49758 206.705 5.8253 206.705C4.70483 208.047 7.84214 209.39 8.73852 209.613V210.285H8.29033C6.94577 210.285 5.37711 210.061 4.48074 208.718C3.80846 207.6 4.03255 206.257 4.92892 205.362C5.37711 200.216 6.72167 195.294 7.84214 190.148L11.8758 175.606L12.5481 173.368C14.789 165.761 17.03 157.93 19.9432 150.771C21.5118 146.967 23.3046 143.388 25.7696 140.255C27.9111 137.351 30.4798 134.786 33.3888 132.648C39.2086 128.793 45.5462 125.78 52.2127 123.699L62.2969 119.895C65.4342 118.777 68.1233 117.211 71.0365 116.092C70.9594 115.944 70.8847 115.795 70.8124 115.644H69.4679C68.7956 114.973 69.0197 114.302 69.4679 113.407L71.0365 111.17L71.4847 110.498L74.3979 106.695C74.9278 106.224 75.534 105.845 76.1907 105.576C76.1907 105.576 76.4148 105.129 76.6389 105.353C78.6557 104.681 80.8967 104.681 82.9135 104.905L83.5858 103.563ZM159.778 222.143H157.088L148.125 223.261L141.402 224.156V225.051C141.421 229.377 141.496 233.703 141.626 238.028C141.626 240.713 142.074 243.621 142.522 246.306V247.201C142.971 247.201 143.195 247.201 143.419 247.648C143.867 248.32 145.884 247.648 146.78 247.648C149.267 246.563 151.543 245.048 153.503 243.174L154.175 242.055L156.192 239.818L157.088 235.343C157.088 233.553 157.537 231.987 157.761 230.197L159.778 222.143ZM81.1208 203.796H80.6726L49.7476 212.074L34.5093 215.878H33.837C29.8033 216.997 25.5455 218.115 22.6323 221.024C22.6323 221.248 22.4082 221.024 22.4082 221.024C25.8952 217.766 30.2549 215.59 34.9575 214.759L37.4225 213.864C31.3467 211.671 25.1335 209.877 18.8227 208.495L13.8927 207.6L10.5313 206.705L9.63489 206.481V221.248L9.85898 221.919C10.0831 226.394 10.5313 230.868 12.0999 235.119C13.2204 238.475 15.4613 241.831 18.1504 244.069C19.495 245.411 20.8396 246.306 22.6323 246.977C24.3262 247.335 26.0678 247.411 27.7865 247.201C36.0779 246.754 43.473 242.279 50.4199 238.475C62.1414 232.497 73.869 226.531 85.6026 220.576C85.2721 220.312 84.9715 220.011 84.7062 219.681C83.1376 218.115 82.4653 215.878 81.793 213.641C81.2359 211.369 80.9352 209.043 80.8966 206.705L81.1208 203.796ZM95.9109 222.814H96.135L95.4627 225.499L93.8941 228.407C92.8929 230.37 91.8469 232.309 90.7568 234.224C88.5158 238.028 86.2749 241.608 83.1376 244.964C82.4653 245.635 81.3448 244.74 81.793 243.845L88.5158 232.658L92.3254 227.288L93.8941 225.051L94.3423 224.604L95.9109 222.814ZM217.594 149.652C207.285 150.1 196.977 150.771 186.669 151.89C175.184 152.913 163.745 154.406 152.382 156.364L151.262 156.588C149.245 157.036 146.78 157.259 145.212 158.154C143.195 159.273 142.971 161.734 142.074 163.524C141.309 165.755 140.562 167.992 139.833 170.236L132.662 197.084L129.525 210.732C128.626 214.776 127.655 218.804 126.612 222.814C126.742 222.706 126.896 222.63 127.06 222.59C132.214 221.471 137.592 221.024 142.746 220.353H143.419L159.778 218.339L196.305 214.312C198.546 214.088 200.787 214.088 202.804 213.417C206.165 212.522 207.285 208.495 207.734 205.362L212.664 176.724L217.594 149.652ZM127.508 211.627C125.939 211.627 124.147 210.285 123.026 210.508C123.474 211.403 123.699 212.522 123.474 213.641C122.578 216.773 118.544 215.207 116.752 214.088C114.959 213.417 113.39 212.298 111.597 211.851C109.581 211.627 108.236 212.298 106.443 213.193C105.099 214.088 103.53 214.536 101.961 214.759H99.7205C99.6597 214.847 99.5838 214.922 99.4964 214.983L99.0482 215.207C102.778 215.99 106.448 217.037 110.029 218.339L111.822 219.01C116.079 220.8 120.561 222.366 125.267 222.366H125.939L127.508 211.627ZM119.441 201.783C121.009 201.559 122.13 201.783 123.25 202.678C124.595 203.796 125.491 205.586 127.508 205.586C127.956 205.586 128.18 206.481 127.508 206.705C126.164 207.152 125.043 206.257 124.147 205.362L123.474 204.691C122.354 203.573 121.458 202.901 119.889 202.901L114.511 203.573C112.572 203.826 110.63 204.05 108.684 204.244V204.02L110.925 203.349L119.441 201.783ZM118.096 195.966H118.32C120.561 195.966 122.354 195.966 124.147 196.86L124.371 197.084C126.164 197.979 127.732 199.322 128.853 200.888C128.853 201.111 128.853 201.335 128.404 201.335C126.612 200.888 125.043 199.545 123.474 198.427C121.682 197.084 119.665 197.308 117.648 197.532C115.407 197.532 113.39 197.979 111.373 198.427L105.771 199.322C105.547 199.322 105.323 198.874 105.771 198.874C107.564 197.979 109.805 197.532 112.046 197.084L118.096 195.966ZM48.8513 141.374C48.8513 141.374 49.0754 141.15 49.0754 141.374C52.7613 151.742 54.8761 162.601 55.35 173.592C55.35 174.487 54.2295 174.711 54.0054 173.592L51.5404 157.707L49.9717 149.428L48.8513 141.374ZM61.8487 145.625C61.8487 145.401 62.2969 145.178 62.2969 145.625C65.1227 152.103 65.8285 159.307 64.3137 166.209C63.8655 167.104 62.521 166.656 62.7451 165.761L61.8487 145.625ZM95.9109 139.808C95.9109 139.808 96.3591 139.584 96.3591 139.808C97.7037 141.598 98.1519 143.835 100.393 144.73C101.513 145.178 102.634 145.178 103.754 145.849C104.426 146.52 104.875 147.191 104.426 148.086C104.202 148.086 103.754 148.31 103.53 148.086L102.634 146.967C101.961 146.52 101.289 146.52 100.393 146.296C99.7205 146.072 98.8241 145.625 98.1519 144.954L95.9109 139.808ZM116.976 110.498H117.2V110.946L117.648 112.512L118.096 114.302L118.993 117.882C119.31 119.165 119.684 120.434 120.113 121.685H120.337V122.356C120.561 123.028 120.785 123.923 120.337 124.594L119.665 125.041L118.32 128.845L118.096 129.292L115.183 134.662C113.614 136.228 111.822 137.57 110.701 139.36L109.132 142.269V142.493C108.908 143.164 108.684 143.835 108.012 144.283H107.34C105.995 142.716 107.34 140.255 108.012 138.689C109.357 136.899 110.925 135.557 112.494 134.214C114.287 132.425 115.407 130.187 116.528 127.95L118.768 124.146C117.872 123.475 117.648 122.356 117.424 121.462C116.659 118.693 116.282 115.832 116.303 112.96V112.512L116.976 110.498ZM119.665 116.539C119.441 116.539 119.665 116.092 119.889 116.316C121.233 116.316 122.578 117.211 123.699 117.882C124.819 118.553 125.715 119.224 126.164 120.119C126.612 121.238 126.612 122.356 126.612 123.475C126.612 125.041 126.612 126.607 126.164 127.95C126.164 128.621 125.491 128.845 124.819 128.621C124.147 130.635 122.578 132.201 121.009 133.767C119.441 136.004 119.665 138.465 119.889 140.927C119.889 142.045 118.768 142.269 118.096 141.821L116.528 140.479C116.303 140.33 116.079 140.181 115.855 140.032C115.629 139.81 115.405 139.586 115.183 139.36L114.959 139.137L114.063 138.242C113.614 138.242 112.494 139.36 112.27 139.808L110.253 141.821L111.822 138.689C112.494 137.794 113.166 136.899 114.063 136.452C115.357 137.155 116.627 137.902 117.872 138.689C117.648 136.899 117.872 135.109 118.768 133.543L121.233 130.635L123.474 127.055L123.923 126.831L124.371 124.146V120.79L122.13 118.777L121.458 118.329L119.665 116.539ZM76.863 106.471C76.4459 106.711 76.068 107.012 75.7425 107.366L73.2775 111.17L72.157 113.407C71.9363 113.708 71.7122 114.006 71.4847 114.302L71.0365 114.973L71.4847 115.421L76.6389 121.238C78.8798 123.699 80.4485 126.384 82.0171 129.069C83.5858 131.753 84.7062 134.662 86.0508 137.57L88.5158 141.374L88.7399 141.598L90.5327 138.913L94.1182 134.438C95.1391 133.223 96.1851 132.03 97.2555 130.858L97.7037 130.411C98.6 129.516 99.4964 128.174 100.617 127.502C100.476 127.345 100.326 127.195 100.169 127.055C99.2723 125.489 97.7037 124.594 96.135 123.699L95.2386 123.028C89.5825 119.694 84.4482 115.548 80.0003 110.722L79.5521 110.051L76.863 106.471ZM82.9135 105.576C81.1207 105.576 79.328 105.576 77.7593 106.247L81.793 110.275L82.4653 107.59" fill="#5B3795"/>
<path fill-rule="evenodd" clipRule="evenodd" d="M141.178 56.3545C140.282 49.8661 137.817 42.9303 134.904 36.6657C128.853 23.6891 114.735 21.8992 102.186 19.2143C89.6922 16.5743 76.7756 16.6506 64.314 19.4381C57.5912 21.228 54.678 29.2825 55.7985 35.7708C56.4708 39.798 58.2635 43.6015 59.8322 47.405C63.0844 55.0556 64.8342 63.2588 64.9863 71.5685C64.7622 76.9381 64.0899 83.2028 70.1405 85.4401C76.191 88.3487 76.8633 96.6269 84.0343 101.102C87.1716 107.142 95.239 107.814 101.289 108.932C104.996 109.639 108.736 110.161 112.494 110.499C123.475 112.065 132.214 108.932 137.817 99.088C141.626 93.2709 144.54 86.335 143.867 78.9518L141.178 56.5782V56.3545Z" fill="white"/>
<path fill-rule="evenodd" clipRule="evenodd" d="M102.185 3.55294C102.857 2.88173 103.978 3.10547 104.426 3.55294C104.874 3.55294 105.098 4.00041 105.546 4.22415H107.787C107.997 4.05405 108.222 3.90422 108.46 3.77668C109.15 3.49071 109.902 3.38185 110.645 3.46001C111.389 3.53816 112.101 3.80085 112.717 4.22415C113.166 3.77668 113.838 3.3292 114.734 3.55294C115.631 3.55294 116.079 3.77668 116.527 4.44788C116.975 3.77668 117.872 3.10547 118.768 3.10547C120.112 3.10547 121.457 3.55294 122.578 4.44788C123.25 3.77668 123.922 3.3292 124.818 3.3292H127.059L129.3 4.67162C129.973 3.77668 131.317 3.10547 132.662 3.3292C134.454 3.3292 135.799 4.67162 136.471 6.23777C137.592 6.68524 138.712 7.35645 139.609 8.47512H139.833L141.177 9.37007C142.522 10.4887 142.746 12.0549 142.298 13.621L142.522 14.2923C143.642 14.2923 144.763 15.1872 145.435 16.3059C146.331 17.872 146.107 19.8856 145.435 21.4518C144.936 22.0762 144.329 22.6066 143.642 23.0179C144.315 24.5841 144.09 26.374 142.97 27.4927C142.97 27.9401 142.522 28.1639 142.074 28.6113C142.522 30.1775 141.85 31.7436 140.505 32.4148V32.6386C140.432 32.7147 140.357 32.7893 140.281 32.8623V33.0861C140.281 33.5335 140.057 34.2047 139.609 34.6522C138.936 35.5471 138.04 36.2184 137.368 37.5608C137.368 38.232 136.695 38.6794 136.023 38.4557C139.16 44.7203 140.953 51.8798 142.074 58.8157L143.194 69.3312L143.642 72.6873L144.315 82.0842C144.348 89.0405 142.062 95.8101 137.816 101.325C133.767 106.682 127.988 110.476 121.457 112.065C114.734 113.631 106.891 112.96 100.84 109.38C99.0477 108.261 100.84 105.8 102.409 106.695C105.735 108.418 109.379 109.445 113.116 109.714C116.853 109.983 120.607 109.489 124.146 108.261C128.465 106.721 132.318 104.103 135.338 100.657C138.358 97.2111 140.446 93.051 141.401 88.5725C142.074 84.769 142.074 80.9655 141.625 77.3857V77.162C141.192 69.899 140.444 62.6582 139.385 55.4596C138.266 49.2379 136.693 43.1061 134.679 37.1133C133.874 36.3901 132.968 35.7872 131.989 35.3234C118.95 34.7349 105.884 35.4846 92.9972 37.5608L92.3249 37.7845L88.2912 38.6794C87.1707 39.1269 86.7225 40.0219 86.4984 41.1405C85.8262 43.8254 85.8262 46.7339 85.6021 49.6425V57.697C85.378 59.9343 84.7057 62.1717 83.137 63.9616C82.2407 64.8565 81.1202 65.304 80.2238 65.9752C79.5515 66.4227 79.1034 66.8701 79.3275 67.5413C79.3275 69.3312 80.8961 71.5686 79.3275 72.911H78.207C77.7588 72.2398 76.8624 71.7923 75.9661 71.1211C75.742 71.1211 75.9661 70.4499 76.4142 70.6736L77.7588 71.3449C76.628 70.5346 75.3236 69.9984 73.9492 69.7787C73.2069 69.6615 72.4506 69.6615 71.7083 69.7787L70.3637 70.2262C69.7004 70.5442 69.0278 70.8427 68.3469 71.1211C66.1059 72.911 64.9855 75.8196 65.4337 78.9519C65.6578 80.518 66.5541 82.3079 67.8987 83.4266C69.6914 84.3215 71.9324 83.8741 73.7251 84.769C75.2938 85.4402 76.4142 87.0063 77.0865 88.7962L77.5347 89.4674L79.7756 93.9422C81.5956 96.3188 83.8835 98.2985 86.4984 99.7593C87.3948 100.207 88.0671 100.654 88.0671 101.773L87.6189 102.668C86.2744 103.339 85.1539 102.444 84.0334 101.773C82.925 101.035 81.876 100.213 80.8961 99.3118C78.9419 97.5724 77.2777 95.5332 75.9661 93.271C75.0697 91.4811 74.6215 89.2437 73.0528 87.9013C72.1565 87.0063 70.8119 87.0063 69.6914 86.7826C68.571 86.7826 67.4505 86.5589 66.5541 85.8877C62.7445 83.6503 61.6241 78.7281 62.5204 74.7009C62.6702 73.9348 62.8954 73.1854 63.1927 72.4635C61.8482 72.911 60.2795 71.3449 60.9518 69.7787C60.0554 69.1075 59.159 68.2126 58.7108 66.8701V65.0803C58.2627 64.6328 57.8145 64.409 57.5904 63.7378C56.9181 63.5141 56.2458 62.8429 55.7976 62.1717C55.3494 61.053 55.3494 59.9343 55.7976 59.2631C55.7214 59.1901 55.6467 59.1155 55.5735 59.0394C54.7741 58.5535 54.1223 57.8594 53.688 57.0317C53.2537 56.2039 53.0534 55.2737 53.1085 54.3409C53.1318 53.7197 53.2844 53.1101 53.5567 52.5511C51.988 51.6561 51.0917 50.7612 50.6435 49.195C50.4583 48.5012 50.4431 47.7731 50.5991 47.0721C50.7551 46.3712 51.0778 45.718 51.5399 45.1678C50.1953 44.0491 49.2989 42.9304 49.9712 40.6931C49.9712 39.7981 50.6435 39.1269 51.0917 38.4557C49.2989 37.1133 48.4025 35.3234 49.2989 33.3098C49.7471 32.4148 50.4194 31.7436 51.3158 31.2962C50.6435 29.9538 50.6435 28.8351 50.8676 27.4927C51.3158 26.374 51.988 25.2553 52.8844 24.8078V22.7942C52.8844 21.6755 53.5567 20.7806 54.229 20.3331C54.2215 20.1841 54.2215 20.0347 54.229 19.8856L55.5735 17.6483C56.0217 17.2008 56.4699 16.9771 57.1422 16.9771C57.0655 16.4578 57.0655 15.9302 57.1422 15.4109C57.5904 13.8448 58.4868 12.5024 59.8313 11.8312L61.6241 11.6074C62.2963 10.4887 63.1927 9.81754 64.3132 9.37007H65.6577C65.9563 9.3525 66.2556 9.3525 66.5541 9.37007C66.7025 9.29341 66.8519 9.21882 67.0023 9.14633C67.4505 8.47513 68.3469 7.80392 69.2432 7.58018C70.1396 7.13271 71.036 7.13271 71.9324 7.58018H72.3806C72.8287 6.68524 73.501 6.01403 74.6215 5.7903C75.2485 5.67637 75.8927 5.69727 76.5109 5.8516C77.1292 6.00592 77.7074 6.29012 78.207 6.68524C78.6552 5.56656 79.5515 4.67162 80.8961 4.89535C82.0166 4.89535 82.6889 5.34283 83.3611 6.01403H84.4816C84.8821 5.52134 85.3327 5.07146 85.8262 4.67162C86.4984 4.00041 87.3948 4.00041 88.0671 4.89535L88.2912 5.34283H88.9635C89.4117 4.67162 90.308 4.00041 91.4285 4.00041C92.549 4.00041 93.2213 4.44788 93.6694 5.11909H95.2381C95.7592 4.51576 96.3627 3.98855 97.0308 3.55294C97.7031 3.10547 98.3754 3.3292 98.8236 3.55294L99.72 4.67162C100.376 3.97209 101.241 3.50151 102.185 3.3292V3.55294ZM69.4673 74.2534C70.5878 73.5822 71.9324 74.2534 73.0528 74.7009C74.1733 75.3721 75.2938 76.267 76.1901 77.3857C77.0865 78.9519 74.8456 80.2943 73.7251 78.9519L71.7083 76.267C71.036 75.5958 69.9155 75.1484 69.4673 74.2534ZM70.1396 35.9946C70.5878 35.0997 69.2432 34.6522 69.0192 35.5471C68.8699 35.8231 68.7805 36.1274 68.7567 36.4401C68.7328 36.7528 68.7751 37.0671 68.8808 37.3624C68.9864 37.6578 69.1531 37.9276 69.37 38.1545C69.5868 38.3814 69.8491 38.5603 70.1396 38.6794L71.2601 38.4557L71.036 37.337C70.1396 37.337 69.9155 36.6658 70.1396 35.9946ZM58.9349 33.7573C59.8313 33.0861 58.9349 32.1911 58.2627 32.6386C57.5904 33.3098 57.1422 33.981 57.3663 34.8759C57.3663 35.5471 58.0386 36.2184 58.7108 36.6658C59.3831 37.1133 60.0554 35.9946 59.3831 35.5471L58.4868 34.6522C58.4868 34.2047 58.9349 33.981 59.159 33.7573H58.9349ZM62.7445 23.6892C63.6409 23.0179 62.7445 21.8993 62.0723 22.3467C61.6241 23.0179 60.9518 23.4654 60.9518 24.3604C60.9518 25.0316 61.4 25.9265 61.8482 26.374C62.5204 27.0452 63.4168 26.1502 62.7445 25.479C62.2963 24.8078 62.0723 24.1366 62.7445 23.6892Z" fill="#5B3795"/>
<path fill-rule="evenodd" clipRule="evenodd" d="M142.747 87.4539C142.299 86.559 140.954 86.7827 140.954 87.4539C140.954 88.7963 140.954 89.915 139.609 90.5862C138.713 91.0337 137.368 90.5862 136.696 89.6913L134.903 87.2302L132.662 85.664C131.766 85.4403 131.094 85.2165 130.422 85.4403C128.405 84.9928 126.388 85.8877 125.267 87.2302C125.26 87.3792 125.26 87.5286 125.267 87.6776C125.123 87.5235 124.974 87.3743 124.819 87.2302C124.371 86.7827 124.147 86.7827 123.699 86.7827C121.458 85.2165 118.769 84.9928 116.528 86.3352C114.735 87.4539 113.166 89.0201 110.925 89.2438C109.133 89.2438 107.116 88.3488 107.116 86.3352C107.116 85.4403 105.547 84.5453 104.875 85.4403C103.082 87.4539 102.634 89.915 103.754 92.5998C104.239 93.8124 104.966 94.9137 105.89 95.8369C106.815 96.76 107.918 97.4856 109.133 97.9695C111.822 99.0882 114.959 99.5356 118.096 99.3119C119.488 99.3119 120.86 98.9884 122.105 98.3671C123.35 97.7457 124.432 96.8436 125.267 95.7321C125.436 95.4437 125.585 95.1447 125.716 94.8372C126.596 95.8667 127.698 96.6835 128.941 97.2261C130.183 97.7686 131.532 98.0228 132.887 97.9695C135.576 97.9695 138.937 97.7457 140.954 95.5084C142.971 93.271 143.643 90.1387 142.747 87.4539Z" fill="#5B3795"/>
<path fill-rule="evenodd" clipRule="evenodd" d="M118.321 97.9694C116.752 97.2982 115.184 96.1795 114.287 94.8371C114.094 94.6301 113.952 94.3801 113.874 94.1079C113.797 93.8356 113.784 93.5488 113.839 93.271C113.987 92.7995 114.287 92.3902 114.693 92.1069C115.098 91.8236 115.586 91.6822 116.08 91.7048L117.425 92.376C118.097 93.4947 118.769 94.1659 119.666 94.6134L122.579 95.0608C124.82 94.8371 125.94 93.7184 127.509 92.376L127.957 91.7048C128.082 91.5892 128.238 91.5116 128.405 91.4811C128.621 91.394 128.862 91.394 129.078 91.4811C129.245 91.5116 129.401 91.5892 129.526 91.7048C129.613 91.9201 129.613 92.1608 129.526 92.376C129.526 93.9422 128.629 95.2846 127.733 96.1795C126.482 97.3355 124.928 98.1116 123.251 98.4169C121.598 98.7327 119.89 98.5776 118.321 97.9694ZM123.923 74.9246C125.716 76.0433 128.405 78.7281 126.612 81.413C124.372 83.6503 121.01 80.9655 119.441 79.8468C117.873 78.7281 116.304 81.1892 117.649 82.3079C129.302 91.0336 134.008 75.3721 125.044 73.806C123.923 73.5822 123.475 74.7009 123.923 74.9246ZM103.083 65.304C103.307 62.8429 107.116 62.1717 107.565 64.6328C107.789 66.8701 107.565 68.8838 106.444 70.6737C105.548 72.6873 103.083 71.7923 102.859 70.0024L103.083 65.304ZM131.767 64.1853C132.215 63.5141 132.887 63.0666 134.008 63.2904C136.697 63.9616 135.8 67.9888 134.904 70.0024C134.232 71.1211 132.663 71.3449 131.767 70.4499C130.422 68.8838 129.974 65.9752 131.543 64.4091C131.539 64.3345 131.539 64.2599 131.543 64.1853H131.767ZM106.444 54.1172H106.892C108.237 53.6697 109.805 53.446 110.926 54.5647C111.374 55.2359 111.598 56.3546 110.926 56.802C109.581 57.9207 108.237 57.4732 106.892 57.4732C105.676 57.5609 104.473 57.7861 103.307 58.1445C100.842 58.8157 98.8249 60.3818 96.5839 61.7242C96.1358 61.7242 95.9117 61.5005 96.1358 61.2768C97.2459 59.4207 98.7394 57.8221 100.517 56.5876C102.294 55.353 104.315 54.5109 106.444 54.1172ZM129.078 52.9985H129.526C133.111 53.6697 138.041 55.2359 139.834 59.0394V59.7106H139.386C138.489 59.7106 137.817 59.2631 137.145 59.0394L136.473 58.8157L134.232 57.697C132.215 57.0258 130.422 56.802 128.629 56.5783C128.222 56.5342 127.834 56.3795 127.509 56.1308C127.182 55.9253 126.943 55.6067 126.837 55.2359L127.061 53.6697C127.28 53.3561 127.594 53.1209 127.957 52.9985H129.078Z" fill="#5B3795"/>
</svg>
