<?xml version="1.0" encoding="utf-8"?>
<!-- Generator: Adobe Illustrator 24.0.1, SVG Export Plug-In . SVG Version: 6.00 Build 0)  -->
<svg version="1.1" id="Layer_1" xmlns="http://www.w3.org/2000/svg" xmlns:xlink="http://www.w3.org/1999/xlink" x="0px" y="0px"
	 viewBox="0 0 100 100" style="enable-background:new 0 0 100 100;" xml:space="preserve">
<style type="text/css">
	.st0{fill:#FFFFFF;}
</style>
<path class="st0" d="M63.8,15.4c-0.9,0-1.7,0.4-2.3,1L37.9,38c-0.4,0.4-0.4,1-0.1,1.4c0.2,0.2,0.5,0.3,0.7,0.3
	c0.2,0,0.5-0.1,0.7-0.3l23.7-21.6c0,0,0.1-0.1,0.1-0.1c0.3-0.3,0.6-0.4,0.9-0.4c0.6,0,1.2,0.4,1.2,1.2v15.7L49.7,45.8l0,0l-0.8,0.6
	c-0.4,0.3-0.5,1-0.2,1.4c0.2,0.3,0.5,0.4,0.8,0.4c0.2,0,0.4-0.1,0.6-0.2l15-11.3l0,26.1L24.7,32.4c-1.5-1.1-3.7-1.1-5.2,0.1
	c-0.8,0.6-2.9,2.5-3.1,2.7c-1,0.8-1.6,2-1.6,3.2c0,1.3,0.5,2.5,1.4,3.4l45.3,41.4c0.6,0.7,1.4,1,2.3,1c0.7,0,1.3-0.2,1.9-0.6
	l14.3-6.6c2.4-0.8,4.1-3.1,4.1-5.7V28.2c0-2.6-1.6-4.8-4-5.6L65.7,16C65.1,15.6,64.5,15.4,63.8,15.4z M67,18.8l12.3,5.6
	c1.6,0.6,2.7,2.1,2.7,3.8v43.2c0,1.7-1.1,3.2-2.8,3.8L67,80.8V64.9l0-30.1c0,0,0,0,0,0V18.8z M78.5,27.4c-0.3,0-0.5,0.2-0.5,0.5v25
	c0,0.3,0.2,0.5,0.5,0.5s0.5-0.2,0.5-0.5v-25C79,27.6,78.8,27.4,78.5,27.4z M22.2,33.6c0.5,0,0.9,0.1,1.3,0.4L65,65.4v15.7
	c0,0.7-0.6,1.2-1.2,1.2c-0.2,0-0.6-0.1-0.9-0.4c0,0,0-0.1-0.1-0.1L17.5,40.3c-0.5-0.5-0.8-1.1-0.8-1.8c0-0.7,0.3-1.3,0.9-1.8
	c0.6-0.6,2.3-2.1,2.9-2.6C21.1,33.8,21.6,33.6,22.2,33.6z M23.4,51.7c-0.3,0-0.5,0.1-0.7,0.3l-1.1,1l0,0l-5.4,4.9
	c-0.9,0.9-1.4,2.1-1.4,3.4c0,1.3,0.6,2.5,1.6,3.2c0.2,0.2,2.3,2.1,3.1,2.7c0.8,0.6,1.8,0.9,2.7,0.9c0.9,0,1.8-0.3,2.5-0.8l8.1-6.1
	c0.4-0.3,0.5-1,0.2-1.4c-0.3-0.4-1-0.5-1.4-0.2l-8.1,6.1c-0.8,0.6-2,0.5-2.9-0.1c-0.6-0.4-2.3-2-3-2.6c-0.5-0.4-0.9-1.1-0.9-1.8
	c0-0.7,0.3-1.3,0.8-1.8l6.5-5.9c0.4-0.4,0.4-1,0.1-1.4C23.9,51.8,23.6,51.7,23.4,51.7z M78.5,55.4c-0.3,0-0.5,0.2-0.5,0.5v4
	c0,0.3,0.2,0.5,0.5,0.5s0.5-0.2,0.5-0.5v-4C79,55.6,78.8,55.4,78.5,55.4z M78.5,61.4c-0.3,0-0.5,0.2-0.5,0.5v1
	c0,0.3,0.2,0.5,0.5,0.5s0.5-0.2,0.5-0.5v-1C79,61.6,78.8,61.4,78.5,61.4z M78.5,65.4c-0.3,0-0.5,0.2-0.5,0.5v5.8
	c0,0.3,0.2,0.5,0.5,0.5s0.5-0.2,0.5-0.5v-5.8C79,65.6,78.8,65.4,78.5,65.4z"/>
</svg>
